<mxfile host="app.diagrams.net" modified="2024-04-08T13:17:02.658Z" agent="Mozilla/5.0 (Windows NT 10.0; Win64; x64) AppleWebKit/537.36 (KHTML, like Gecko) Chrome/123.0.0.0 Safari/537.36 Edg/123.0.0.0" etag="kh4cSNWo3JwHBGl66fsR" version="24.2.2" type="google" pages="11">
  <diagram name="algorithm example" id="NnchTr8nRFRzvo39Hrvr">
    <mxGraphModel grid="1" page="0" gridSize="10" guides="1" tooltips="1" connect="1" arrows="1" fold="1" pageScale="1" pageWidth="850" pageHeight="1100" math="0" shadow="0">
      <root>
        <mxCell id="0" />
        <mxCell id="1" parent="0" />
        <mxCell id="boaOU-PEanvPbqPMdS58-7" value="" style="edgeStyle=orthogonalEdgeStyle;rounded=1;orthogonalLoop=1;jettySize=auto;html=1;fontFamily=Georgia;fontSize=14;fontColor=#000000;labelBackgroundColor=default;" edge="1" parent="1" source="boaOU-PEanvPbqPMdS58-5" target="SOYOnsbibyUnbH4vUrt--8">
          <mxGeometry relative="1" as="geometry">
            <mxPoint x="423.115" y="380" as="targetPoint" />
          </mxGeometry>
        </mxCell>
        <mxCell id="boaOU-PEanvPbqPMdS58-5" value="Start" style="strokeWidth=2;html=1;shape=mxgraph.flowchart.start_1;whiteSpace=wrap;labelBackgroundColor=none;fillColor=#09555B;strokeColor=#BAC8D3;fontColor=#EEEEEE;rounded=1;flipH=1;flipV=1;fontSize=14;fontFamily=Georgia;" vertex="1" parent="1">
          <mxGeometry x="260" y="350" width="100" height="60" as="geometry" />
        </mxCell>
        <mxCell id="boaOU-PEanvPbqPMdS58-10" value="" style="edgeStyle=orthogonalEdgeStyle;rounded=1;orthogonalLoop=1;jettySize=auto;html=1;fontFamily=Georgia;fontSize=14;fontColor=#000000;labelBackgroundColor=default;" edge="1" parent="1" source="SOYOnsbibyUnbH4vUrt--8" target="boaOU-PEanvPbqPMdS58-9">
          <mxGeometry relative="1" as="geometry">
            <mxPoint x="542.8850000000002" y="380" as="sourcePoint" />
          </mxGeometry>
        </mxCell>
        <mxCell id="SOYOnsbibyUnbH4vUrt--3" value="" style="edgeStyle=orthogonalEdgeStyle;rounded=1;orthogonalLoop=1;jettySize=auto;html=1;fontFamily=Georgia;fontSize=14;fontColor=#000000;labelBackgroundColor=default;" edge="1" parent="1" source="boaOU-PEanvPbqPMdS58-9" target="SOYOnsbibyUnbH4vUrt--2">
          <mxGeometry relative="1" as="geometry" />
        </mxCell>
        <mxCell id="boaOU-PEanvPbqPMdS58-9" value="i = 0" style="shape=label;whiteSpace=wrap;html=1;fixedSize=1;fontSize=14;fontFamily=Georgia;fillColor=#09555B;strokeColor=#BAC8D3;fontColor=#EEEEEE;strokeWidth=2;labelBackgroundColor=none;rounded=1;absoluteArcSize=1;arcSize=14;" vertex="1" parent="1">
          <mxGeometry x="660" y="350" width="87" height="60" as="geometry" />
        </mxCell>
        <mxCell id="SOYOnsbibyUnbH4vUrt--5" value="" style="edgeStyle=orthogonalEdgeStyle;rounded=1;orthogonalLoop=1;jettySize=auto;html=1;fontFamily=Georgia;fontSize=14;fontColor=#000000;labelBackgroundColor=default;" edge="1" parent="1" source="SOYOnsbibyUnbH4vUrt--2" target="SOYOnsbibyUnbH4vUrt--4">
          <mxGeometry relative="1" as="geometry" />
        </mxCell>
        <mxCell id="SOYOnsbibyUnbH4vUrt--2" value="j= i + 1" style="shape=label;whiteSpace=wrap;html=1;fixedSize=1;fontSize=14;fontFamily=Georgia;fillColor=#09555B;strokeColor=#BAC8D3;fontColor=#EEEEEE;strokeWidth=2;labelBackgroundColor=none;rounded=1;absoluteArcSize=1;arcSize=14;" vertex="1" parent="1">
          <mxGeometry x="790" y="350" width="87" height="60" as="geometry" />
        </mxCell>
        <mxCell id="SOYOnsbibyUnbH4vUrt--12" value="" style="edgeStyle=orthogonalEdgeStyle;rounded=1;orthogonalLoop=1;jettySize=auto;html=1;fontFamily=Georgia;fontSize=14;fontColor=#000000;labelBackgroundColor=default;" edge="1" parent="1" source="SOYOnsbibyUnbH4vUrt--4" target="SOYOnsbibyUnbH4vUrt--11">
          <mxGeometry relative="1" as="geometry" />
        </mxCell>
        <mxCell id="SOYOnsbibyUnbH4vUrt--15" value="False" style="edgeLabel;html=1;align=center;verticalAlign=middle;resizable=0;points=[];rounded=1;strokeColor=#BAC8D3;strokeWidth=2;arcSize=14;fontFamily=Georgia;fontSize=14;fontColor=#000000;labelBackgroundColor=default;fillColor=#09555B;gradientColor=none;" connectable="0" vertex="1" parent="SOYOnsbibyUnbH4vUrt--12">
          <mxGeometry x="-0.3901" y="3" relative="1" as="geometry">
            <mxPoint as="offset" />
          </mxGeometry>
        </mxCell>
        <mxCell id="SOYOnsbibyUnbH4vUrt--17" value="" style="edgeStyle=orthogonalEdgeStyle;rounded=1;orthogonalLoop=1;jettySize=auto;html=1;fontFamily=Georgia;fontSize=14;fontColor=#000000;labelBackgroundColor=default;" edge="1" parent="1" source="SOYOnsbibyUnbH4vUrt--4" target="SOYOnsbibyUnbH4vUrt--16">
          <mxGeometry relative="1" as="geometry" />
        </mxCell>
        <mxCell id="SOYOnsbibyUnbH4vUrt--36" value="True" style="edgeLabel;html=1;align=center;verticalAlign=middle;resizable=0;points=[];rounded=1;strokeColor=#BAC8D3;strokeWidth=2;arcSize=14;fontFamily=Georgia;fontSize=14;fontColor=#000000;labelBackgroundColor=default;fillColor=#09555B;gradientColor=none;" connectable="0" vertex="1" parent="SOYOnsbibyUnbH4vUrt--17">
          <mxGeometry x="-0.3336" y="-1" relative="1" as="geometry">
            <mxPoint as="offset" />
          </mxGeometry>
        </mxCell>
        <mxCell id="SOYOnsbibyUnbH4vUrt--4" value="if arr[i] &amp;gt; arr[j]" style="rhombus;whiteSpace=wrap;html=1;fontSize=14;fontFamily=Georgia;fillColor=#09555B;strokeColor=#BAC8D3;fontColor=#EEEEEE;strokeWidth=2;labelBackgroundColor=none;rounded=1;arcSize=14;" vertex="1" parent="1">
          <mxGeometry x="940" y="340" width="160" height="80" as="geometry" />
        </mxCell>
        <mxCell id="SOYOnsbibyUnbH4vUrt--8" value="Declare variable&amp;nbsp;&lt;span style=&quot;background-color: initial;&quot;&gt;&quot;temp&quot;&lt;/span&gt;&lt;div&gt;&lt;span style=&quot;background-color: initial;&quot;&gt;Declare array&lt;/span&gt;&lt;/div&gt;" style="shape=parallelogram;html=1;strokeWidth=2;perimeter=parallelogramPerimeter;whiteSpace=wrap;rounded=1;arcSize=12;size=0.23;labelBackgroundColor=none;fillColor=#09555B;strokeColor=#BAC8D3;fontColor=#EEEEEE;flipH=1;flipV=1;fontSize=14;fontFamily=Georgia;" vertex="1" parent="1">
          <mxGeometry x="400" y="335" width="232" height="90" as="geometry" />
        </mxCell>
        <mxCell id="SOYOnsbibyUnbH4vUrt--14" value="" style="edgeStyle=orthogonalEdgeStyle;rounded=1;orthogonalLoop=1;jettySize=auto;html=1;fontFamily=Georgia;fontSize=14;fontColor=#000000;labelBackgroundColor=default;" edge="1" parent="1" source="SOYOnsbibyUnbH4vUrt--11" target="SOYOnsbibyUnbH4vUrt--13">
          <mxGeometry relative="1" as="geometry" />
        </mxCell>
        <mxCell id="SOYOnsbibyUnbH4vUrt--23" value="False" style="edgeLabel;html=1;align=center;verticalAlign=middle;resizable=0;points=[];rounded=1;strokeColor=#BAC8D3;strokeWidth=2;arcSize=14;fontFamily=Georgia;fontSize=14;fontColor=#000000;labelBackgroundColor=default;fillColor=#09555B;gradientColor=none;" connectable="0" vertex="1" parent="SOYOnsbibyUnbH4vUrt--14">
          <mxGeometry x="-0.5527" y="1" relative="1" as="geometry">
            <mxPoint as="offset" />
          </mxGeometry>
        </mxCell>
        <mxCell id="SOYOnsbibyUnbH4vUrt--25" value="" style="edgeStyle=orthogonalEdgeStyle;rounded=1;orthogonalLoop=1;jettySize=auto;html=1;fontFamily=Georgia;fontSize=14;fontColor=#000000;labelBackgroundColor=default;" edge="1" parent="1" source="SOYOnsbibyUnbH4vUrt--11" target="SOYOnsbibyUnbH4vUrt--24">
          <mxGeometry relative="1" as="geometry" />
        </mxCell>
        <mxCell id="SOYOnsbibyUnbH4vUrt--27" value="True" style="edgeLabel;html=1;align=center;verticalAlign=middle;resizable=0;points=[];rounded=1;strokeColor=#BAC8D3;strokeWidth=2;arcSize=14;fontFamily=Georgia;fontSize=14;fontColor=#000000;labelBackgroundColor=default;fillColor=#09555B;gradientColor=none;" connectable="0" vertex="1" parent="SOYOnsbibyUnbH4vUrt--25">
          <mxGeometry x="-0.3378" y="-2" relative="1" as="geometry">
            <mxPoint as="offset" />
          </mxGeometry>
        </mxCell>
        <mxCell id="SOYOnsbibyUnbH4vUrt--11" value="j &amp;lt; arr.length" style="rhombus;whiteSpace=wrap;html=1;fontSize=14;fontFamily=Georgia;fillColor=#09555B;strokeColor=#BAC8D3;fontColor=#EEEEEE;strokeWidth=2;labelBackgroundColor=none;rounded=1;arcSize=14;" vertex="1" parent="1">
          <mxGeometry x="1170" y="340" width="154.5" height="80" as="geometry" />
        </mxCell>
        <mxCell id="SOYOnsbibyUnbH4vUrt--28" style="edgeStyle=orthogonalEdgeStyle;rounded=1;orthogonalLoop=1;jettySize=auto;html=1;fontFamily=Georgia;fontSize=14;fontColor=#000000;labelBackgroundColor=default;" edge="1" parent="1" source="SOYOnsbibyUnbH4vUrt--13" target="SOYOnsbibyUnbH4vUrt--29">
          <mxGeometry relative="1" as="geometry">
            <mxPoint x="1497.25" y="290" as="targetPoint" />
          </mxGeometry>
        </mxCell>
        <mxCell id="SOYOnsbibyUnbH4vUrt--30" value="True" style="edgeLabel;html=1;align=center;verticalAlign=middle;resizable=0;points=[];rounded=1;strokeColor=#BAC8D3;strokeWidth=2;arcSize=14;fontFamily=Georgia;fontSize=14;fontColor=#000000;labelBackgroundColor=default;fillColor=#09555B;gradientColor=none;" connectable="0" vertex="1" parent="SOYOnsbibyUnbH4vUrt--28">
          <mxGeometry x="-0.3296" relative="1" as="geometry">
            <mxPoint as="offset" />
          </mxGeometry>
        </mxCell>
        <mxCell id="SOYOnsbibyUnbH4vUrt--32" value="" style="edgeStyle=orthogonalEdgeStyle;rounded=1;orthogonalLoop=1;jettySize=auto;html=1;fontFamily=Georgia;fontSize=14;fontColor=#000000;labelBackgroundColor=default;" edge="1" parent="1" source="SOYOnsbibyUnbH4vUrt--13" target="SOYOnsbibyUnbH4vUrt--33">
          <mxGeometry relative="1" as="geometry">
            <mxPoint x="1630" y="380" as="targetPoint" />
          </mxGeometry>
        </mxCell>
        <mxCell id="SOYOnsbibyUnbH4vUrt--37" value="False" style="edgeLabel;html=1;align=center;verticalAlign=middle;resizable=0;points=[];rounded=1;strokeColor=#BAC8D3;strokeWidth=2;arcSize=14;fontFamily=Georgia;fontSize=14;fontColor=#000000;labelBackgroundColor=default;fillColor=#09555B;gradientColor=none;" connectable="0" vertex="1" parent="SOYOnsbibyUnbH4vUrt--32">
          <mxGeometry x="-0.303" y="3" relative="1" as="geometry">
            <mxPoint as="offset" />
          </mxGeometry>
        </mxCell>
        <mxCell id="SOYOnsbibyUnbH4vUrt--13" value="i &amp;lt; arr.length" style="rhombus;whiteSpace=wrap;html=1;fontSize=14;fontFamily=Georgia;fillColor=#09555B;strokeColor=#BAC8D3;fontColor=#EEEEEE;strokeWidth=2;labelBackgroundColor=none;rounded=1;arcSize=14;" vertex="1" parent="1">
          <mxGeometry x="1420" y="340" width="154.5" height="80" as="geometry" />
        </mxCell>
        <mxCell id="SOYOnsbibyUnbH4vUrt--19" value="" style="edgeStyle=orthogonalEdgeStyle;rounded=1;orthogonalLoop=1;jettySize=auto;html=1;fontFamily=Georgia;fontSize=14;fontColor=#000000;labelBackgroundColor=default;" edge="1" parent="1" source="SOYOnsbibyUnbH4vUrt--16" target="SOYOnsbibyUnbH4vUrt--18">
          <mxGeometry relative="1" as="geometry" />
        </mxCell>
        <mxCell id="SOYOnsbibyUnbH4vUrt--16" value="temp = arr[i]" style="whiteSpace=wrap;html=1;fontSize=14;fontFamily=Georgia;fillColor=#09555B;strokeColor=#BAC8D3;fontColor=#EEEEEE;strokeWidth=2;labelBackgroundColor=none;rounded=1;arcSize=14;" vertex="1" parent="1">
          <mxGeometry x="960" y="470" width="120" height="60" as="geometry" />
        </mxCell>
        <mxCell id="SOYOnsbibyUnbH4vUrt--21" value="" style="edgeStyle=orthogonalEdgeStyle;rounded=1;orthogonalLoop=1;jettySize=auto;html=1;fontFamily=Georgia;fontSize=14;fontColor=#000000;labelBackgroundColor=default;" edge="1" parent="1" source="SOYOnsbibyUnbH4vUrt--18" target="SOYOnsbibyUnbH4vUrt--20">
          <mxGeometry relative="1" as="geometry" />
        </mxCell>
        <mxCell id="SOYOnsbibyUnbH4vUrt--18" value="arr[i]= arr[j]" style="whiteSpace=wrap;html=1;fontSize=14;fontFamily=Georgia;fillColor=#09555B;strokeColor=#BAC8D3;fontColor=#EEEEEE;strokeWidth=2;labelBackgroundColor=none;rounded=1;arcSize=14;" vertex="1" parent="1">
          <mxGeometry x="960" y="580" width="120" height="60" as="geometry" />
        </mxCell>
        <mxCell id="SOYOnsbibyUnbH4vUrt--22" style="edgeStyle=orthogonalEdgeStyle;rounded=1;orthogonalLoop=1;jettySize=auto;html=1;fontFamily=Georgia;fontSize=14;fontColor=#000000;labelBackgroundColor=default;" edge="1" parent="1" source="SOYOnsbibyUnbH4vUrt--20" target="SOYOnsbibyUnbH4vUrt--11">
          <mxGeometry relative="1" as="geometry" />
        </mxCell>
        <mxCell id="SOYOnsbibyUnbH4vUrt--20" value="arr[j]= temp" style="whiteSpace=wrap;html=1;fontSize=14;fontFamily=Georgia;fillColor=#09555B;strokeColor=#BAC8D3;fontColor=#EEEEEE;strokeWidth=2;labelBackgroundColor=none;rounded=1;arcSize=14;" vertex="1" parent="1">
          <mxGeometry x="960" y="690" width="120" height="60" as="geometry" />
        </mxCell>
        <mxCell id="SOYOnsbibyUnbH4vUrt--26" style="edgeStyle=orthogonalEdgeStyle;rounded=1;orthogonalLoop=1;jettySize=auto;html=1;fontFamily=Georgia;fontSize=14;fontColor=#000000;labelBackgroundColor=default;" edge="1" parent="1" source="SOYOnsbibyUnbH4vUrt--24" target="SOYOnsbibyUnbH4vUrt--4">
          <mxGeometry relative="1" as="geometry" />
        </mxCell>
        <mxCell id="SOYOnsbibyUnbH4vUrt--24" value="j++" style="whiteSpace=wrap;html=1;fontSize=14;fontFamily=Georgia;fillColor=#09555B;strokeColor=#BAC8D3;fontColor=#EEEEEE;strokeWidth=2;labelBackgroundColor=none;rounded=1;arcSize=14;" vertex="1" parent="1">
          <mxGeometry x="1206.81" y="220" width="80.87" height="60" as="geometry" />
        </mxCell>
        <mxCell id="SOYOnsbibyUnbH4vUrt--35" style="edgeStyle=orthogonalEdgeStyle;rounded=1;orthogonalLoop=1;jettySize=auto;html=1;fontFamily=Georgia;fontSize=14;fontColor=#000000;labelBackgroundColor=default;" edge="1" parent="1" source="SOYOnsbibyUnbH4vUrt--29" target="SOYOnsbibyUnbH4vUrt--2">
          <mxGeometry relative="1" as="geometry">
            <Array as="points">
              <mxPoint x="1497" y="190" />
              <mxPoint x="833" y="190" />
            </Array>
          </mxGeometry>
        </mxCell>
        <mxCell id="SOYOnsbibyUnbH4vUrt--29" value="i++" style="whiteSpace=wrap;html=1;fontSize=14;fontFamily=Georgia;fillColor=#09555B;strokeColor=#BAC8D3;fontColor=#EEEEEE;strokeWidth=2;labelBackgroundColor=none;rounded=1;arcSize=14;" vertex="1" parent="1">
          <mxGeometry x="1456.82" y="220" width="80.87" height="60" as="geometry" />
        </mxCell>
        <mxCell id="SOYOnsbibyUnbH4vUrt--33" value="False" style="strokeWidth=2;html=1;shape=mxgraph.flowchart.start_1;whiteSpace=wrap;labelBackgroundColor=none;fillColor=#09555B;strokeColor=#BAC8D3;fontColor=#EEEEEE;rounded=1;flipH=1;flipV=1;fontSize=14;fontFamily=Georgia;" vertex="1" parent="1">
          <mxGeometry x="1650" y="350" width="100" height="60" as="geometry" />
        </mxCell>
      </root>
    </mxGraphModel>
  </diagram>
  <diagram id="n-qIR8b50uvNgEQYyQVW" name="Use case ">
    <mxGraphModel grid="1" page="0" gridSize="10" guides="1" tooltips="1" connect="1" arrows="1" fold="1" pageScale="1" pageWidth="850" pageHeight="1100" math="0" shadow="0">
      <root>
        <mxCell id="0" />
        <mxCell id="1" parent="0" />
        <mxCell id="L8ILbSLKBag0khGeJzHO-6" style="rounded=1;orthogonalLoop=1;jettySize=auto;html=1;exitX=1;exitY=0.3333333333333333;exitDx=0;exitDy=0;exitPerimeter=0;fontFamily=Georgia;fontSize=14;fontColor=default;entryX=1;entryY=0.5;entryDx=0;entryDy=0;entryPerimeter=0;" edge="1" parent="1" source="B9rBxwlxyofgCmQCJ1i9-1" target="L8ILbSLKBag0khGeJzHO-1">
          <mxGeometry relative="1" as="geometry" />
        </mxCell>
        <mxCell id="L8ILbSLKBag0khGeJzHO-7" style="rounded=1;orthogonalLoop=1;jettySize=auto;html=1;exitX=1;exitY=0.3333333333333333;exitDx=0;exitDy=0;exitPerimeter=0;fontFamily=Georgia;fontSize=14;fontColor=default;" edge="1" parent="1" source="B9rBxwlxyofgCmQCJ1i9-1" target="L8ILbSLKBag0khGeJzHO-2">
          <mxGeometry relative="1" as="geometry" />
        </mxCell>
        <mxCell id="L8ILbSLKBag0khGeJzHO-8" style="rounded=1;orthogonalLoop=1;jettySize=auto;html=1;exitX=1;exitY=0.3333333333333333;exitDx=0;exitDy=0;exitPerimeter=0;fontFamily=Georgia;fontSize=14;fontColor=default;entryX=1;entryY=0.5;entryDx=0;entryDy=0;entryPerimeter=0;" edge="1" parent="1" source="B9rBxwlxyofgCmQCJ1i9-1" target="L8ILbSLKBag0khGeJzHO-3">
          <mxGeometry relative="1" as="geometry" />
        </mxCell>
        <mxCell id="L8ILbSLKBag0khGeJzHO-9" style="rounded=1;orthogonalLoop=1;jettySize=auto;html=1;exitX=1;exitY=0.3333333333333333;exitDx=0;exitDy=0;exitPerimeter=0;fontFamily=Georgia;fontSize=14;fontColor=default;entryX=1;entryY=0.5;entryDx=0;entryDy=0;entryPerimeter=0;" edge="1" parent="1" source="B9rBxwlxyofgCmQCJ1i9-1" target="L8ILbSLKBag0khGeJzHO-4">
          <mxGeometry relative="1" as="geometry" />
        </mxCell>
        <mxCell id="B9rBxwlxyofgCmQCJ1i9-1" value="Staff" style="shape=umlActor;verticalLabelPosition=bottom;verticalAlign=top;html=1;outlineConnect=0;rounded=1;fontFamily=Georgia;fontSize=14;" vertex="1" parent="1">
          <mxGeometry x="270" y="240" width="30" height="60" as="geometry" />
        </mxCell>
        <mxCell id="Ipx6lpc8xxmJ-qCTmUCw-2" value="Animal Manager" style="swimlane;whiteSpace=wrap;html=1;rounded=1;strokeColor=default;align=center;verticalAlign=top;fontFamily=Georgia;fontSize=14;fontColor=default;fillColor=default;startSize=23;" vertex="1" parent="1">
          <mxGeometry x="410" y="50" width="200" height="500" as="geometry" />
        </mxCell>
        <mxCell id="L8ILbSLKBag0khGeJzHO-1" value="Create an animal" style="strokeWidth=2;html=1;shape=mxgraph.flowchart.start_1;whiteSpace=wrap;labelBackgroundColor=none;fillColor=#09555B;strokeColor=#BAC8D3;fontColor=#EEEEEE;rounded=1;flipH=1;flipV=1;fontSize=14;fontFamily=Georgia;" vertex="1" parent="Ipx6lpc8xxmJ-qCTmUCw-2">
          <mxGeometry x="50" y="50" width="100" height="60" as="geometry" />
        </mxCell>
        <mxCell id="L8ILbSLKBag0khGeJzHO-4" value="Search for an animal" style="strokeWidth=2;html=1;shape=mxgraph.flowchart.start_1;whiteSpace=wrap;labelBackgroundColor=none;fillColor=#09555B;strokeColor=#BAC8D3;fontColor=#EEEEEE;rounded=1;flipH=1;flipV=1;fontSize=14;fontFamily=Georgia;" vertex="1" parent="Ipx6lpc8xxmJ-qCTmUCw-2">
          <mxGeometry x="50" y="380" width="100" height="60" as="geometry" />
        </mxCell>
        <mxCell id="L8ILbSLKBag0khGeJzHO-3" value="Delete an animal" style="strokeWidth=2;html=1;shape=mxgraph.flowchart.start_1;whiteSpace=wrap;labelBackgroundColor=none;fillColor=#09555B;strokeColor=#BAC8D3;fontColor=#EEEEEE;rounded=1;flipH=1;flipV=1;fontSize=14;fontFamily=Georgia;" vertex="1" parent="Ipx6lpc8xxmJ-qCTmUCw-2">
          <mxGeometry x="50" y="270" width="100" height="60" as="geometry" />
        </mxCell>
        <mxCell id="L8ILbSLKBag0khGeJzHO-2" value="Update an animal" style="strokeWidth=2;html=1;shape=mxgraph.flowchart.start_1;whiteSpace=wrap;labelBackgroundColor=none;fillColor=#09555B;strokeColor=#BAC8D3;fontColor=#EEEEEE;rounded=1;flipH=1;flipV=1;fontSize=14;fontFamily=Georgia;" vertex="1" parent="Ipx6lpc8xxmJ-qCTmUCw-2">
          <mxGeometry x="50" y="160" width="100" height="60" as="geometry" />
        </mxCell>
      </root>
    </mxGraphModel>
  </diagram>
  <diagram id="4wlOz11ZKkSEs6MU41lf" name="Menu">
    <mxGraphModel grid="1" page="0" gridSize="10" guides="1" tooltips="1" connect="1" arrows="1" fold="1" pageScale="1" pageWidth="850" pageHeight="1100" math="0" shadow="0">
      <root>
        <mxCell id="0" />
        <mxCell id="1" parent="0" />
        <mxCell id="vZKxffjExaKCmCkYAqv--20" value="" style="edgeStyle=orthogonalEdgeStyle;orthogonalLoop=1;jettySize=auto;html=1;fontSize=14;fontFamily=Georgia;rounded=1;" edge="1" parent="1" source="vZKxffjExaKCmCkYAqv--15" target="vZKxffjExaKCmCkYAqv--16">
          <mxGeometry relative="1" as="geometry" />
        </mxCell>
        <mxCell id="vZKxffjExaKCmCkYAqv--63" value="False" style="edgeLabel;html=1;align=center;verticalAlign=middle;resizable=0;points=[];fontSize=14;fontFamily=Georgia;rounded=1;" connectable="0" vertex="1" parent="vZKxffjExaKCmCkYAqv--20">
          <mxGeometry x="-0.0727" y="-1" relative="1" as="geometry">
            <mxPoint as="offset" />
          </mxGeometry>
        </mxCell>
        <mxCell id="vZKxffjExaKCmCkYAqv--32" value="" style="edgeStyle=orthogonalEdgeStyle;orthogonalLoop=1;jettySize=auto;html=1;fontSize=14;fontFamily=Georgia;rounded=1;" edge="1" parent="1" source="vZKxffjExaKCmCkYAqv--15" target="vZKxffjExaKCmCkYAqv--31">
          <mxGeometry relative="1" as="geometry" />
        </mxCell>
        <mxCell id="vZKxffjExaKCmCkYAqv--57" value="True" style="edgeLabel;html=1;align=center;verticalAlign=middle;resizable=0;points=[];fontSize=14;fontFamily=Georgia;rounded=1;" connectable="0" vertex="1" parent="vZKxffjExaKCmCkYAqv--32">
          <mxGeometry x="-0.2273" y="-1" relative="1" as="geometry">
            <mxPoint as="offset" />
          </mxGeometry>
        </mxCell>
        <mxCell id="vZKxffjExaKCmCkYAqv--15" value="If Choice == 3" style="strokeWidth=2;html=1;shape=mxgraph.flowchart.decision;whiteSpace=wrap;labelBackgroundColor=none;fillColor=#09555B;strokeColor=#BAC8D3;fontColor=#EEEEEE;rounded=1;flipH=1;flipV=1;fontSize=14;fontFamily=Georgia;" vertex="1" parent="1">
          <mxGeometry x="597.5" y="530" width="117.5" height="100" as="geometry" />
        </mxCell>
        <mxCell id="vZKxffjExaKCmCkYAqv--10" value="" style="edgeStyle=orthogonalEdgeStyle;orthogonalLoop=1;jettySize=auto;html=1;fontSize=14;fontFamily=Georgia;rounded=1;" edge="1" parent="1" source="vZKxffjExaKCmCkYAqv--1" target="vZKxffjExaKCmCkYAqv--2">
          <mxGeometry relative="1" as="geometry" />
        </mxCell>
        <mxCell id="vZKxffjExaKCmCkYAqv--1" value="Start" style="strokeWidth=2;html=1;shape=mxgraph.flowchart.start_1;whiteSpace=wrap;labelBackgroundColor=none;fillColor=#09555B;strokeColor=#BAC8D3;fontColor=#EEEEEE;rounded=1;flipH=1;flipV=1;fontSize=14;fontFamily=Georgia;" vertex="1" parent="1">
          <mxGeometry x="220" y="150" width="100" height="60" as="geometry" />
        </mxCell>
        <mxCell id="vZKxffjExaKCmCkYAqv--11" value="" style="edgeStyle=orthogonalEdgeStyle;orthogonalLoop=1;jettySize=auto;html=1;fontSize=14;fontFamily=Georgia;rounded=1;" edge="1" parent="1" source="vZKxffjExaKCmCkYAqv--2" target="vZKxffjExaKCmCkYAqv--3">
          <mxGeometry relative="1" as="geometry" />
        </mxCell>
        <mxCell id="vZKxffjExaKCmCkYAqv--2" value="Display options" style="rounded=1;whiteSpace=wrap;html=1;absoluteArcSize=1;arcSize=14;strokeWidth=2;labelBackgroundColor=none;fillColor=#09555B;strokeColor=#BAC8D3;fontColor=#EEEEEE;flipH=1;flipV=1;fontSize=14;fontFamily=Georgia;" vertex="1" parent="1">
          <mxGeometry x="380" y="150" width="150" height="60" as="geometry" />
        </mxCell>
        <mxCell id="vZKxffjExaKCmCkYAqv--12" value="" style="edgeStyle=orthogonalEdgeStyle;orthogonalLoop=1;jettySize=auto;html=1;fontSize=14;fontFamily=Georgia;rounded=1;" edge="1" parent="1" source="vZKxffjExaKCmCkYAqv--3" target="vZKxffjExaKCmCkYAqv--4">
          <mxGeometry relative="1" as="geometry" />
        </mxCell>
        <mxCell id="vZKxffjExaKCmCkYAqv--3" value="Input a choice" style="shape=parallelogram;html=1;strokeWidth=2;perimeter=parallelogramPerimeter;whiteSpace=wrap;rounded=1;arcSize=12;size=0.23;labelBackgroundColor=none;fillColor=#09555B;strokeColor=#BAC8D3;fontColor=#EEEEEE;flipH=1;flipV=1;fontSize=14;fontFamily=Georgia;" vertex="1" parent="1">
          <mxGeometry x="591.25" y="150" width="130" height="60" as="geometry" />
        </mxCell>
        <mxCell id="vZKxffjExaKCmCkYAqv--18" value="" style="edgeStyle=orthogonalEdgeStyle;orthogonalLoop=1;jettySize=auto;html=1;fontSize=14;fontFamily=Georgia;rounded=1;" edge="1" parent="1" source="vZKxffjExaKCmCkYAqv--4" target="vZKxffjExaKCmCkYAqv--13">
          <mxGeometry relative="1" as="geometry" />
        </mxCell>
        <mxCell id="vZKxffjExaKCmCkYAqv--50" value="False" style="edgeLabel;html=1;align=center;verticalAlign=middle;resizable=0;points=[];fontSize=14;fontFamily=Georgia;rounded=1;" connectable="0" vertex="1" parent="vZKxffjExaKCmCkYAqv--18">
          <mxGeometry x="-0.2833" y="-1" relative="1" as="geometry">
            <mxPoint as="offset" />
          </mxGeometry>
        </mxCell>
        <mxCell id="vZKxffjExaKCmCkYAqv--24" value="" style="edgeStyle=orthogonalEdgeStyle;orthogonalLoop=1;jettySize=auto;html=1;fontSize=14;fontFamily=Georgia;rounded=1;" edge="1" parent="1" source="vZKxffjExaKCmCkYAqv--4" target="vZKxffjExaKCmCkYAqv--23">
          <mxGeometry relative="1" as="geometry" />
        </mxCell>
        <mxCell id="vZKxffjExaKCmCkYAqv--49" value="True" style="edgeLabel;html=1;align=center;verticalAlign=middle;resizable=0;points=[];fontSize=14;fontFamily=Georgia;rounded=1;" connectable="0" vertex="1" parent="vZKxffjExaKCmCkYAqv--24">
          <mxGeometry x="-0.318" y="-1" relative="1" as="geometry">
            <mxPoint as="offset" />
          </mxGeometry>
        </mxCell>
        <mxCell id="vZKxffjExaKCmCkYAqv--4" value="If Choice == 1" style="strokeWidth=2;html=1;shape=mxgraph.flowchart.decision;whiteSpace=wrap;labelBackgroundColor=none;fillColor=#09555B;strokeColor=#BAC8D3;fontColor=#EEEEEE;rounded=1;flipH=1;flipV=1;fontSize=14;fontFamily=Georgia;" vertex="1" parent="1">
          <mxGeometry x="598.75" y="250" width="115" height="100" as="geometry" />
        </mxCell>
        <mxCell id="vZKxffjExaKCmCkYAqv--19" value="" style="edgeStyle=orthogonalEdgeStyle;orthogonalLoop=1;jettySize=auto;html=1;fontSize=14;fontFamily=Georgia;rounded=1;" edge="1" parent="1" source="vZKxffjExaKCmCkYAqv--13" target="vZKxffjExaKCmCkYAqv--15">
          <mxGeometry relative="1" as="geometry" />
        </mxCell>
        <mxCell id="vZKxffjExaKCmCkYAqv--62" value="False" style="edgeLabel;html=1;align=center;verticalAlign=middle;resizable=0;points=[];fontSize=14;fontFamily=Georgia;rounded=1;" connectable="0" vertex="1" parent="vZKxffjExaKCmCkYAqv--19">
          <mxGeometry x="-0.1203" relative="1" as="geometry">
            <mxPoint as="offset" />
          </mxGeometry>
        </mxCell>
        <mxCell id="vZKxffjExaKCmCkYAqv--26" value="" style="edgeStyle=orthogonalEdgeStyle;orthogonalLoop=1;jettySize=auto;html=1;fontSize=14;fontFamily=Georgia;rounded=1;" edge="1" parent="1" source="vZKxffjExaKCmCkYAqv--13" target="vZKxffjExaKCmCkYAqv--25">
          <mxGeometry relative="1" as="geometry" />
        </mxCell>
        <mxCell id="Rw3wf9qQrWFlPe-PEs53-1" style="edgeStyle=orthogonalEdgeStyle;rounded=1;orthogonalLoop=1;jettySize=auto;html=1;fontFamily=Georgia;fontSize=14;" edge="1" parent="1" source="vZKxffjExaKCmCkYAqv--13" target="vZKxffjExaKCmCkYAqv--25">
          <mxGeometry relative="1" as="geometry" />
        </mxCell>
        <mxCell id="Rw3wf9qQrWFlPe-PEs53-2" value="True" style="edgeLabel;html=1;align=center;verticalAlign=middle;resizable=0;points=[];rounded=1;fontSize=14;fontFamily=Georgia;" connectable="0" vertex="1" parent="Rw3wf9qQrWFlPe-PEs53-1">
          <mxGeometry x="-0.3273" relative="1" as="geometry">
            <mxPoint as="offset" />
          </mxGeometry>
        </mxCell>
        <mxCell id="vZKxffjExaKCmCkYAqv--13" value="If Choice == 2" style="strokeWidth=2;html=1;shape=mxgraph.flowchart.decision;whiteSpace=wrap;labelBackgroundColor=none;fillColor=#09555B;strokeColor=#BAC8D3;fontColor=#EEEEEE;rounded=1;flipH=1;flipV=1;fontSize=14;fontFamily=Georgia;" vertex="1" parent="1">
          <mxGeometry x="598.75" y="390" width="115" height="100" as="geometry" />
        </mxCell>
        <mxCell id="vZKxffjExaKCmCkYAqv--21" value="" style="edgeStyle=orthogonalEdgeStyle;orthogonalLoop=1;jettySize=auto;html=1;fontSize=14;fontFamily=Georgia;rounded=1;" edge="1" parent="1" source="vZKxffjExaKCmCkYAqv--16" target="vZKxffjExaKCmCkYAqv--17">
          <mxGeometry relative="1" as="geometry" />
        </mxCell>
        <mxCell id="vZKxffjExaKCmCkYAqv--64" value="False" style="edgeLabel;html=1;align=center;verticalAlign=middle;resizable=0;points=[];fontSize=14;fontFamily=Georgia;rounded=1;" connectable="0" vertex="1" parent="vZKxffjExaKCmCkYAqv--21">
          <mxGeometry x="-0.1997" y="-1" relative="1" as="geometry">
            <mxPoint as="offset" />
          </mxGeometry>
        </mxCell>
        <mxCell id="vZKxffjExaKCmCkYAqv--34" value="" style="edgeStyle=orthogonalEdgeStyle;orthogonalLoop=1;jettySize=auto;html=1;fontSize=14;fontFamily=Georgia;rounded=1;" edge="1" parent="1" source="vZKxffjExaKCmCkYAqv--16" target="vZKxffjExaKCmCkYAqv--33">
          <mxGeometry relative="1" as="geometry" />
        </mxCell>
        <mxCell id="vZKxffjExaKCmCkYAqv--58" value="True" style="edgeLabel;html=1;align=center;verticalAlign=middle;resizable=0;points=[];fontSize=14;fontFamily=Georgia;rounded=1;" connectable="0" vertex="1" parent="vZKxffjExaKCmCkYAqv--34">
          <mxGeometry x="-0.3852" y="1" relative="1" as="geometry">
            <mxPoint as="offset" />
          </mxGeometry>
        </mxCell>
        <mxCell id="vZKxffjExaKCmCkYAqv--16" value="If Choice == 4" style="strokeWidth=2;html=1;shape=mxgraph.flowchart.decision;whiteSpace=wrap;labelBackgroundColor=none;fillColor=#09555B;strokeColor=#BAC8D3;fontColor=#EEEEEE;rounded=1;flipH=1;flipV=1;fontSize=14;fontFamily=Georgia;" vertex="1" parent="1">
          <mxGeometry x="598.75" y="670" width="115" height="100" as="geometry" />
        </mxCell>
        <mxCell id="vZKxffjExaKCmCkYAqv--36" value="" style="edgeStyle=orthogonalEdgeStyle;orthogonalLoop=1;jettySize=auto;html=1;fontSize=14;fontFamily=Georgia;rounded=1;" edge="1" parent="1" source="vZKxffjExaKCmCkYAqv--17" target="vZKxffjExaKCmCkYAqv--35">
          <mxGeometry relative="1" as="geometry" />
        </mxCell>
        <mxCell id="vZKxffjExaKCmCkYAqv--59" value="True" style="edgeLabel;html=1;align=center;verticalAlign=middle;resizable=0;points=[];fontSize=14;fontFamily=Georgia;rounded=1;" connectable="0" vertex="1" parent="vZKxffjExaKCmCkYAqv--36">
          <mxGeometry x="-0.2753" y="3" relative="1" as="geometry">
            <mxPoint as="offset" />
          </mxGeometry>
        </mxCell>
        <mxCell id="vZKxffjExaKCmCkYAqv--60" style="edgeStyle=orthogonalEdgeStyle;orthogonalLoop=1;jettySize=auto;html=1;fontSize=14;fontFamily=Georgia;rounded=1;" edge="1" parent="1" source="vZKxffjExaKCmCkYAqv--17" target="vZKxffjExaKCmCkYAqv--2">
          <mxGeometry relative="1" as="geometry">
            <Array as="points">
              <mxPoint x="490" y="860" />
            </Array>
          </mxGeometry>
        </mxCell>
        <mxCell id="vZKxffjExaKCmCkYAqv--61" value="False" style="edgeLabel;html=1;align=center;verticalAlign=middle;resizable=0;points=[];fontSize=14;fontFamily=Georgia;rounded=1;" connectable="0" vertex="1" parent="vZKxffjExaKCmCkYAqv--60">
          <mxGeometry x="-0.9075" y="-2" relative="1" as="geometry">
            <mxPoint as="offset" />
          </mxGeometry>
        </mxCell>
        <mxCell id="vZKxffjExaKCmCkYAqv--17" value="If Choice == 0" style="strokeWidth=2;html=1;shape=mxgraph.flowchart.decision;whiteSpace=wrap;labelBackgroundColor=none;fillColor=#09555B;strokeColor=#BAC8D3;fontColor=#EEEEEE;rounded=1;flipH=1;flipV=1;fontSize=14;fontFamily=Georgia;" vertex="1" parent="1">
          <mxGeometry x="598.75" y="810" width="115" height="100" as="geometry" />
        </mxCell>
        <mxCell id="vZKxffjExaKCmCkYAqv--39" style="edgeStyle=orthogonalEdgeStyle;orthogonalLoop=1;jettySize=auto;html=1;fontSize=14;fontFamily=Georgia;rounded=1;" edge="1" parent="1" source="vZKxffjExaKCmCkYAqv--23" target="vZKxffjExaKCmCkYAqv--2">
          <mxGeometry relative="1" as="geometry">
            <mxPoint x="380" y="940" as="targetPoint" />
            <Array as="points">
              <mxPoint x="970" y="300" />
              <mxPoint x="970" y="1010" />
              <mxPoint x="455" y="1010" />
            </Array>
          </mxGeometry>
        </mxCell>
        <mxCell id="vZKxffjExaKCmCkYAqv--23" value="CreateAnimal();&lt;div style=&quot;font-size: 14px;&quot;&gt;break;&lt;/div&gt;" style="whiteSpace=wrap;html=1;fillColor=#09555B;strokeColor=#BAC8D3;fontColor=#EEEEEE;strokeWidth=2;labelBackgroundColor=none;rounded=1;fontSize=14;fontFamily=Georgia;" vertex="1" parent="1">
          <mxGeometry x="775" y="270" width="120" height="60" as="geometry" />
        </mxCell>
        <mxCell id="vZKxffjExaKCmCkYAqv--44" style="edgeStyle=orthogonalEdgeStyle;orthogonalLoop=1;jettySize=auto;html=1;fontSize=14;fontFamily=Georgia;rounded=1;" edge="1" parent="1" source="vZKxffjExaKCmCkYAqv--25">
          <mxGeometry relative="1" as="geometry">
            <mxPoint x="970" y="440" as="targetPoint" />
          </mxGeometry>
        </mxCell>
        <mxCell id="vZKxffjExaKCmCkYAqv--25" value="UpdateAnimal()&lt;div style=&quot;font-size: 14px;&quot;&gt;break;&lt;/div&gt;" style="whiteSpace=wrap;html=1;fillColor=#09555B;strokeColor=#BAC8D3;fontColor=#EEEEEE;strokeWidth=2;labelBackgroundColor=none;rounded=1;fontSize=14;fontFamily=Georgia;" vertex="1" parent="1">
          <mxGeometry x="775" y="410" width="120" height="60" as="geometry" />
        </mxCell>
        <mxCell id="vZKxffjExaKCmCkYAqv--46" style="edgeStyle=orthogonalEdgeStyle;orthogonalLoop=1;jettySize=auto;html=1;fontSize=14;fontFamily=Georgia;rounded=1;" edge="1" parent="1" source="vZKxffjExaKCmCkYAqv--31">
          <mxGeometry relative="1" as="geometry">
            <mxPoint x="970" y="580" as="targetPoint" />
          </mxGeometry>
        </mxCell>
        <mxCell id="vZKxffjExaKCmCkYAqv--31" value="Search();&lt;div style=&quot;font-size: 14px;&quot;&gt;break;&lt;/div&gt;" style="whiteSpace=wrap;html=1;fillColor=#09555B;strokeColor=#BAC8D3;fontColor=#EEEEEE;strokeWidth=2;labelBackgroundColor=none;rounded=1;fontSize=14;fontFamily=Georgia;" vertex="1" parent="1">
          <mxGeometry x="775" y="550" width="120" height="60" as="geometry" />
        </mxCell>
        <mxCell id="vZKxffjExaKCmCkYAqv--48" style="edgeStyle=orthogonalEdgeStyle;orthogonalLoop=1;jettySize=auto;html=1;fontSize=14;fontFamily=Georgia;rounded=1;" edge="1" parent="1" source="vZKxffjExaKCmCkYAqv--33">
          <mxGeometry relative="1" as="geometry">
            <mxPoint x="970" y="720" as="targetPoint" />
          </mxGeometry>
        </mxCell>
        <mxCell id="vZKxffjExaKCmCkYAqv--33" value="DeleteAnimal()" style="whiteSpace=wrap;html=1;fillColor=#09555B;strokeColor=#BAC8D3;fontColor=#EEEEEE;strokeWidth=2;labelBackgroundColor=none;rounded=1;fontSize=14;fontFamily=Georgia;" vertex="1" parent="1">
          <mxGeometry x="775" y="690" width="120" height="60" as="geometry" />
        </mxCell>
        <mxCell id="vZKxffjExaKCmCkYAqv--43" value="" style="edgeStyle=orthogonalEdgeStyle;orthogonalLoop=1;jettySize=auto;html=1;fontSize=14;fontFamily=Georgia;rounded=1;" edge="1" parent="1" source="vZKxffjExaKCmCkYAqv--35" target="vZKxffjExaKCmCkYAqv--42">
          <mxGeometry relative="1" as="geometry" />
        </mxCell>
        <mxCell id="vZKxffjExaKCmCkYAqv--35" value="&lt;div style=&quot;font-size: 14px;&quot;&gt;Print a message&lt;/div&gt;&lt;div style=&quot;font-size: 14px;&quot;&gt;and e&lt;span style=&quot;background-color: initial; font-size: 14px;&quot;&gt;xit the program&lt;/span&gt;&lt;/div&gt;" style="whiteSpace=wrap;html=1;fillColor=#09555B;strokeColor=#BAC8D3;fontColor=#EEEEEE;strokeWidth=2;labelBackgroundColor=none;rounded=1;fontSize=14;fontFamily=Georgia;" vertex="1" parent="1">
          <mxGeometry x="772.5" y="830" width="125" height="60" as="geometry" />
        </mxCell>
        <mxCell id="vZKxffjExaKCmCkYAqv--42" value="End" style="ellipse;whiteSpace=wrap;html=1;fillColor=#09555B;strokeColor=#BAC8D3;fontColor=#EEEEEE;strokeWidth=2;labelBackgroundColor=none;rounded=1;fontSize=14;fontFamily=Georgia;" vertex="1" parent="1">
          <mxGeometry x="795" y="920" width="80" height="50" as="geometry" />
        </mxCell>
        <mxCell id="0OG_1x97P_c0T5wDAdiR-1" value="Display options" style="rounded=1;whiteSpace=wrap;html=1;absoluteArcSize=1;arcSize=14;strokeWidth=2;labelBackgroundColor=none;fillColor=#09555B;strokeColor=#BAC8D3;fontColor=#EEEEEE;flipH=1;flipV=1;fontSize=14;fontFamily=Georgia;" vertex="1" parent="1">
          <mxGeometry x="25" y="20" width="150" height="60" as="geometry" />
        </mxCell>
        <mxCell id="0OG_1x97P_c0T5wDAdiR-2" value="Start" style="strokeWidth=2;html=1;shape=mxgraph.flowchart.start_1;whiteSpace=wrap;labelBackgroundColor=none;fillColor=#09555B;strokeColor=#BAC8D3;fontColor=#EEEEEE;rounded=1;flipH=1;flipV=1;fontSize=14;fontFamily=Georgia;" vertex="1" parent="1">
          <mxGeometry x="-130" y="30" width="100" height="60" as="geometry" />
        </mxCell>
        <mxCell id="0OG_1x97P_c0T5wDAdiR-3" value="Input a choice" style="shape=parallelogram;html=1;strokeWidth=2;perimeter=parallelogramPerimeter;whiteSpace=wrap;rounded=1;arcSize=12;size=0.23;labelBackgroundColor=none;fillColor=#09555B;strokeColor=#BAC8D3;fontColor=#EEEEEE;flipH=1;flipV=1;fontSize=14;fontFamily=Georgia;" vertex="1" parent="1">
          <mxGeometry x="230" y="-10" width="130" height="60" as="geometry" />
        </mxCell>
        <mxCell id="0OG_1x97P_c0T5wDAdiR-4" value="If Choice == 1" style="strokeWidth=2;html=1;shape=mxgraph.flowchart.decision;whiteSpace=wrap;labelBackgroundColor=none;fillColor=#09555B;strokeColor=#BAC8D3;fontColor=#EEEEEE;rounded=1;flipH=1;flipV=1;fontSize=14;fontFamily=Georgia;" vertex="1" parent="1">
          <mxGeometry x="470" y="-40" width="115" height="100" as="geometry" />
        </mxCell>
      </root>
    </mxGraphModel>
  </diagram>
  <diagram id="PH4He7bQcjE7P8athhc6" name="Create animal">
    <mxGraphModel grid="1" page="0" gridSize="10" guides="1" tooltips="1" connect="1" arrows="1" fold="1" pageScale="1" pageWidth="850" pageHeight="1100" math="0" shadow="0">
      <root>
        <mxCell id="0" />
        <mxCell id="1" parent="0" />
        <mxCell id="0ismhTDJIqz_OO4QxLCH-65" value="" style="edgeStyle=orthogonalEdgeStyle;rounded=1;orthogonalLoop=1;jettySize=auto;html=1;fontFamily=Georgia;fontSize=14;" edge="1" parent="1" source="0ismhTDJIqz_OO4QxLCH-7" target="0ismhTDJIqz_OO4QxLCH-63">
          <mxGeometry relative="1" as="geometry" />
        </mxCell>
        <mxCell id="0ismhTDJIqz_OO4QxLCH-7" value="Start" style="strokeWidth=2;html=1;shape=mxgraph.flowchart.start_1;whiteSpace=wrap;labelBackgroundColor=none;fillColor=#09555B;strokeColor=#BAC8D3;fontColor=#EEEEEE;rounded=1;flipH=1;flipV=1;shadow=0;backgroundOutline=0;direction=east;fontFamily=Georgia;fontSize=14;" vertex="1" parent="1">
          <mxGeometry x="300" y="130" width="100" height="60" as="geometry" />
        </mxCell>
        <mxCell id="DBUL4Xk2kVBIRYyG9KzR-30" value="" style="edgeStyle=orthogonalEdgeStyle;rounded=1;orthogonalLoop=1;jettySize=auto;html=1;fontFamily=Georgia;fontSize=14;" edge="1" parent="1" source="0ismhTDJIqz_OO4QxLCH-50" target="DBUL4Xk2kVBIRYyG9KzR-29">
          <mxGeometry relative="1" as="geometry" />
        </mxCell>
        <mxCell id="0ismhTDJIqz_OO4QxLCH-50" value="Input Age" style="shape=parallelogram;perimeter=parallelogramPerimeter;whiteSpace=wrap;html=1;fixedSize=1;fillColor=#09555B;strokeColor=#BAC8D3;fontColor=#EEEEEE;strokeWidth=2;labelBackgroundColor=none;rounded=1;shadow=0;backgroundOutline=0;direction=east;flipH=1;flipV=1;fontFamily=Georgia;fontSize=14;" vertex="1" parent="1">
          <mxGeometry x="100" y="340" width="120" height="60" as="geometry" />
        </mxCell>
        <mxCell id="DBUL4Xk2kVBIRYyG9KzR-35" value="" style="edgeStyle=orthogonalEdgeStyle;rounded=1;orthogonalLoop=1;jettySize=auto;html=1;fontFamily=Georgia;fontSize=14;" edge="1" parent="1" source="0ismhTDJIqz_OO4QxLCH-54" target="DBUL4Xk2kVBIRYyG9KzR-34">
          <mxGeometry relative="1" as="geometry" />
        </mxCell>
        <mxCell id="0ismhTDJIqz_OO4QxLCH-54" value="Input Gender" style="shape=parallelogram;perimeter=parallelogramPerimeter;whiteSpace=wrap;html=1;fixedSize=1;fillColor=#09555B;strokeColor=#BAC8D3;fontColor=#EEEEEE;strokeWidth=2;labelBackgroundColor=none;rounded=1;shadow=0;backgroundOutline=0;direction=east;flipH=1;flipV=1;fontFamily=Georgia;fontSize=14;" vertex="1" parent="1">
          <mxGeometry x="290" y="340" width="120" height="60" as="geometry" />
        </mxCell>
        <mxCell id="DBUL4Xk2kVBIRYyG9KzR-40" value="" style="edgeStyle=orthogonalEdgeStyle;rounded=1;orthogonalLoop=1;jettySize=auto;html=1;fontFamily=Georgia;fontSize=14;" edge="1" parent="1" source="0ismhTDJIqz_OO4QxLCH-56" target="DBUL4Xk2kVBIRYyG9KzR-41">
          <mxGeometry relative="1" as="geometry">
            <mxPoint x="520" y="469.9999999999999" as="targetPoint" />
          </mxGeometry>
        </mxCell>
        <mxCell id="0ismhTDJIqz_OO4QxLCH-56" value="Input Species" style="shape=parallelogram;perimeter=parallelogramPerimeter;whiteSpace=wrap;html=1;fixedSize=1;fillColor=#09555B;strokeColor=#BAC8D3;fontColor=#EEEEEE;strokeWidth=2;labelBackgroundColor=none;rounded=1;shadow=0;backgroundOutline=0;direction=east;flipH=1;flipV=1;fontFamily=Georgia;fontSize=14;" vertex="1" parent="1">
          <mxGeometry x="460" y="340" width="120" height="60" as="geometry" />
        </mxCell>
        <mxCell id="CeVeSiVOGPcMJKuYXQf0-8" style="edgeStyle=orthogonalEdgeStyle;rounded=1;orthogonalLoop=1;jettySize=auto;html=1;fontFamily=Georgia;fontSize=14;strokeColor=#FF0000;" edge="1" parent="1" source="0ismhTDJIqz_OO4QxLCH-58" target="CeVeSiVOGPcMJKuYXQf0-7">
          <mxGeometry relative="1" as="geometry">
            <Array as="points">
              <mxPoint x="660" y="610" />
              <mxPoint x="350" y="610" />
            </Array>
          </mxGeometry>
        </mxCell>
        <mxCell id="0ismhTDJIqz_OO4QxLCH-58" value="Input Description&lt;div style=&quot;font-size: 14px;&quot;&gt;(Optional)&lt;/div&gt;" style="shape=parallelogram;perimeter=parallelogramPerimeter;whiteSpace=wrap;html=1;fixedSize=1;fillColor=#09555B;strokeColor=#BAC8D3;fontColor=#EEEEEE;strokeWidth=2;labelBackgroundColor=none;rounded=1;shadow=0;backgroundOutline=0;direction=east;flipH=1;flipV=1;fontFamily=Georgia;fontSize=14;" vertex="1" parent="1">
          <mxGeometry x="600" y="340" width="150" height="60" as="geometry" />
        </mxCell>
        <mxCell id="0ismhTDJIqz_OO4QxLCH-63" value="" style="shape=line;html=1;strokeWidth=6;strokeColor=#ff0000;rounded=1;fontFamily=Georgia;fontSize=14;" vertex="1" parent="1">
          <mxGeometry x="80" y="250" width="540" height="10" as="geometry" />
        </mxCell>
        <mxCell id="DBUL4Xk2kVBIRYyG9KzR-1" value="" style="edgeStyle=orthogonalEdgeStyle;html=1;verticalAlign=bottom;endArrow=open;endSize=8;strokeColor=#ff0000;rounded=1;fontFamily=Georgia;fontSize=14;" edge="1" parent="1" source="0ismhTDJIqz_OO4QxLCH-63" target="0ismhTDJIqz_OO4QxLCH-48">
          <mxGeometry relative="1" as="geometry">
            <mxPoint y="440" as="targetPoint" />
            <Array as="points" />
            <mxPoint y="260" as="sourcePoint" />
          </mxGeometry>
        </mxCell>
        <mxCell id="DBUL4Xk2kVBIRYyG9KzR-24" value="" style="edgeStyle=orthogonalEdgeStyle;rounded=1;orthogonalLoop=1;jettySize=auto;html=1;fontFamily=Georgia;fontSize=14;" edge="1" parent="1" source="0ismhTDJIqz_OO4QxLCH-48" target="DBUL4Xk2kVBIRYyG9KzR-23">
          <mxGeometry relative="1" as="geometry" />
        </mxCell>
        <mxCell id="0ismhTDJIqz_OO4QxLCH-48" value="Input Name" style="shape=parallelogram;perimeter=parallelogramPerimeter;whiteSpace=wrap;html=1;fixedSize=1;fillColor=#09555B;strokeColor=#BAC8D3;fontColor=#EEEEEE;strokeWidth=2;labelBackgroundColor=none;rounded=1;shadow=0;backgroundOutline=0;direction=east;flipH=1;flipV=1;fontFamily=Georgia;fontSize=14;" vertex="1" parent="1">
          <mxGeometry x="-40" y="340" width="120" height="60" as="geometry" />
        </mxCell>
        <mxCell id="DBUL4Xk2kVBIRYyG9KzR-9" value="" style="edgeStyle=orthogonalEdgeStyle;html=1;verticalAlign=bottom;endArrow=open;endSize=8;strokeColor=#ff0000;rounded=1;exitX=0.502;exitY=0.434;exitDx=0;exitDy=0;exitPerimeter=0;fontFamily=Georgia;fontSize=14;" edge="1" parent="1" source="0ismhTDJIqz_OO4QxLCH-63" target="0ismhTDJIqz_OO4QxLCH-56">
          <mxGeometry relative="1" as="geometry">
            <mxPoint x="60" y="560" as="targetPoint" />
            <Array as="points" />
            <mxPoint x="350" y="480" as="sourcePoint" />
          </mxGeometry>
        </mxCell>
        <mxCell id="DBUL4Xk2kVBIRYyG9KzR-10" value="" style="edgeStyle=orthogonalEdgeStyle;html=1;verticalAlign=bottom;endArrow=open;endSize=8;strokeColor=#ff0000;rounded=1;exitX=0.501;exitY=0.772;exitDx=0;exitDy=0;exitPerimeter=0;fontFamily=Georgia;fontSize=14;" edge="1" parent="1" source="0ismhTDJIqz_OO4QxLCH-63" target="0ismhTDJIqz_OO4QxLCH-54">
          <mxGeometry relative="1" as="geometry">
            <mxPoint x="370" y="520" as="targetPoint" />
            <Array as="points" />
            <mxPoint x="660" y="440" as="sourcePoint" />
          </mxGeometry>
        </mxCell>
        <mxCell id="DBUL4Xk2kVBIRYyG9KzR-11" value="" style="edgeStyle=orthogonalEdgeStyle;html=1;verticalAlign=bottom;endArrow=open;endSize=8;strokeColor=#ff0000;rounded=1;exitX=0.5;exitY=0.752;exitDx=0;exitDy=0;exitPerimeter=0;fontFamily=Georgia;fontSize=14;" edge="1" parent="1" source="0ismhTDJIqz_OO4QxLCH-63" target="0ismhTDJIqz_OO4QxLCH-50">
          <mxGeometry relative="1" as="geometry">
            <mxPoint x="-50" y="540" as="targetPoint" />
            <Array as="points" />
            <mxPoint x="-40" y="280" as="sourcePoint" />
          </mxGeometry>
        </mxCell>
        <mxCell id="DBUL4Xk2kVBIRYyG9KzR-12" value="" style="edgeStyle=orthogonalEdgeStyle;html=1;verticalAlign=bottom;endArrow=open;endSize=8;strokeColor=#ff0000;rounded=1;exitX=0.499;exitY=0.417;exitDx=0;exitDy=0;exitPerimeter=0;fontFamily=Georgia;fontSize=14;" edge="1" parent="1" source="0ismhTDJIqz_OO4QxLCH-63" target="0ismhTDJIqz_OO4QxLCH-58">
          <mxGeometry relative="1" as="geometry">
            <mxPoint x="220" y="540" as="targetPoint" />
            <Array as="points">
              <mxPoint x="350" y="300" />
              <mxPoint x="660" y="300" />
            </Array>
            <mxPoint x="510" y="460" as="sourcePoint" />
          </mxGeometry>
        </mxCell>
        <mxCell id="DBUL4Xk2kVBIRYyG9KzR-15" style="edgeStyle=orthogonalEdgeStyle;rounded=1;orthogonalLoop=1;jettySize=auto;html=1;fontFamily=Georgia;fontSize=14;strokeColor=#FF0000;" edge="1" parent="1" source="DBUL4Xk2kVBIRYyG9KzR-23">
          <mxGeometry relative="1" as="geometry">
            <mxPoint x="70" y="559.9999999999999" as="sourcePoint" />
            <mxPoint x="350" y="650" as="targetPoint" />
            <Array as="points">
              <mxPoint x="20" y="610" />
              <mxPoint x="350" y="610" />
            </Array>
          </mxGeometry>
        </mxCell>
        <mxCell id="DBUL4Xk2kVBIRYyG9KzR-28" value="No" style="edgeLabel;html=1;align=center;verticalAlign=middle;resizable=0;points=[];rounded=1;fontFamily=Georgia;fontSize=14;" connectable="0" vertex="1" parent="DBUL4Xk2kVBIRYyG9KzR-15">
          <mxGeometry x="-0.9577" y="1" relative="1" as="geometry">
            <mxPoint as="offset" />
          </mxGeometry>
        </mxCell>
        <mxCell id="DBUL4Xk2kVBIRYyG9KzR-16" style="edgeStyle=orthogonalEdgeStyle;rounded=1;orthogonalLoop=1;jettySize=auto;html=1;fontFamily=Georgia;fontSize=14;strokeColor=#FF0000;" edge="1" parent="1" source="DBUL4Xk2kVBIRYyG9KzR-29">
          <mxGeometry relative="1" as="geometry">
            <mxPoint x="210" y="559.9999999999999" as="sourcePoint" />
            <mxPoint x="350" y="650" as="targetPoint" />
            <Array as="points">
              <mxPoint x="160" y="610" />
              <mxPoint x="350" y="610" />
            </Array>
          </mxGeometry>
        </mxCell>
        <mxCell id="DBUL4Xk2kVBIRYyG9KzR-33" value="True" style="edgeLabel;html=1;align=center;verticalAlign=middle;resizable=0;points=[];rounded=1;fontFamily=Georgia;fontSize=14;" connectable="0" vertex="1" parent="DBUL4Xk2kVBIRYyG9KzR-16">
          <mxGeometry x="-0.9367" relative="1" as="geometry">
            <mxPoint as="offset" />
          </mxGeometry>
        </mxCell>
        <mxCell id="DBUL4Xk2kVBIRYyG9KzR-17" style="edgeStyle=orthogonalEdgeStyle;rounded=1;orthogonalLoop=1;jettySize=auto;html=1;fontFamily=Georgia;fontSize=14;strokeColor=#FF0000;" edge="1" parent="1" source="DBUL4Xk2kVBIRYyG9KzR-34" target="CeVeSiVOGPcMJKuYXQf0-7">
          <mxGeometry relative="1" as="geometry">
            <mxPoint x="450" y="519.9999999999999" as="sourcePoint" />
            <mxPoint x="400" y="605" as="targetPoint" />
            <Array as="points">
              <mxPoint x="350" y="565" />
            </Array>
          </mxGeometry>
        </mxCell>
        <mxCell id="DBUL4Xk2kVBIRYyG9KzR-38" value="True" style="edgeLabel;html=1;align=center;verticalAlign=middle;resizable=0;points=[];rounded=1;fontFamily=Georgia;fontSize=14;" connectable="0" vertex="1" parent="DBUL4Xk2kVBIRYyG9KzR-17">
          <mxGeometry x="-0.9443" y="-2" relative="1" as="geometry">
            <mxPoint as="offset" />
          </mxGeometry>
        </mxCell>
        <mxCell id="DBUL4Xk2kVBIRYyG9KzR-20" style="edgeStyle=orthogonalEdgeStyle;rounded=1;orthogonalLoop=1;jettySize=auto;html=1;fontFamily=Georgia;fontSize=14;strokeColor=#FF0000;" edge="1" parent="1" source="DBUL4Xk2kVBIRYyG9KzR-41">
          <mxGeometry relative="1" as="geometry">
            <mxPoint x="570" y="554.9999999999999" as="sourcePoint" />
            <mxPoint x="350" y="650" as="targetPoint" />
            <Array as="points">
              <mxPoint x="520" y="610" />
              <mxPoint x="350" y="610" />
            </Array>
          </mxGeometry>
        </mxCell>
        <mxCell id="DBUL4Xk2kVBIRYyG9KzR-46" value="No" style="edgeLabel;html=1;align=center;verticalAlign=middle;resizable=0;points=[];rounded=1;fontFamily=Georgia;fontSize=14;" connectable="0" vertex="1" parent="DBUL4Xk2kVBIRYyG9KzR-20">
          <mxGeometry x="-0.9139" relative="1" as="geometry">
            <mxPoint as="offset" />
          </mxGeometry>
        </mxCell>
        <mxCell id="DBUL4Xk2kVBIRYyG9KzR-25" style="edgeStyle=orthogonalEdgeStyle;rounded=1;orthogonalLoop=1;jettySize=auto;html=1;fontFamily=Georgia;fontSize=14;" edge="1" parent="1" source="DBUL4Xk2kVBIRYyG9KzR-23" target="0ismhTDJIqz_OO4QxLCH-48">
          <mxGeometry relative="1" as="geometry">
            <Array as="points">
              <mxPoint x="-60" y="519.9999999999999" />
              <mxPoint x="-60" y="369.9999999999999" />
            </Array>
          </mxGeometry>
        </mxCell>
        <mxCell id="DBUL4Xk2kVBIRYyG9KzR-27" value="Yes" style="edgeLabel;html=1;align=center;verticalAlign=middle;resizable=0;points=[];rounded=1;fontFamily=Georgia;fontSize=14;" connectable="0" vertex="1" parent="DBUL4Xk2kVBIRYyG9KzR-25">
          <mxGeometry x="-0.8032" y="-3" relative="1" as="geometry">
            <mxPoint as="offset" />
          </mxGeometry>
        </mxCell>
        <mxCell id="DBUL4Xk2kVBIRYyG9KzR-23" value="Is null or empty?" style="rhombus;whiteSpace=wrap;html=1;fillColor=#09555B;strokeColor=#BAC8D3;fontColor=#EEEEEE;strokeWidth=2;labelBackgroundColor=none;rounded=1;shadow=0;fontFamily=Georgia;fontSize=14;" vertex="1" parent="1">
          <mxGeometry x="-30" y="480" width="100" height="80" as="geometry" />
        </mxCell>
        <mxCell id="DBUL4Xk2kVBIRYyG9KzR-31" style="edgeStyle=orthogonalEdgeStyle;rounded=1;orthogonalLoop=1;jettySize=auto;html=1;fontFamily=Georgia;fontSize=14;" edge="1" parent="1" source="DBUL4Xk2kVBIRYyG9KzR-29" target="0ismhTDJIqz_OO4QxLCH-50">
          <mxGeometry relative="1" as="geometry">
            <Array as="points">
              <mxPoint x="80" y="520" />
              <mxPoint x="80" y="370" />
            </Array>
          </mxGeometry>
        </mxCell>
        <mxCell id="DBUL4Xk2kVBIRYyG9KzR-32" value="False" style="edgeLabel;html=1;align=center;verticalAlign=middle;resizable=0;points=[];rounded=1;fontFamily=Georgia;fontSize=14;" connectable="0" vertex="1" parent="DBUL4Xk2kVBIRYyG9KzR-31">
          <mxGeometry x="-0.8333" relative="1" as="geometry">
            <mxPoint as="offset" />
          </mxGeometry>
        </mxCell>
        <mxCell id="DBUL4Xk2kVBIRYyG9KzR-29" value="Age &amp;gt; 0" style="rhombus;whiteSpace=wrap;html=1;fillColor=#09555B;strokeColor=#BAC8D3;fontColor=#EEEEEE;strokeWidth=2;labelBackgroundColor=none;rounded=1;shadow=0;fontFamily=Georgia;fontSize=14;" vertex="1" parent="1">
          <mxGeometry x="120" y="480" width="80" height="80" as="geometry" />
        </mxCell>
        <mxCell id="DBUL4Xk2kVBIRYyG9KzR-36" style="edgeStyle=orthogonalEdgeStyle;rounded=1;orthogonalLoop=1;jettySize=auto;html=1;fontFamily=Georgia;fontSize=14;" edge="1" parent="1" source="DBUL4Xk2kVBIRYyG9KzR-34" target="0ismhTDJIqz_OO4QxLCH-54">
          <mxGeometry relative="1" as="geometry">
            <Array as="points">
              <mxPoint x="240" y="510" />
              <mxPoint x="240" y="370" />
            </Array>
          </mxGeometry>
        </mxCell>
        <mxCell id="DBUL4Xk2kVBIRYyG9KzR-37" value="False" style="edgeLabel;html=1;align=center;verticalAlign=middle;resizable=0;points=[];rounded=1;fontFamily=Georgia;fontSize=14;" connectable="0" vertex="1" parent="DBUL4Xk2kVBIRYyG9KzR-36">
          <mxGeometry x="-0.8589" y="-2" relative="1" as="geometry">
            <mxPoint x="-17" y="-8" as="offset" />
          </mxGeometry>
        </mxCell>
        <mxCell id="DBUL4Xk2kVBIRYyG9KzR-34" value="Gender == 1&lt;div style=&quot;font-size: 14px;&quot;&gt;or Gender == 2&lt;/div&gt;&lt;div style=&quot;font-size: 14px;&quot;&gt;or Gender == 3&lt;/div&gt;" style="rhombus;whiteSpace=wrap;html=1;fillColor=#09555B;strokeColor=#BAC8D3;fontColor=#EEEEEE;strokeWidth=2;labelBackgroundColor=none;rounded=1;shadow=0;fontFamily=Georgia;fontSize=14;" vertex="1" parent="1">
          <mxGeometry x="270" y="450" width="160" height="115" as="geometry" />
        </mxCell>
        <mxCell id="DBUL4Xk2kVBIRYyG9KzR-43" style="edgeStyle=orthogonalEdgeStyle;rounded=1;orthogonalLoop=1;jettySize=auto;html=1;fontFamily=Georgia;fontSize=14;" edge="1" parent="1" source="DBUL4Xk2kVBIRYyG9KzR-41" target="0ismhTDJIqz_OO4QxLCH-56">
          <mxGeometry relative="1" as="geometry">
            <Array as="points">
              <mxPoint x="440" y="514.9999999999999" />
              <mxPoint x="440" y="369.9999999999999" />
            </Array>
          </mxGeometry>
        </mxCell>
        <mxCell id="DBUL4Xk2kVBIRYyG9KzR-44" value="Yes" style="edgeLabel;html=1;align=center;verticalAlign=middle;resizable=0;points=[];rounded=1;fontFamily=Georgia;fontSize=14;" connectable="0" vertex="1" parent="DBUL4Xk2kVBIRYyG9KzR-43">
          <mxGeometry x="-0.8497" y="-2" relative="1" as="geometry">
            <mxPoint as="offset" />
          </mxGeometry>
        </mxCell>
        <mxCell id="DBUL4Xk2kVBIRYyG9KzR-41" value="Is null or empty?" style="rhombus;whiteSpace=wrap;html=1;fillColor=#09555B;strokeColor=#BAC8D3;fontColor=#EEEEEE;strokeWidth=2;labelBackgroundColor=none;rounded=1;shadow=0;fontFamily=Georgia;fontSize=14;" vertex="1" parent="1">
          <mxGeometry x="470" y="475" width="100" height="80" as="geometry" />
        </mxCell>
        <mxCell id="CeVeSiVOGPcMJKuYXQf0-4" value="" style="edgeStyle=orthogonalEdgeStyle;rounded=1;orthogonalLoop=1;jettySize=auto;html=1;fontFamily=Georgia;fontSize=14;" edge="1" parent="1" source="CeVeSiVOGPcMJKuYXQf0-1" target="CeVeSiVOGPcMJKuYXQf0-3">
          <mxGeometry relative="1" as="geometry" />
        </mxCell>
        <mxCell id="CeVeSiVOGPcMJKuYXQf0-1" value="Put all information into an Animal object" style="rounded=1;whiteSpace=wrap;html=1;absoluteArcSize=1;arcSize=14;strokeWidth=2;labelBackgroundColor=none;fillColor=#09555B;strokeColor=#BAC8D3;fontColor=#EEEEEE;flipH=1;flipV=1;fontFamily=Georgia;fontSize=14;" vertex="1" parent="1">
          <mxGeometry x="266.25" y="700" width="167.5" height="60" as="geometry" />
        </mxCell>
        <mxCell id="CeVeSiVOGPcMJKuYXQf0-11" value="" style="edgeStyle=orthogonalEdgeStyle;rounded=1;orthogonalLoop=1;jettySize=auto;html=1;fontFamily=Georgia;fontSize=14;" edge="1" parent="1" source="CeVeSiVOGPcMJKuYXQf0-3" target="CeVeSiVOGPcMJKuYXQf0-10">
          <mxGeometry relative="1" as="geometry" />
        </mxCell>
        <mxCell id="CeVeSiVOGPcMJKuYXQf0-3" value="Add the object into List" style="rounded=1;whiteSpace=wrap;html=1;absoluteArcSize=1;arcSize=14;strokeWidth=2;labelBackgroundColor=none;fillColor=#09555B;strokeColor=#BAC8D3;fontColor=#EEEEEE;flipH=1;flipV=1;fontFamily=Georgia;fontSize=14;" vertex="1" parent="1">
          <mxGeometry x="267.5" y="800" width="165" height="60" as="geometry" />
        </mxCell>
        <mxCell id="CeVeSiVOGPcMJKuYXQf0-9" style="edgeStyle=orthogonalEdgeStyle;rounded=1;orthogonalLoop=1;jettySize=auto;html=1;fontFamily=Georgia;fontSize=14;" edge="1" parent="1" source="CeVeSiVOGPcMJKuYXQf0-7" target="CeVeSiVOGPcMJKuYXQf0-1">
          <mxGeometry relative="1" as="geometry" />
        </mxCell>
        <mxCell id="CeVeSiVOGPcMJKuYXQf0-7" value="" style="shape=line;html=1;strokeWidth=6;strokeColor=#ff0000;rounded=1;fontFamily=Georgia;fontSize=14;" vertex="1" parent="1">
          <mxGeometry x="80" y="650" width="540" height="10" as="geometry" />
        </mxCell>
        <mxCell id="CeVeSiVOGPcMJKuYXQf0-10" value="End" style="strokeWidth=2;html=1;shape=mxgraph.flowchart.start_1;whiteSpace=wrap;labelBackgroundColor=none;fillColor=#09555B;strokeColor=#BAC8D3;fontColor=#EEEEEE;rounded=1;flipH=1;flipV=1;shadow=0;backgroundOutline=0;direction=east;fontFamily=Georgia;fontSize=14;" vertex="1" parent="1">
          <mxGeometry x="300" y="900" width="100" height="60" as="geometry" />
        </mxCell>
      </root>
    </mxGraphModel>
  </diagram>
  <diagram id="efHOS9EyC3SZuLcFNBac" name="View Animal">
    <mxGraphModel grid="1" page="0" gridSize="10" guides="1" tooltips="1" connect="1" arrows="1" fold="1" pageScale="1" pageWidth="850" pageHeight="1100" math="0" shadow="0">
      <root>
        <mxCell id="0" />
        <mxCell id="1" parent="0" />
        <mxCell id="GKpKsxDLiFe0Msrw1QlQ-4" value="" style="edgeStyle=orthogonalEdgeStyle;rounded=1;orthogonalLoop=1;jettySize=auto;html=1;" edge="1" parent="1" source="6OnWtAgo4H7UEKDdqc3C-48" target="GKpKsxDLiFe0Msrw1QlQ-2">
          <mxGeometry relative="1" as="geometry" />
        </mxCell>
        <mxCell id="6OnWtAgo4H7UEKDdqc3C-48" value="Start" style="strokeWidth=2;html=1;shape=mxgraph.flowchart.start_1;whiteSpace=wrap;labelBackgroundColor=none;fillColor=#09555B;strokeColor=#BAC8D3;fontColor=#EEEEEE;rounded=1;flipH=1;flipV=1;fontSize=14;fontFamily=Georgia;" vertex="1" parent="1">
          <mxGeometry x="340" y="200" width="100" height="60" as="geometry" />
        </mxCell>
        <mxCell id="GKpKsxDLiFe0Msrw1QlQ-8" style="edgeStyle=orthogonalEdgeStyle;rounded=1;orthogonalLoop=1;jettySize=auto;html=1;" edge="1" parent="1" source="GKpKsxDLiFe0Msrw1QlQ-2" target="GKpKsxDLiFe0Msrw1QlQ-7">
          <mxGeometry relative="1" as="geometry" />
        </mxCell>
        <mxCell id="kVY_KmXcuAC2eQ3drrgi-1" value="Yes" style="edgeLabel;html=1;align=center;verticalAlign=middle;resizable=0;points=[];rounded=1;strokeColor=#BAC8D3;strokeWidth=2;arcSize=14;fontFamily=Georgia;fontSize=14;fontColor=#000000;labelBackgroundColor=default;fillColor=#09555B;gradientColor=none;" connectable="0" vertex="1" parent="GKpKsxDLiFe0Msrw1QlQ-8">
          <mxGeometry x="-0.3872" y="-4" relative="1" as="geometry">
            <mxPoint x="11" y="-4" as="offset" />
          </mxGeometry>
        </mxCell>
        <mxCell id="GKpKsxDLiFe0Msrw1QlQ-12" value="" style="edgeStyle=orthogonalEdgeStyle;rounded=1;orthogonalLoop=1;jettySize=auto;html=1;" edge="1" parent="1" source="GKpKsxDLiFe0Msrw1QlQ-2" target="GKpKsxDLiFe0Msrw1QlQ-11">
          <mxGeometry relative="1" as="geometry" />
        </mxCell>
        <mxCell id="kVY_KmXcuAC2eQ3drrgi-2" value="No" style="edgeLabel;html=1;align=center;verticalAlign=middle;resizable=0;points=[];rounded=1;strokeColor=#BAC8D3;strokeWidth=2;arcSize=14;fontFamily=Georgia;fontSize=14;fontColor=#000000;labelBackgroundColor=default;fillColor=#09555B;gradientColor=none;" connectable="0" vertex="1" parent="GKpKsxDLiFe0Msrw1QlQ-12">
          <mxGeometry x="-0.3788" y="1" relative="1" as="geometry">
            <mxPoint as="offset" />
          </mxGeometry>
        </mxCell>
        <mxCell id="GKpKsxDLiFe0Msrw1QlQ-2" value="If Animal List&amp;nbsp;&lt;span style=&quot;background-color: initial;&quot;&gt;is Empty&lt;/span&gt;&lt;div&gt;(Animal.Count == 0)&lt;/div&gt;" style="strokeWidth=2;html=1;shape=mxgraph.flowchart.decision;whiteSpace=wrap;labelBackgroundColor=none;fillColor=#09555B;strokeColor=#BAC8D3;fontColor=#EEEEEE;rounded=1;flipH=1;flipV=1;fontSize=14;fontFamily=Georgia;" vertex="1" parent="1">
          <mxGeometry x="273.13" y="320" width="233.75" height="135" as="geometry" />
        </mxCell>
        <mxCell id="GKpKsxDLiFe0Msrw1QlQ-3" value="End" style="strokeWidth=2;html=1;shape=mxgraph.flowchart.start_1;whiteSpace=wrap;labelBackgroundColor=none;fillColor=#09555B;strokeColor=#BAC8D3;fontColor=#EEEEEE;rounded=1;flipH=1;flipV=1;fontSize=14;fontFamily=Georgia;" vertex="1" parent="1">
          <mxGeometry x="340.01" y="740" width="100" height="60" as="geometry" />
        </mxCell>
        <mxCell id="GKpKsxDLiFe0Msrw1QlQ-9" value="" style="edgeStyle=orthogonalEdgeStyle;rounded=1;orthogonalLoop=1;jettySize=auto;html=1;" edge="1" parent="1" source="GKpKsxDLiFe0Msrw1QlQ-7" target="GKpKsxDLiFe0Msrw1QlQ-3">
          <mxGeometry relative="1" as="geometry">
            <Array as="points">
              <mxPoint x="665" y="770" />
            </Array>
          </mxGeometry>
        </mxCell>
        <mxCell id="GKpKsxDLiFe0Msrw1QlQ-7" value="Print &quot;No animal found&quot;" style="rounded=1;whiteSpace=wrap;html=1;fontSize=14;fontFamily=Georgia;fillColor=#09555B;strokeColor=#BAC8D3;fontColor=#EEEEEE;strokeWidth=2;labelBackgroundColor=none;" vertex="1" parent="1">
          <mxGeometry x="580" y="357.5" width="170" height="60" as="geometry" />
        </mxCell>
        <mxCell id="llw8WOQ_6pQ3ZuRTxcIb-2" style="edgeStyle=orthogonalEdgeStyle;rounded=0;orthogonalLoop=1;jettySize=auto;html=1;" edge="1" parent="1" source="GKpKsxDLiFe0Msrw1QlQ-11" target="GKpKsxDLiFe0Msrw1QlQ-3">
          <mxGeometry relative="1" as="geometry" />
        </mxCell>
        <mxCell id="GKpKsxDLiFe0Msrw1QlQ-11" value="Loop through all objects in List&lt;div&gt;using for-each loop&lt;/div&gt;" style="whiteSpace=wrap;html=1;fontSize=14;fontFamily=Georgia;fillColor=#09555B;strokeColor=#BAC8D3;fontColor=#EEEEEE;strokeWidth=2;labelBackgroundColor=none;rounded=1;" vertex="1" parent="1">
          <mxGeometry x="277.5" y="560" width="225" height="80" as="geometry" />
        </mxCell>
      </root>
    </mxGraphModel>
  </diagram>
  <diagram id="biU5eNSWBqueI35m0rWk" name="Update animal">
    <mxGraphModel grid="1" page="0" gridSize="10" guides="1" tooltips="1" connect="1" arrows="1" fold="1" pageScale="1" pageWidth="850" pageHeight="1100" math="0" shadow="0">
      <root>
        <mxCell id="0" />
        <mxCell id="1" parent="0" />
        <mxCell id="ik6Eatj1fpDWSdgdQQlv-1" value="" style="edgeStyle=orthogonalEdgeStyle;rounded=1;orthogonalLoop=1;jettySize=auto;html=1;fontFamily=Georgia;fontSize=14;" edge="1" parent="1" source="TvfoansVS9uikNza6KhF-4" target="ik6Eatj1fpDWSdgdQQlv-11">
          <mxGeometry relative="1" as="geometry">
            <Array as="points">
              <mxPoint x="350" y="150" />
            </Array>
          </mxGeometry>
        </mxCell>
        <mxCell id="TvfoansVS9uikNza6KhF-29" value="Yes" style="edgeLabel;html=1;align=center;verticalAlign=middle;resizable=0;points=[];rounded=1;strokeColor=#BAC8D3;strokeWidth=2;arcSize=14;fontFamily=Georgia;fontSize=14;fontColor=#000000;labelBackgroundColor=default;fillColor=#09555B;gradientColor=none;" connectable="0" vertex="1" parent="ik6Eatj1fpDWSdgdQQlv-1">
          <mxGeometry x="-0.6666" y="2" relative="1" as="geometry">
            <mxPoint as="offset" />
          </mxGeometry>
        </mxCell>
        <mxCell id="ik6Eatj1fpDWSdgdQQlv-2" value="Start" style="strokeWidth=2;html=1;shape=mxgraph.flowchart.start_1;whiteSpace=wrap;labelBackgroundColor=none;fillColor=#09555B;strokeColor=#BAC8D3;fontColor=#EEEEEE;rounded=1;flipH=1;flipV=1;shadow=0;backgroundOutline=0;direction=east;fontFamily=Georgia;fontSize=14;" vertex="1" parent="1">
          <mxGeometry x="-170" y="120" width="100" height="60" as="geometry" />
        </mxCell>
        <mxCell id="ik6Eatj1fpDWSdgdQQlv-3" value="" style="edgeStyle=orthogonalEdgeStyle;rounded=1;orthogonalLoop=1;jettySize=auto;html=1;fontFamily=Georgia;fontSize=14;" edge="1" parent="1" source="ik6Eatj1fpDWSdgdQQlv-4" target="ik6Eatj1fpDWSdgdQQlv-32">
          <mxGeometry relative="1" as="geometry" />
        </mxCell>
        <mxCell id="ik6Eatj1fpDWSdgdQQlv-4" value="Input new Age" style="shape=parallelogram;perimeter=parallelogramPerimeter;whiteSpace=wrap;html=1;fixedSize=1;fillColor=#09555B;strokeColor=#BAC8D3;fontColor=#EEEEEE;strokeWidth=2;labelBackgroundColor=none;rounded=1;shadow=0;backgroundOutline=0;direction=east;flipH=1;flipV=1;fontFamily=Georgia;fontSize=14;" vertex="1" parent="1">
          <mxGeometry x="100" y="340" width="120" height="60" as="geometry" />
        </mxCell>
        <mxCell id="ik6Eatj1fpDWSdgdQQlv-5" value="" style="edgeStyle=orthogonalEdgeStyle;rounded=1;orthogonalLoop=1;jettySize=auto;html=1;fontFamily=Georgia;fontSize=14;" edge="1" parent="1" source="ik6Eatj1fpDWSdgdQQlv-6" target="ik6Eatj1fpDWSdgdQQlv-35">
          <mxGeometry relative="1" as="geometry" />
        </mxCell>
        <mxCell id="ik6Eatj1fpDWSdgdQQlv-6" value="Input new Gender" style="shape=parallelogram;perimeter=parallelogramPerimeter;whiteSpace=wrap;html=1;fixedSize=1;fillColor=#09555B;strokeColor=#BAC8D3;fontColor=#EEEEEE;strokeWidth=2;labelBackgroundColor=none;rounded=1;shadow=0;backgroundOutline=0;direction=east;flipH=1;flipV=1;fontFamily=Georgia;fontSize=14;" vertex="1" parent="1">
          <mxGeometry x="290" y="340" width="140" height="60" as="geometry" />
        </mxCell>
        <mxCell id="ik6Eatj1fpDWSdgdQQlv-7" value="" style="edgeStyle=orthogonalEdgeStyle;rounded=1;orthogonalLoop=1;jettySize=auto;html=1;fontFamily=Georgia;fontSize=14;" edge="1" parent="1" source="ik6Eatj1fpDWSdgdQQlv-8" target="ik6Eatj1fpDWSdgdQQlv-38">
          <mxGeometry relative="1" as="geometry">
            <mxPoint x="520" y="469.9999999999999" as="targetPoint" />
          </mxGeometry>
        </mxCell>
        <mxCell id="ik6Eatj1fpDWSdgdQQlv-8" value="Input new Species" style="shape=parallelogram;perimeter=parallelogramPerimeter;whiteSpace=wrap;html=1;fixedSize=1;fillColor=#09555B;strokeColor=#BAC8D3;fontColor=#EEEEEE;strokeWidth=2;labelBackgroundColor=none;rounded=1;shadow=0;backgroundOutline=0;direction=east;flipH=1;flipV=1;fontFamily=Georgia;fontSize=14;" vertex="1" parent="1">
          <mxGeometry x="470" y="340" width="140" height="60" as="geometry" />
        </mxCell>
        <mxCell id="ik6Eatj1fpDWSdgdQQlv-9" style="edgeStyle=orthogonalEdgeStyle;rounded=1;orthogonalLoop=1;jettySize=auto;html=1;fontFamily=Georgia;fontSize=14;strokeColor=#FF0000;" edge="1" parent="1" source="TvfoansVS9uikNza6KhF-16" target="ik6Eatj1fpDWSdgdQQlv-44">
          <mxGeometry relative="1" as="geometry">
            <Array as="points">
              <mxPoint x="705" y="740" />
              <mxPoint x="360" y="740" />
            </Array>
            <mxPoint x="660" y="550" as="sourcePoint" />
            <mxPoint x="350" y="1200" as="targetPoint" />
          </mxGeometry>
        </mxCell>
        <mxCell id="TvfoansVS9uikNza6KhF-17" style="edgeStyle=orthogonalEdgeStyle;rounded=1;orthogonalLoop=1;jettySize=auto;html=1;" edge="1" parent="1" source="ik6Eatj1fpDWSdgdQQlv-10" target="TvfoansVS9uikNza6KhF-16">
          <mxGeometry relative="1" as="geometry" />
        </mxCell>
        <mxCell id="ik6Eatj1fpDWSdgdQQlv-10" value="Input new Description&lt;div style=&quot;font-size: 14px;&quot;&gt;(Optional)&lt;/div&gt;" style="shape=parallelogram;perimeter=parallelogramPerimeter;whiteSpace=wrap;html=1;fixedSize=1;fillColor=#09555B;strokeColor=#BAC8D3;fontColor=#EEEEEE;strokeWidth=2;labelBackgroundColor=none;rounded=1;shadow=0;backgroundOutline=0;direction=east;flipH=1;flipV=1;fontFamily=Georgia;fontSize=14;" vertex="1" parent="1">
          <mxGeometry x="620" y="340" width="170" height="60" as="geometry" />
        </mxCell>
        <mxCell id="ik6Eatj1fpDWSdgdQQlv-11" value="" style="shape=line;html=1;strokeWidth=6;strokeColor=#ff0000;rounded=1;fontFamily=Georgia;fontSize=14;" vertex="1" parent="1">
          <mxGeometry x="80" y="250" width="540" height="10" as="geometry" />
        </mxCell>
        <mxCell id="ik6Eatj1fpDWSdgdQQlv-12" value="" style="edgeStyle=orthogonalEdgeStyle;html=1;verticalAlign=bottom;endArrow=open;endSize=8;strokeColor=#ff0000;rounded=1;fontFamily=Georgia;fontSize=14;" edge="1" parent="1" source="ik6Eatj1fpDWSdgdQQlv-11" target="ik6Eatj1fpDWSdgdQQlv-14">
          <mxGeometry relative="1" as="geometry">
            <mxPoint y="440" as="targetPoint" />
            <Array as="points" />
            <mxPoint y="260" as="sourcePoint" />
          </mxGeometry>
        </mxCell>
        <mxCell id="ik6Eatj1fpDWSdgdQQlv-13" value="" style="edgeStyle=orthogonalEdgeStyle;rounded=1;orthogonalLoop=1;jettySize=auto;html=1;fontFamily=Georgia;fontSize=14;" edge="1" parent="1" source="ik6Eatj1fpDWSdgdQQlv-14" target="ik6Eatj1fpDWSdgdQQlv-29">
          <mxGeometry relative="1" as="geometry" />
        </mxCell>
        <mxCell id="ik6Eatj1fpDWSdgdQQlv-14" value="Input new Name" style="shape=parallelogram;perimeter=parallelogramPerimeter;whiteSpace=wrap;html=1;fixedSize=1;fillColor=#09555B;strokeColor=#BAC8D3;fontColor=#EEEEEE;strokeWidth=2;labelBackgroundColor=none;rounded=1;shadow=0;backgroundOutline=0;direction=east;flipH=1;flipV=1;fontFamily=Georgia;fontSize=14;" vertex="1" parent="1">
          <mxGeometry x="-50" y="340" width="130" height="60" as="geometry" />
        </mxCell>
        <mxCell id="ik6Eatj1fpDWSdgdQQlv-15" value="" style="edgeStyle=orthogonalEdgeStyle;html=1;verticalAlign=bottom;endArrow=open;endSize=8;strokeColor=#ff0000;rounded=1;exitX=0.502;exitY=0.434;exitDx=0;exitDy=0;exitPerimeter=0;fontFamily=Georgia;fontSize=14;" edge="1" parent="1" source="ik6Eatj1fpDWSdgdQQlv-11" target="ik6Eatj1fpDWSdgdQQlv-8">
          <mxGeometry relative="1" as="geometry">
            <mxPoint x="60" y="560" as="targetPoint" />
            <Array as="points" />
            <mxPoint x="350" y="480" as="sourcePoint" />
          </mxGeometry>
        </mxCell>
        <mxCell id="ik6Eatj1fpDWSdgdQQlv-16" value="" style="edgeStyle=orthogonalEdgeStyle;html=1;verticalAlign=bottom;endArrow=open;endSize=8;strokeColor=#ff0000;rounded=1;exitX=0.501;exitY=0.772;exitDx=0;exitDy=0;exitPerimeter=0;fontFamily=Georgia;fontSize=14;" edge="1" parent="1" source="ik6Eatj1fpDWSdgdQQlv-11" target="ik6Eatj1fpDWSdgdQQlv-6">
          <mxGeometry relative="1" as="geometry">
            <mxPoint x="370" y="520" as="targetPoint" />
            <Array as="points" />
            <mxPoint x="660" y="440" as="sourcePoint" />
          </mxGeometry>
        </mxCell>
        <mxCell id="ik6Eatj1fpDWSdgdQQlv-17" value="" style="edgeStyle=orthogonalEdgeStyle;html=1;verticalAlign=bottom;endArrow=open;endSize=8;strokeColor=#ff0000;rounded=1;exitX=0.5;exitY=0.752;exitDx=0;exitDy=0;exitPerimeter=0;fontFamily=Georgia;fontSize=14;" edge="1" parent="1" source="ik6Eatj1fpDWSdgdQQlv-11" target="ik6Eatj1fpDWSdgdQQlv-4">
          <mxGeometry relative="1" as="geometry">
            <mxPoint x="-50" y="540" as="targetPoint" />
            <Array as="points" />
            <mxPoint x="-40" y="280" as="sourcePoint" />
          </mxGeometry>
        </mxCell>
        <mxCell id="ik6Eatj1fpDWSdgdQQlv-18" value="" style="edgeStyle=orthogonalEdgeStyle;html=1;verticalAlign=bottom;endArrow=open;endSize=8;strokeColor=#ff0000;rounded=1;exitX=0.499;exitY=0.417;exitDx=0;exitDy=0;exitPerimeter=0;fontFamily=Georgia;fontSize=14;entryX=0.5;entryY=0;entryDx=0;entryDy=0;" edge="1" parent="1" source="ik6Eatj1fpDWSdgdQQlv-11" target="ik6Eatj1fpDWSdgdQQlv-10">
          <mxGeometry relative="1" as="geometry">
            <mxPoint x="220" y="540" as="targetPoint" />
            <Array as="points">
              <mxPoint x="350" y="300" />
              <mxPoint x="705" y="300" />
            </Array>
            <mxPoint x="510" y="460" as="sourcePoint" />
          </mxGeometry>
        </mxCell>
        <mxCell id="ik6Eatj1fpDWSdgdQQlv-19" style="edgeStyle=orthogonalEdgeStyle;rounded=1;orthogonalLoop=1;jettySize=auto;html=1;fontFamily=Georgia;fontSize=14;strokeColor=#FF0000;" edge="1" parent="1" source="TvfoansVS9uikNza6KhF-12" target="ik6Eatj1fpDWSdgdQQlv-44">
          <mxGeometry relative="1" as="geometry">
            <mxPoint x="20" y="710.9999999999998" as="sourcePoint" />
            <mxPoint x="350" y="985" as="targetPoint" />
            <Array as="points">
              <mxPoint x="20" y="740" />
              <mxPoint x="360" y="740" />
            </Array>
          </mxGeometry>
        </mxCell>
        <mxCell id="ik6Eatj1fpDWSdgdQQlv-21" style="edgeStyle=orthogonalEdgeStyle;rounded=1;orthogonalLoop=1;jettySize=auto;html=1;fontFamily=Georgia;fontSize=14;strokeColor=#FF0000;" edge="1" parent="1" source="TvfoansVS9uikNza6KhF-13" target="ik6Eatj1fpDWSdgdQQlv-44">
          <mxGeometry relative="1" as="geometry">
            <mxPoint x="160" y="714.9999999999998" as="sourcePoint" />
            <mxPoint x="350" y="985" as="targetPoint" />
            <Array as="points">
              <mxPoint x="160" y="740" />
              <mxPoint x="360" y="740" />
            </Array>
          </mxGeometry>
        </mxCell>
        <mxCell id="ik6Eatj1fpDWSdgdQQlv-23" style="edgeStyle=orthogonalEdgeStyle;rounded=1;orthogonalLoop=1;jettySize=auto;html=1;fontFamily=Georgia;fontSize=14;strokeColor=#FF0000;" edge="1" parent="1" source="TvfoansVS9uikNza6KhF-14" target="ik6Eatj1fpDWSdgdQQlv-44">
          <mxGeometry relative="1" as="geometry">
            <mxPoint x="272.5" y="680.0000000000002" as="sourcePoint" />
            <mxPoint x="227.5" y="870" as="targetPoint" />
            <Array as="points">
              <mxPoint x="360" y="780" />
              <mxPoint x="360" y="780" />
            </Array>
          </mxGeometry>
        </mxCell>
        <mxCell id="ik6Eatj1fpDWSdgdQQlv-25" style="edgeStyle=orthogonalEdgeStyle;rounded=1;orthogonalLoop=1;jettySize=auto;html=1;fontFamily=Georgia;fontSize=14;strokeColor=#FF0000;" edge="1" parent="1" source="TvfoansVS9uikNza6KhF-15" target="ik6Eatj1fpDWSdgdQQlv-44">
          <mxGeometry relative="1" as="geometry">
            <mxPoint x="520" y="709.9999999999998" as="sourcePoint" />
            <mxPoint x="350" y="985" as="targetPoint" />
            <Array as="points">
              <mxPoint x="520" y="740" />
              <mxPoint x="360" y="740" />
            </Array>
          </mxGeometry>
        </mxCell>
        <mxCell id="ik6Eatj1fpDWSdgdQQlv-27" style="edgeStyle=orthogonalEdgeStyle;rounded=1;orthogonalLoop=1;jettySize=auto;html=1;fontFamily=Georgia;fontSize=14;" edge="1" parent="1" source="ik6Eatj1fpDWSdgdQQlv-29" target="ik6Eatj1fpDWSdgdQQlv-14">
          <mxGeometry relative="1" as="geometry">
            <Array as="points">
              <mxPoint x="-60" y="519.9999999999999" />
              <mxPoint x="-60" y="369.9999999999999" />
            </Array>
          </mxGeometry>
        </mxCell>
        <mxCell id="ik6Eatj1fpDWSdgdQQlv-28" value="Yes" style="edgeLabel;html=1;align=center;verticalAlign=middle;resizable=0;points=[];rounded=1;fontFamily=Georgia;fontSize=14;" connectable="0" vertex="1" parent="ik6Eatj1fpDWSdgdQQlv-27">
          <mxGeometry x="-0.8032" y="-3" relative="1" as="geometry">
            <mxPoint as="offset" />
          </mxGeometry>
        </mxCell>
        <mxCell id="TvfoansVS9uikNza6KhF-19" style="edgeStyle=orthogonalEdgeStyle;rounded=1;orthogonalLoop=1;jettySize=auto;html=1;" edge="1" parent="1" source="ik6Eatj1fpDWSdgdQQlv-29" target="TvfoansVS9uikNza6KhF-12">
          <mxGeometry relative="1" as="geometry" />
        </mxCell>
        <mxCell id="TvfoansVS9uikNza6KhF-25" value="Text" style="edgeLabel;html=1;align=center;verticalAlign=middle;resizable=0;points=[];rounded=1;fontSize=14;fontFamily=Georgia;" connectable="0" vertex="1" parent="TvfoansVS9uikNza6KhF-19">
          <mxGeometry x="-0.585" y="1" relative="1" as="geometry">
            <mxPoint as="offset" />
          </mxGeometry>
        </mxCell>
        <mxCell id="ik6Eatj1fpDWSdgdQQlv-29" value="Is null or empty?" style="rhombus;whiteSpace=wrap;html=1;fillColor=#09555B;strokeColor=#BAC8D3;fontColor=#EEEEEE;strokeWidth=2;labelBackgroundColor=none;rounded=1;shadow=0;fontFamily=Georgia;fontSize=14;" vertex="1" parent="1">
          <mxGeometry x="-35" y="480" width="100" height="80" as="geometry" />
        </mxCell>
        <mxCell id="ik6Eatj1fpDWSdgdQQlv-30" style="edgeStyle=orthogonalEdgeStyle;rounded=1;orthogonalLoop=1;jettySize=auto;html=1;fontFamily=Georgia;fontSize=14;" edge="1" parent="1" source="ik6Eatj1fpDWSdgdQQlv-32" target="ik6Eatj1fpDWSdgdQQlv-4">
          <mxGeometry relative="1" as="geometry">
            <Array as="points">
              <mxPoint x="80" y="520" />
              <mxPoint x="80" y="370" />
            </Array>
          </mxGeometry>
        </mxCell>
        <mxCell id="ik6Eatj1fpDWSdgdQQlv-31" value="False" style="edgeLabel;html=1;align=center;verticalAlign=middle;resizable=0;points=[];rounded=1;fontFamily=Georgia;fontSize=14;" connectable="0" vertex="1" parent="ik6Eatj1fpDWSdgdQQlv-30">
          <mxGeometry x="-0.8333" relative="1" as="geometry">
            <mxPoint as="offset" />
          </mxGeometry>
        </mxCell>
        <mxCell id="TvfoansVS9uikNza6KhF-18" style="edgeStyle=orthogonalEdgeStyle;rounded=1;orthogonalLoop=1;jettySize=auto;html=1;" edge="1" parent="1" source="ik6Eatj1fpDWSdgdQQlv-32" target="TvfoansVS9uikNza6KhF-13">
          <mxGeometry relative="1" as="geometry" />
        </mxCell>
        <mxCell id="TvfoansVS9uikNza6KhF-26" value="True" style="edgeLabel;html=1;align=center;verticalAlign=middle;resizable=0;points=[];rounded=1;strokeColor=#BAC8D3;strokeWidth=2;arcSize=14;fontFamily=Georgia;fontSize=14;fontColor=#000000;labelBackgroundColor=default;fillColor=#09555B;" connectable="0" vertex="1" parent="TvfoansVS9uikNza6KhF-18">
          <mxGeometry x="-0.585" relative="1" as="geometry">
            <mxPoint as="offset" />
          </mxGeometry>
        </mxCell>
        <mxCell id="ik6Eatj1fpDWSdgdQQlv-32" value="Age &amp;gt; 0" style="rhombus;whiteSpace=wrap;html=1;fillColor=#09555B;strokeColor=#BAC8D3;fontColor=#EEEEEE;strokeWidth=2;labelBackgroundColor=none;rounded=1;shadow=0;fontFamily=Georgia;fontSize=14;" vertex="1" parent="1">
          <mxGeometry x="120" y="480" width="80" height="80" as="geometry" />
        </mxCell>
        <mxCell id="ik6Eatj1fpDWSdgdQQlv-33" style="edgeStyle=orthogonalEdgeStyle;rounded=1;orthogonalLoop=1;jettySize=auto;html=1;fontFamily=Georgia;fontSize=14;" edge="1" parent="1" source="ik6Eatj1fpDWSdgdQQlv-35" target="ik6Eatj1fpDWSdgdQQlv-6">
          <mxGeometry relative="1" as="geometry">
            <Array as="points">
              <mxPoint x="260" y="510" />
              <mxPoint x="260" y="370" />
            </Array>
          </mxGeometry>
        </mxCell>
        <mxCell id="ik6Eatj1fpDWSdgdQQlv-34" value="False" style="edgeLabel;html=1;align=center;verticalAlign=middle;resizable=0;points=[];rounded=1;fontFamily=Georgia;fontSize=14;" connectable="0" vertex="1" parent="ik6Eatj1fpDWSdgdQQlv-33">
          <mxGeometry x="-0.8589" y="-2" relative="1" as="geometry">
            <mxPoint x="-9" y="-18" as="offset" />
          </mxGeometry>
        </mxCell>
        <mxCell id="TvfoansVS9uikNza6KhF-20" value="" style="edgeStyle=orthogonalEdgeStyle;rounded=1;orthogonalLoop=1;jettySize=auto;html=1;" edge="1" parent="1" source="ik6Eatj1fpDWSdgdQQlv-35" target="TvfoansVS9uikNza6KhF-14">
          <mxGeometry relative="1" as="geometry">
            <mxPoint x="360" y="600" as="sourcePoint" />
          </mxGeometry>
        </mxCell>
        <mxCell id="TvfoansVS9uikNza6KhF-27" value="True" style="edgeLabel;html=1;align=center;verticalAlign=middle;resizable=0;points=[];rounded=1;strokeColor=#BAC8D3;strokeWidth=2;arcSize=14;fontFamily=Georgia;fontSize=14;fontColor=#000000;labelBackgroundColor=default;fillColor=#09555B;gradientColor=none;" connectable="0" vertex="1" parent="TvfoansVS9uikNza6KhF-20">
          <mxGeometry x="-0.6225" y="-1" relative="1" as="geometry">
            <mxPoint as="offset" />
          </mxGeometry>
        </mxCell>
        <mxCell id="ik6Eatj1fpDWSdgdQQlv-35" value="Gender == 1&lt;div style=&quot;font-size: 14px;&quot;&gt;or Gender == 2&lt;/div&gt;&lt;div style=&quot;font-size: 14px;&quot;&gt;or Gender == 3&lt;/div&gt;" style="rhombus;whiteSpace=wrap;html=1;fillColor=#09555B;strokeColor=#BAC8D3;fontColor=#EEEEEE;strokeWidth=2;labelBackgroundColor=none;rounded=1;shadow=0;fontFamily=Georgia;fontSize=14;" vertex="1" parent="1">
          <mxGeometry x="280" y="450" width="160" height="115" as="geometry" />
        </mxCell>
        <mxCell id="ik6Eatj1fpDWSdgdQQlv-36" style="edgeStyle=orthogonalEdgeStyle;rounded=1;orthogonalLoop=1;jettySize=auto;html=1;fontFamily=Georgia;fontSize=14;" edge="1" parent="1" source="ik6Eatj1fpDWSdgdQQlv-38" target="ik6Eatj1fpDWSdgdQQlv-8">
          <mxGeometry relative="1" as="geometry">
            <Array as="points">
              <mxPoint x="450" y="515" />
              <mxPoint x="450" y="370" />
            </Array>
          </mxGeometry>
        </mxCell>
        <mxCell id="ik6Eatj1fpDWSdgdQQlv-37" value="Yes" style="edgeLabel;html=1;align=center;verticalAlign=middle;resizable=0;points=[];rounded=1;fontFamily=Georgia;fontSize=14;" connectable="0" vertex="1" parent="ik6Eatj1fpDWSdgdQQlv-36">
          <mxGeometry x="-0.8497" y="-2" relative="1" as="geometry">
            <mxPoint as="offset" />
          </mxGeometry>
        </mxCell>
        <mxCell id="TvfoansVS9uikNza6KhF-21" value="" style="edgeStyle=orthogonalEdgeStyle;rounded=1;orthogonalLoop=1;jettySize=auto;html=1;" edge="1" parent="1" source="ik6Eatj1fpDWSdgdQQlv-38" target="TvfoansVS9uikNza6KhF-15">
          <mxGeometry relative="1" as="geometry" />
        </mxCell>
        <mxCell id="TvfoansVS9uikNza6KhF-28" value="No" style="edgeLabel;html=1;align=center;verticalAlign=middle;resizable=0;points=[];rounded=1;strokeColor=#BAC8D3;strokeWidth=2;arcSize=14;fontFamily=Georgia;fontSize=14;fontColor=#000000;labelBackgroundColor=default;fillColor=#09555B;gradientColor=none;" connectable="0" vertex="1" parent="TvfoansVS9uikNza6KhF-21">
          <mxGeometry x="-0.4977" y="-2" relative="1" as="geometry">
            <mxPoint as="offset" />
          </mxGeometry>
        </mxCell>
        <mxCell id="ik6Eatj1fpDWSdgdQQlv-38" value="Is null or empty?" style="rhombus;whiteSpace=wrap;html=1;fillColor=#09555B;strokeColor=#BAC8D3;fontColor=#EEEEEE;strokeWidth=2;labelBackgroundColor=none;rounded=1;shadow=0;fontFamily=Georgia;fontSize=14;" vertex="1" parent="1">
          <mxGeometry x="490" y="480" width="100" height="80" as="geometry" />
        </mxCell>
        <mxCell id="TvfoansVS9uikNza6KhF-24" style="edgeStyle=orthogonalEdgeStyle;rounded=1;orthogonalLoop=1;jettySize=auto;html=1;" edge="1" parent="1" source="MQCEzhbV8cYT9L1CbyS5-1" target="ik6Eatj1fpDWSdgdQQlv-45">
          <mxGeometry relative="1" as="geometry" />
        </mxCell>
        <mxCell id="ik6Eatj1fpDWSdgdQQlv-44" value="" style="shape=line;html=1;strokeWidth=6;strokeColor=#ff0000;rounded=1;fontFamily=Georgia;fontSize=14;" vertex="1" parent="1">
          <mxGeometry x="90" y="780" width="540" height="10" as="geometry" />
        </mxCell>
        <mxCell id="ik6Eatj1fpDWSdgdQQlv-45" value="End" style="strokeWidth=2;html=1;shape=mxgraph.flowchart.start_1;whiteSpace=wrap;labelBackgroundColor=none;fillColor=#09555B;strokeColor=#BAC8D3;fontColor=#EEEEEE;rounded=1;flipH=1;flipV=1;shadow=0;backgroundOutline=0;direction=east;fontFamily=Georgia;fontSize=14;" vertex="1" parent="1">
          <mxGeometry x="310" y="940" width="100" height="60" as="geometry" />
        </mxCell>
        <mxCell id="TvfoansVS9uikNza6KhF-1" value="Print&amp;nbsp;&lt;div&gt;&quot;Animal not found&quot;&lt;/div&gt;" style="rounded=1;whiteSpace=wrap;html=1;absoluteArcSize=1;arcSize=14;strokeWidth=2;labelBackgroundColor=none;fillColor=#09555B;strokeColor=#BAC8D3;fontColor=#EEEEEE;flipH=1;flipV=1;fontSize=14;fontFamily=Georgia;" vertex="1" parent="1">
          <mxGeometry x="-280" y="430" width="150" height="60" as="geometry" />
        </mxCell>
        <mxCell id="TvfoansVS9uikNza6KhF-3" value="" style="edgeStyle=orthogonalEdgeStyle;rounded=1;orthogonalLoop=1;jettySize=auto;html=1;fontFamily=Georgia;fontSize=14;" edge="1" parent="1" source="ik6Eatj1fpDWSdgdQQlv-2" target="TvfoansVS9uikNza6KhF-2">
          <mxGeometry relative="1" as="geometry">
            <mxPoint x="-70" y="150" as="sourcePoint" />
            <mxPoint x="350" y="250" as="targetPoint" />
          </mxGeometry>
        </mxCell>
        <mxCell id="TvfoansVS9uikNza6KhF-2" value="Input Animal ID" style="shape=parallelogram;perimeter=parallelogramPerimeter;whiteSpace=wrap;html=1;fixedSize=1;fillColor=#09555B;strokeColor=#BAC8D3;fontColor=#EEEEEE;strokeWidth=2;labelBackgroundColor=none;rounded=1;shadow=0;backgroundOutline=0;direction=east;flipH=1;flipV=1;fontFamily=Georgia;fontSize=14;" vertex="1" parent="1">
          <mxGeometry x="20" y="120" width="140" height="60" as="geometry" />
        </mxCell>
        <mxCell id="TvfoansVS9uikNza6KhF-5" value="" style="edgeStyle=orthogonalEdgeStyle;rounded=1;orthogonalLoop=1;jettySize=auto;html=1;fontFamily=Georgia;fontSize=14;" edge="1" parent="1" source="TvfoansVS9uikNza6KhF-2" target="TvfoansVS9uikNza6KhF-4">
          <mxGeometry relative="1" as="geometry">
            <mxPoint x="150" y="150" as="sourcePoint" />
            <mxPoint x="350" y="250" as="targetPoint" />
            <Array as="points" />
          </mxGeometry>
        </mxCell>
        <mxCell id="TvfoansVS9uikNza6KhF-8" style="edgeStyle=orthogonalEdgeStyle;rounded=1;orthogonalLoop=1;jettySize=auto;html=1;" edge="1" parent="1" source="TvfoansVS9uikNza6KhF-4" target="TvfoansVS9uikNza6KhF-1">
          <mxGeometry relative="1" as="geometry">
            <Array as="points">
              <mxPoint x="250" y="220" />
              <mxPoint x="-205" y="220" />
            </Array>
          </mxGeometry>
        </mxCell>
        <mxCell id="TvfoansVS9uikNza6KhF-30" value="No" style="edgeLabel;html=1;align=center;verticalAlign=middle;resizable=0;points=[];rounded=1;strokeColor=#BAC8D3;strokeWidth=2;arcSize=14;fontFamily=Georgia;fontSize=14;fontColor=#000000;labelBackgroundColor=default;fillColor=#09555B;gradientColor=none;" connectable="0" vertex="1" parent="TvfoansVS9uikNza6KhF-8">
          <mxGeometry x="-0.9546" y="-1" relative="1" as="geometry">
            <mxPoint as="offset" />
          </mxGeometry>
        </mxCell>
        <mxCell id="TvfoansVS9uikNza6KhF-4" value="Animal ID found?" style="rhombus;whiteSpace=wrap;html=1;fillColor=#09555B;strokeColor=#BAC8D3;fontColor=#EEEEEE;strokeWidth=2;labelBackgroundColor=none;rounded=1;shadow=0;fontFamily=Georgia;fontSize=14;" vertex="1" parent="1">
          <mxGeometry x="200" y="110" width="100" height="80" as="geometry" />
        </mxCell>
        <mxCell id="TvfoansVS9uikNza6KhF-9" style="edgeStyle=orthogonalEdgeStyle;rounded=1;orthogonalLoop=1;jettySize=auto;html=1;" edge="1" parent="1" source="TvfoansVS9uikNza6KhF-1" target="ik6Eatj1fpDWSdgdQQlv-45">
          <mxGeometry relative="1" as="geometry">
            <Array as="points">
              <mxPoint x="-205" y="970" />
            </Array>
          </mxGeometry>
        </mxCell>
        <mxCell id="TvfoansVS9uikNza6KhF-12" value="Assign new name&lt;div&gt;to animal&#39;s name&lt;/div&gt;" style="rounded=1;whiteSpace=wrap;html=1;absoluteArcSize=1;arcSize=14;strokeWidth=2;labelBackgroundColor=none;fillColor=#09555B;strokeColor=#BAC8D3;fontColor=#EEEEEE;flipH=1;flipV=1;fontSize=14;fontFamily=Georgia;" vertex="1" parent="1">
          <mxGeometry x="-45" y="625" width="120" height="60" as="geometry" />
        </mxCell>
        <mxCell id="TvfoansVS9uikNza6KhF-13" value="Assign new age&lt;div&gt;to animal&#39;s age&lt;/div&gt;" style="rounded=1;whiteSpace=wrap;html=1;absoluteArcSize=1;arcSize=14;strokeWidth=2;labelBackgroundColor=none;fillColor=#09555B;strokeColor=#BAC8D3;fontColor=#EEEEEE;flipH=1;flipV=1;fontSize=14;fontFamily=Georgia;" vertex="1" parent="1">
          <mxGeometry x="105" y="625" width="110" height="60" as="geometry" />
        </mxCell>
        <mxCell id="TvfoansVS9uikNza6KhF-14" value="Assign new gender&lt;div&gt;to animal&#39;s gender&lt;span style=&quot;color: rgba(0, 0, 0, 0); font-family: monospace; font-size: 0px; text-align: start; text-wrap: nowrap; background-color: initial;&quot;&gt;%3CmxGraphModel%3E%3Croot%3E%3CmxCell%20id%3D%220%22%2F%3E%3CmxCell%20id%3D%221%22%20parent%3D%220%22%2F%3E%3CmxCell%20id%3D%222%22%20value%3D%22Assign%20new%20age%26lt%3Bdiv%26gt%3Bto%20animal&#39;s%20age%26lt%3B%2Fdiv%26gt%3B%22%20style%3D%22rounded%3D1%3BwhiteSpace%3Dwrap%3Bhtml%3D1%3BabsoluteArcSize%3D1%3BarcSize%3D14%3BstrokeWidth%3D2%3BlabelBackgroundColor%3Dnone%3BfillColor%3D%2309555B%3BstrokeColor%3D%23BAC8D3%3BfontColor%3D%23EEEEEE%3BflipH%3D1%3BflipV%3D1%3BfontSize%3D14%3BfontFamily%3DGeorgia%3B%22%20vertex%3D%221%22%20parent%3D%221%22%3E%3CmxGeometry%20x%3D%2280%22%20y%3D%22590%22%20width%3D%22150%22%20height%3D%2260%22%20as%3D%22geometry%22%2F%3E%3C%2FmxCell%3E%3C%2Froot%3E%3C%2FmxGraphModel%3E&lt;/span&gt;&lt;/div&gt;" style="rounded=1;whiteSpace=wrap;html=1;absoluteArcSize=1;arcSize=14;strokeWidth=2;labelBackgroundColor=none;fillColor=#09555B;strokeColor=#BAC8D3;fontColor=#EEEEEE;flipH=1;flipV=1;fontSize=14;fontFamily=Georgia;" vertex="1" parent="1">
          <mxGeometry x="295" y="625" width="130" height="60" as="geometry" />
        </mxCell>
        <mxCell id="TvfoansVS9uikNza6KhF-15" value="Assign new species&lt;div&gt;to animal&#39;s species&lt;span style=&quot;color: rgba(0, 0, 0, 0); font-family: monospace; font-size: 0px; text-align: start; text-wrap: nowrap; background-color: initial;&quot;&gt;%3CmxGraphModel%3E%3Croot%3E%3CmxCell%20id%3D%220%22%2F%3E%3CmxCell%20id%3D%221%22%20parent%3D%220%22%2F%3E%3CmxCell%20id%3D%222%22%20value%3D%22Assign%20new%20age%26lt%3Bdiv%26gt%3Bto%20animal&#39;s%20age%26lt%3B%2Fdiv%26gt%3B%22%20style%3D%22rounded%3D1%3BwhiteSpace%3Dwrap%3Bhtml%3D1%3BabsoluteArcSize%3D1%3BarcSize%3D14%3BstrokeWidth%3D2%3BlabelBackgroundColor%3Dnone%3BfillColor%3D%2309555B%3BstrokeColor%3D%23BAC8D3%3BfontColor%3D%23EEEEEE%3BflipH%3D1%3BflipV%3D1%3BfontSize%3D14%3BfontFamily%3DGeorgia%3B%22%20vertex%3D%221%22%20parent%3D%221%22%3E%3CmxGeometry%20x%3D%2280%22%20y%3D%22590%22%20width%3D%22150%22%20height%3D%2260%22%20as%3D%22geometry%22%2F%3E%3C%2FmxCell%3E%3C%2Froot%3E%3C%2FmxGraphModel%3E&lt;/span&gt;&lt;/div&gt;" style="rounded=1;whiteSpace=wrap;html=1;absoluteArcSize=1;arcSize=14;strokeWidth=2;labelBackgroundColor=none;fillColor=#09555B;strokeColor=#BAC8D3;fontColor=#EEEEEE;flipH=1;flipV=1;fontSize=14;fontFamily=Georgia;" vertex="1" parent="1">
          <mxGeometry x="475" y="625" width="130" height="60" as="geometry" />
        </mxCell>
        <mxCell id="TvfoansVS9uikNza6KhF-16" value="Assign new desc&lt;div&gt;to animal&#39;s desc&lt;span style=&quot;color: rgba(0, 0, 0, 0); font-family: monospace; font-size: 0px; text-align: start; text-wrap: nowrap; background-color: initial;&quot;&gt;%3CmxGraphModel%3E%3Croot%3E%3CmxCell%20id%3D%220%22%2F%3E%3CmxCell%20id%3D%221%22%20parent%3D%220%22%2F%3E%3CmxCell%20id%3D%222%22%20value%3D%22Assign%20new%20age%26lt%3Bdiv%26gt%3Bto%20animal&#39;s%20age%26lt%3B%2Fdiv%26gt%3B%22%20style%3D%22rounded%3D1%3BwhiteSpace%3Dwrap%3Bhtml%3D1%3BabsoluteArcSize%3D1%3BarcSize%3D14%3BstrokeWidth%3D2%3BlabelBackgroundColor%3Dnone%3BfillColor%3D%2309555B%3BstrokeColor%3D%23BAC8D3%3BfontColor%3D%23EEEEEE%3BflipH%3D1%3BflipV%3D1%3BfontSize%3D14%3BfontFamily%3DGeorgia%3B%22%20vertex%3D%221%22%20parent%3D%221%22%3E%3CmxGeometry%20x%3D%2280%22%20y%3D%22590%22%20width%3D%22150%22%20height%3D%2260%22%20as%3D%22geometry%22%2F%3E%3C%2FmxCell%3E%3C%2Froot%3E%3C%2FmxGraphModel%3E&lt;/span&gt;&lt;/div&gt;" style="rounded=1;whiteSpace=wrap;html=1;absoluteArcSize=1;arcSize=14;strokeWidth=2;labelBackgroundColor=none;fillColor=#09555B;strokeColor=#BAC8D3;fontColor=#EEEEEE;flipH=1;flipV=1;fontSize=14;fontFamily=Georgia;" vertex="1" parent="1">
          <mxGeometry x="630" y="625" width="150" height="60" as="geometry" />
        </mxCell>
        <mxCell id="MQCEzhbV8cYT9L1CbyS5-2" value="" style="edgeStyle=orthogonalEdgeStyle;rounded=1;orthogonalLoop=1;jettySize=auto;html=1;" edge="1" parent="1" source="ik6Eatj1fpDWSdgdQQlv-44" target="MQCEzhbV8cYT9L1CbyS5-1">
          <mxGeometry relative="1" as="geometry">
            <mxPoint x="360" y="790" as="sourcePoint" />
            <mxPoint x="360" y="920" as="targetPoint" />
          </mxGeometry>
        </mxCell>
        <mxCell id="MQCEzhbV8cYT9L1CbyS5-1" value="Print&lt;div&gt;&quot;Animal updated successfully&quot;&lt;/div&gt;" style="rounded=1;whiteSpace=wrap;html=1;absoluteArcSize=1;arcSize=14;strokeWidth=2;labelBackgroundColor=none;fillColor=#09555B;strokeColor=#BAC8D3;fontColor=#EEEEEE;flipH=1;flipV=1;fontSize=14;fontFamily=Georgia;" vertex="1" parent="1">
          <mxGeometry x="262.5" y="830" width="195" height="60" as="geometry" />
        </mxCell>
      </root>
    </mxGraphModel>
  </diagram>
  <diagram id="pQkgMBJWkhaJf_ravZ9R" name="Delete animal">
    <mxGraphModel grid="1" page="0" gridSize="10" guides="1" tooltips="1" connect="1" arrows="1" fold="1" pageScale="1" pageWidth="850" pageHeight="1100" math="0" shadow="0">
      <root>
        <mxCell id="0" />
        <mxCell id="1" parent="0" />
        <mxCell id="8Eoa8-Q0y8dcTawh_AJR-5" value="" style="edgeStyle=orthogonalEdgeStyle;rounded=1;orthogonalLoop=1;jettySize=auto;html=1;fontFamily=Georgia;fontSize=14;fontColor=#000000;labelBackgroundColor=default;" edge="1" parent="1" source="o9wBsn4bkEo0al4GvCDa-3" target="8Eoa8-Q0y8dcTawh_AJR-3">
          <mxGeometry relative="1" as="geometry" />
        </mxCell>
        <mxCell id="o9wBsn4bkEo0al4GvCDa-3" value="Input Animal ID" style="shape=parallelogram;html=1;strokeWidth=2;perimeter=parallelogramPerimeter;whiteSpace=wrap;rounded=1;arcSize=12;size=0.23;labelBackgroundColor=none;fillColor=#09555B;strokeColor=#BAC8D3;fontColor=#EEEEEE;flipH=1;flipV=1;fontSize=14;fontFamily=Georgia;" vertex="1" parent="1">
          <mxGeometry x="490" y="220" width="160" height="60" as="geometry" />
        </mxCell>
        <mxCell id="8Eoa8-Q0y8dcTawh_AJR-2" value="" style="edgeStyle=orthogonalEdgeStyle;rounded=1;orthogonalLoop=1;jettySize=auto;html=1;fontFamily=Georgia;fontSize=14;fontColor=#000000;labelBackgroundColor=default;" edge="1" parent="1" source="8Eoa8-Q0y8dcTawh_AJR-1" target="o9wBsn4bkEo0al4GvCDa-3">
          <mxGeometry relative="1" as="geometry" />
        </mxCell>
        <mxCell id="8Eoa8-Q0y8dcTawh_AJR-1" value="Start" style="strokeWidth=2;html=1;shape=mxgraph.flowchart.start_1;whiteSpace=wrap;labelBackgroundColor=none;fillColor=#09555B;strokeColor=#BAC8D3;fontColor=#EEEEEE;rounded=1;flipH=1;flipV=1;fontSize=14;fontFamily=Georgia;" vertex="1" parent="1">
          <mxGeometry x="340" y="220" width="100" height="60" as="geometry" />
        </mxCell>
        <mxCell id="8Eoa8-Q0y8dcTawh_AJR-7" value="" style="edgeStyle=orthogonalEdgeStyle;rounded=1;orthogonalLoop=1;jettySize=auto;html=1;fontFamily=Georgia;fontSize=14;fontColor=#000000;labelBackgroundColor=default;" edge="1" parent="1" source="8Eoa8-Q0y8dcTawh_AJR-3" target="8Eoa8-Q0y8dcTawh_AJR-6">
          <mxGeometry relative="1" as="geometry" />
        </mxCell>
        <mxCell id="8Eoa8-Q0y8dcTawh_AJR-10" value="No" style="edgeLabel;html=1;align=center;verticalAlign=middle;resizable=0;points=[];rounded=1;strokeColor=#BAC8D3;strokeWidth=2;arcSize=14;fontFamily=Georgia;fontSize=14;fontColor=#000000;labelBackgroundColor=default;fillColor=#09555B;gradientColor=none;" connectable="0" vertex="1" parent="8Eoa8-Q0y8dcTawh_AJR-7">
          <mxGeometry x="-0.3534" y="1" relative="1" as="geometry">
            <mxPoint as="offset" />
          </mxGeometry>
        </mxCell>
        <mxCell id="8Eoa8-Q0y8dcTawh_AJR-12" value="" style="edgeStyle=orthogonalEdgeStyle;rounded=1;orthogonalLoop=1;jettySize=auto;html=1;fontFamily=Georgia;fontSize=14;fontColor=#000000;labelBackgroundColor=default;" edge="1" parent="1" source="8Eoa8-Q0y8dcTawh_AJR-3" target="8Eoa8-Q0y8dcTawh_AJR-11">
          <mxGeometry relative="1" as="geometry" />
        </mxCell>
        <mxCell id="8Eoa8-Q0y8dcTawh_AJR-16" value="Yes" style="edgeLabel;html=1;align=center;verticalAlign=middle;resizable=0;points=[];rounded=1;strokeColor=#BAC8D3;strokeWidth=2;arcSize=14;fontFamily=Georgia;fontSize=14;fontColor=#000000;labelBackgroundColor=default;fillColor=#09555B;gradientColor=none;" connectable="0" vertex="1" parent="8Eoa8-Q0y8dcTawh_AJR-12">
          <mxGeometry x="-0.3592" y="2" relative="1" as="geometry">
            <mxPoint as="offset" />
          </mxGeometry>
        </mxCell>
        <mxCell id="8Eoa8-Q0y8dcTawh_AJR-3" value="Animal ID&lt;div&gt;found?&lt;/div&gt;" style="strokeWidth=2;html=1;shape=mxgraph.flowchart.decision;whiteSpace=wrap;labelBackgroundColor=none;fillColor=#09555B;strokeColor=#BAC8D3;fontColor=#EEEEEE;rounded=1;flipH=1;flipV=1;fontSize=14;fontFamily=Georgia;" vertex="1" parent="1">
          <mxGeometry x="690" y="200" width="115" height="100" as="geometry" />
        </mxCell>
        <mxCell id="8Eoa8-Q0y8dcTawh_AJR-9" value="" style="edgeStyle=orthogonalEdgeStyle;rounded=1;orthogonalLoop=1;jettySize=auto;html=1;fontFamily=Georgia;fontSize=14;fontColor=#000000;labelBackgroundColor=default;" edge="1" parent="1" source="8Eoa8-Q0y8dcTawh_AJR-6" target="8Eoa8-Q0y8dcTawh_AJR-8">
          <mxGeometry relative="1" as="geometry" />
        </mxCell>
        <mxCell id="8Eoa8-Q0y8dcTawh_AJR-6" value="Print&lt;div&gt;&quot;Animal not found&quot;&lt;/div&gt;" style="whiteSpace=wrap;html=1;fontSize=14;fontFamily=Georgia;fillColor=#09555B;strokeColor=#BAC8D3;fontColor=#EEEEEE;strokeWidth=2;labelBackgroundColor=none;rounded=1;" vertex="1" parent="1">
          <mxGeometry x="860" y="220" width="157.5" height="60" as="geometry" />
        </mxCell>
        <mxCell id="8Eoa8-Q0y8dcTawh_AJR-8" value="End" style="strokeWidth=2;html=1;shape=mxgraph.flowchart.start_1;whiteSpace=wrap;labelBackgroundColor=none;fillColor=#09555B;strokeColor=#BAC8D3;fontColor=#EEEEEE;rounded=1;flipH=1;flipV=1;fontSize=14;fontFamily=Georgia;" vertex="1" parent="1">
          <mxGeometry x="1080" y="220" width="100" height="60" as="geometry" />
        </mxCell>
        <mxCell id="8Eoa8-Q0y8dcTawh_AJR-14" value="" style="edgeStyle=orthogonalEdgeStyle;rounded=1;orthogonalLoop=1;jettySize=auto;html=1;fontFamily=Georgia;fontSize=14;fontColor=#000000;labelBackgroundColor=default;" edge="1" parent="1" source="8Eoa8-Q0y8dcTawh_AJR-11" target="8Eoa8-Q0y8dcTawh_AJR-13">
          <mxGeometry relative="1" as="geometry" />
        </mxCell>
        <mxCell id="8Eoa8-Q0y8dcTawh_AJR-11" value="Delete animal&lt;div&gt;from List&amp;lt;Animal&amp;gt;&lt;/div&gt;" style="whiteSpace=wrap;html=1;fontSize=14;fontFamily=Georgia;fillColor=#09555B;strokeColor=#BAC8D3;fontColor=#EEEEEE;strokeWidth=2;labelBackgroundColor=none;rounded=1;" vertex="1" parent="1">
          <mxGeometry x="651.25" y="370" width="192.5" height="60" as="geometry" />
        </mxCell>
        <mxCell id="8Eoa8-Q0y8dcTawh_AJR-15" style="edgeStyle=orthogonalEdgeStyle;rounded=1;orthogonalLoop=1;jettySize=auto;html=1;fontFamily=Georgia;fontSize=14;fontColor=#000000;labelBackgroundColor=default;" edge="1" parent="1" source="8Eoa8-Q0y8dcTawh_AJR-13" target="8Eoa8-Q0y8dcTawh_AJR-8">
          <mxGeometry relative="1" as="geometry" />
        </mxCell>
        <mxCell id="8Eoa8-Q0y8dcTawh_AJR-13" value="Print&amp;nbsp;&lt;div&gt;&quot;Animal delete successfully&quot;&lt;/div&gt;" style="whiteSpace=wrap;html=1;fontSize=14;fontFamily=Georgia;fillColor=#09555B;strokeColor=#BAC8D3;fontColor=#EEEEEE;strokeWidth=2;labelBackgroundColor=none;rounded=1;" vertex="1" parent="1">
          <mxGeometry x="910" y="370" width="192.5" height="60" as="geometry" />
        </mxCell>
      </root>
    </mxGraphModel>
  </diagram>
  <diagram id="VC3Wn4WSSep9wBaWFnB8" name="Search animal">
    <mxGraphModel grid="1" page="0" gridSize="10" guides="1" tooltips="1" connect="1" arrows="1" fold="1" pageScale="1" pageWidth="850" pageHeight="1100" math="0" shadow="0">
      <root>
        <mxCell id="0" />
        <mxCell id="1" parent="0" />
        <mxCell id="m53nAuW-qoxjnB7z6LX1-1" value="" style="edgeStyle=orthogonalEdgeStyle;rounded=1;orthogonalLoop=1;jettySize=auto;html=1;fontFamily=Georgia;fontSize=14;fontColor=#000000;labelBackgroundColor=default;" edge="1" parent="1" source="m53nAuW-qoxjnB7z6LX1-2" target="m53nAuW-qoxjnB7z6LX1-9">
          <mxGeometry relative="1" as="geometry" />
        </mxCell>
        <mxCell id="m53nAuW-qoxjnB7z6LX1-2" value="Input Animal ID" style="shape=parallelogram;html=1;strokeWidth=2;perimeter=parallelogramPerimeter;whiteSpace=wrap;rounded=1;arcSize=12;size=0.23;labelBackgroundColor=none;fillColor=#09555B;strokeColor=#BAC8D3;fontColor=#EEEEEE;flipH=1;flipV=1;fontSize=14;fontFamily=Georgia;" vertex="1" parent="1">
          <mxGeometry x="490" y="220" width="160" height="60" as="geometry" />
        </mxCell>
        <mxCell id="m53nAuW-qoxjnB7z6LX1-3" value="" style="edgeStyle=orthogonalEdgeStyle;rounded=1;orthogonalLoop=1;jettySize=auto;html=1;fontFamily=Georgia;fontSize=14;fontColor=#000000;labelBackgroundColor=default;" edge="1" parent="1" source="m53nAuW-qoxjnB7z6LX1-4" target="m53nAuW-qoxjnB7z6LX1-2">
          <mxGeometry relative="1" as="geometry" />
        </mxCell>
        <mxCell id="m53nAuW-qoxjnB7z6LX1-4" value="Start" style="strokeWidth=2;html=1;shape=mxgraph.flowchart.start_1;whiteSpace=wrap;labelBackgroundColor=none;fillColor=#09555B;strokeColor=#BAC8D3;fontColor=#EEEEEE;rounded=1;flipH=1;flipV=1;fontSize=14;fontFamily=Georgia;" vertex="1" parent="1">
          <mxGeometry x="340" y="220" width="100" height="60" as="geometry" />
        </mxCell>
        <mxCell id="m53nAuW-qoxjnB7z6LX1-5" value="" style="edgeStyle=orthogonalEdgeStyle;rounded=1;orthogonalLoop=1;jettySize=auto;html=1;fontFamily=Georgia;fontSize=14;fontColor=#000000;labelBackgroundColor=default;" edge="1" parent="1" source="m53nAuW-qoxjnB7z6LX1-9" target="m53nAuW-qoxjnB7z6LX1-11">
          <mxGeometry relative="1" as="geometry" />
        </mxCell>
        <mxCell id="m53nAuW-qoxjnB7z6LX1-6" value="No" style="edgeLabel;html=1;align=center;verticalAlign=middle;resizable=0;points=[];rounded=1;strokeColor=#BAC8D3;strokeWidth=2;arcSize=14;fontFamily=Georgia;fontSize=14;fontColor=#000000;labelBackgroundColor=default;fillColor=#09555B;gradientColor=none;" connectable="0" vertex="1" parent="m53nAuW-qoxjnB7z6LX1-5">
          <mxGeometry x="-0.3534" y="1" relative="1" as="geometry">
            <mxPoint as="offset" />
          </mxGeometry>
        </mxCell>
        <mxCell id="m53nAuW-qoxjnB7z6LX1-7" value="" style="edgeStyle=orthogonalEdgeStyle;rounded=1;orthogonalLoop=1;jettySize=auto;html=1;fontFamily=Georgia;fontSize=14;fontColor=#000000;labelBackgroundColor=default;" edge="1" parent="1" source="m53nAuW-qoxjnB7z6LX1-9" target="m53nAuW-qoxjnB7z6LX1-14">
          <mxGeometry relative="1" as="geometry" />
        </mxCell>
        <mxCell id="m53nAuW-qoxjnB7z6LX1-8" value="Yes" style="edgeLabel;html=1;align=center;verticalAlign=middle;resizable=0;points=[];rounded=1;strokeColor=#BAC8D3;strokeWidth=2;arcSize=14;fontFamily=Georgia;fontSize=14;fontColor=#000000;labelBackgroundColor=default;fillColor=#09555B;gradientColor=none;" connectable="0" vertex="1" parent="m53nAuW-qoxjnB7z6LX1-7">
          <mxGeometry x="-0.3592" y="2" relative="1" as="geometry">
            <mxPoint as="offset" />
          </mxGeometry>
        </mxCell>
        <mxCell id="m53nAuW-qoxjnB7z6LX1-9" value="Animal ID&lt;div&gt;found?&lt;/div&gt;" style="strokeWidth=2;html=1;shape=mxgraph.flowchart.decision;whiteSpace=wrap;labelBackgroundColor=none;fillColor=#09555B;strokeColor=#BAC8D3;fontColor=#EEEEEE;rounded=1;flipH=1;flipV=1;fontSize=14;fontFamily=Georgia;" vertex="1" parent="1">
          <mxGeometry x="690" y="200" width="115" height="100" as="geometry" />
        </mxCell>
        <mxCell id="m53nAuW-qoxjnB7z6LX1-10" value="" style="edgeStyle=orthogonalEdgeStyle;rounded=1;orthogonalLoop=1;jettySize=auto;html=1;fontFamily=Georgia;fontSize=14;fontColor=#000000;labelBackgroundColor=default;" edge="1" parent="1" source="m53nAuW-qoxjnB7z6LX1-11" target="m53nAuW-qoxjnB7z6LX1-12">
          <mxGeometry relative="1" as="geometry" />
        </mxCell>
        <mxCell id="m53nAuW-qoxjnB7z6LX1-11" value="Print&lt;div&gt;&quot;Animal not found&quot;&lt;/div&gt;" style="whiteSpace=wrap;html=1;fontSize=14;fontFamily=Georgia;fillColor=#09555B;strokeColor=#BAC8D3;fontColor=#EEEEEE;strokeWidth=2;labelBackgroundColor=none;rounded=1;" vertex="1" parent="1">
          <mxGeometry x="860" y="220" width="157.5" height="60" as="geometry" />
        </mxCell>
        <mxCell id="m53nAuW-qoxjnB7z6LX1-12" value="End" style="strokeWidth=2;html=1;shape=mxgraph.flowchart.start_1;whiteSpace=wrap;labelBackgroundColor=none;fillColor=#09555B;strokeColor=#BAC8D3;fontColor=#EEEEEE;rounded=1;flipH=1;flipV=1;fontSize=14;fontFamily=Georgia;" vertex="1" parent="1">
          <mxGeometry x="1080" y="220" width="100" height="60" as="geometry" />
        </mxCell>
        <mxCell id="m53nAuW-qoxjnB7z6LX1-13" value="" style="edgeStyle=orthogonalEdgeStyle;rounded=1;orthogonalLoop=1;jettySize=auto;html=1;fontFamily=Georgia;fontSize=14;fontColor=#000000;labelBackgroundColor=default;" edge="1" parent="1" source="m53nAuW-qoxjnB7z6LX1-14" target="m53nAuW-qoxjnB7z6LX1-12">
          <mxGeometry relative="1" as="geometry">
            <mxPoint x="910" y="400" as="targetPoint" />
          </mxGeometry>
        </mxCell>
        <mxCell id="m53nAuW-qoxjnB7z6LX1-14" value="Print all information belongs to ID of that animal" style="whiteSpace=wrap;html=1;fontSize=14;fontFamily=Georgia;fillColor=#09555B;strokeColor=#BAC8D3;fontColor=#EEEEEE;strokeWidth=2;labelBackgroundColor=none;rounded=1;" vertex="1" parent="1">
          <mxGeometry x="651.25" y="370" width="192.5" height="60" as="geometry" />
        </mxCell>
      </root>
    </mxGraphModel>
  </diagram>
  <diagram id="bphUyFSHViNZFFtdskG1" name="Borrow book">
    <mxGraphModel grid="1" page="0" gridSize="10" guides="1" tooltips="1" connect="1" arrows="1" fold="1" pageScale="1" pageWidth="850" pageHeight="1100" math="0" shadow="0">
      <root>
        <mxCell id="0" />
        <mxCell id="1" parent="0" />
        <mxCell id="Wkmf-lL5iHWgDxjI5NCm-1" value="" style="edgeStyle=orthogonalEdgeStyle;rounded=1;orthogonalLoop=1;jettySize=auto;html=1;fontFamily=Georgia;fontSize=14;" edge="1" parent="1" source="Wkmf-lL5iHWgDxjI5NCm-2" target="Wkmf-lL5iHWgDxjI5NCm-11">
          <mxGeometry relative="1" as="geometry" />
        </mxCell>
        <mxCell id="Wkmf-lL5iHWgDxjI5NCm-2" value="Start" style="strokeWidth=2;html=1;shape=mxgraph.flowchart.start_1;whiteSpace=wrap;labelBackgroundColor=none;fillColor=#09555B;strokeColor=#BAC8D3;fontColor=#EEEEEE;rounded=1;flipH=1;flipV=1;shadow=0;backgroundOutline=0;direction=east;fontFamily=Georgia;fontSize=14;" vertex="1" parent="1">
          <mxGeometry x="299.99" y="120" width="100" height="60" as="geometry" />
        </mxCell>
        <mxCell id="Wkmf-lL5iHWgDxjI5NCm-3" value="" style="edgeStyle=orthogonalEdgeStyle;rounded=1;orthogonalLoop=1;jettySize=auto;html=1;fontFamily=Georgia;fontSize=14;" edge="1" parent="1" source="Wkmf-lL5iHWgDxjI5NCm-4" target="Wkmf-lL5iHWgDxjI5NCm-50">
          <mxGeometry relative="1" as="geometry">
            <mxPoint x="350" y="480" as="targetPoint" />
          </mxGeometry>
        </mxCell>
        <mxCell id="Wkmf-lL5iHWgDxjI5NCm-4" value="Input Gmail" style="shape=parallelogram;perimeter=parallelogramPerimeter;whiteSpace=wrap;html=1;fixedSize=1;fillColor=#09555B;strokeColor=#BAC8D3;fontColor=#EEEEEE;strokeWidth=2;labelBackgroundColor=none;rounded=1;shadow=0;backgroundOutline=0;direction=east;flipH=1;flipV=1;fontFamily=Georgia;fontSize=14;" vertex="1" parent="1">
          <mxGeometry x="290" y="340" width="120" height="60" as="geometry" />
        </mxCell>
        <mxCell id="Wkmf-lL5iHWgDxjI5NCm-5" value="" style="edgeStyle=orthogonalEdgeStyle;rounded=1;orthogonalLoop=1;jettySize=auto;html=1;fontFamily=Georgia;fontSize=14;" edge="1" parent="1" source="Wkmf-lL5iHWgDxjI5NCm-6" target="Wkmf-lL5iHWgDxjI5NCm-49">
          <mxGeometry relative="1" as="geometry">
            <mxPoint x="540" y="450" as="targetPoint" />
          </mxGeometry>
        </mxCell>
        <mxCell id="Wkmf-lL5iHWgDxjI5NCm-6" value="Input&lt;div&gt;Phone number&lt;/div&gt;" style="shape=parallelogram;perimeter=parallelogramPerimeter;whiteSpace=wrap;html=1;fixedSize=1;fillColor=#09555B;strokeColor=#BAC8D3;fontColor=#EEEEEE;strokeWidth=2;labelBackgroundColor=none;rounded=1;shadow=0;backgroundOutline=0;direction=east;flipH=1;flipV=1;fontFamily=Georgia;fontSize=14;" vertex="1" parent="1">
          <mxGeometry x="475" y="340" width="130" height="60" as="geometry" />
        </mxCell>
        <mxCell id="Wkmf-lL5iHWgDxjI5NCm-11" value="" style="shape=line;html=1;strokeWidth=6;strokeColor=#ff0000;rounded=1;fontFamily=Georgia;fontSize=14;" vertex="1" parent="1">
          <mxGeometry x="156.87" y="250" width="386.25" height="10" as="geometry" />
        </mxCell>
        <mxCell id="Wkmf-lL5iHWgDxjI5NCm-12" value="" style="edgeStyle=orthogonalEdgeStyle;html=1;verticalAlign=bottom;endArrow=open;endSize=8;strokeColor=#ff0000;rounded=1;fontFamily=Georgia;fontSize=14;" edge="1" parent="1" source="Wkmf-lL5iHWgDxjI5NCm-11" target="Wkmf-lL5iHWgDxjI5NCm-14">
          <mxGeometry relative="1" as="geometry">
            <mxPoint y="440" as="targetPoint" />
            <Array as="points" />
            <mxPoint y="260" as="sourcePoint" />
          </mxGeometry>
        </mxCell>
        <mxCell id="Wkmf-lL5iHWgDxjI5NCm-13" value="" style="edgeStyle=orthogonalEdgeStyle;rounded=1;orthogonalLoop=1;jettySize=auto;html=1;fontFamily=Georgia;fontSize=14;" edge="1" parent="1" source="Wkmf-lL5iHWgDxjI5NCm-14" target="Wkmf-lL5iHWgDxjI5NCm-29">
          <mxGeometry relative="1" as="geometry" />
        </mxCell>
        <mxCell id="Wkmf-lL5iHWgDxjI5NCm-14" value="Input Name" style="shape=parallelogram;perimeter=parallelogramPerimeter;whiteSpace=wrap;html=1;fixedSize=1;fillColor=#09555B;strokeColor=#BAC8D3;fontColor=#EEEEEE;strokeWidth=2;labelBackgroundColor=none;rounded=1;shadow=0;backgroundOutline=0;direction=east;flipH=1;flipV=1;fontFamily=Georgia;fontSize=14;" vertex="1" parent="1">
          <mxGeometry x="150" y="340" width="120" height="60" as="geometry" />
        </mxCell>
        <mxCell id="Wkmf-lL5iHWgDxjI5NCm-16" value="" style="edgeStyle=orthogonalEdgeStyle;html=1;verticalAlign=bottom;endArrow=open;endSize=8;strokeColor=#ff0000;rounded=1;exitX=0.501;exitY=0.772;exitDx=0;exitDy=0;exitPerimeter=0;fontFamily=Georgia;fontSize=14;" edge="1" parent="1" source="Wkmf-lL5iHWgDxjI5NCm-11" target="Wkmf-lL5iHWgDxjI5NCm-6">
          <mxGeometry relative="1" as="geometry">
            <mxPoint x="370" y="520" as="targetPoint" />
            <Array as="points">
              <mxPoint x="350" y="300" />
              <mxPoint x="540" y="300" />
            </Array>
            <mxPoint x="660" y="440" as="sourcePoint" />
          </mxGeometry>
        </mxCell>
        <mxCell id="Wkmf-lL5iHWgDxjI5NCm-17" value="" style="edgeStyle=orthogonalEdgeStyle;html=1;verticalAlign=bottom;endArrow=open;endSize=8;strokeColor=#ff0000;rounded=1;exitX=0.5;exitY=0.752;exitDx=0;exitDy=0;exitPerimeter=0;fontFamily=Georgia;fontSize=14;" edge="1" parent="1" source="Wkmf-lL5iHWgDxjI5NCm-11" target="Wkmf-lL5iHWgDxjI5NCm-4">
          <mxGeometry relative="1" as="geometry">
            <mxPoint x="-50" y="540" as="targetPoint" />
            <Array as="points" />
            <mxPoint x="-40" y="280" as="sourcePoint" />
          </mxGeometry>
        </mxCell>
        <mxCell id="Wkmf-lL5iHWgDxjI5NCm-19" style="edgeStyle=orthogonalEdgeStyle;rounded=1;orthogonalLoop=1;jettySize=auto;html=1;fontFamily=Georgia;fontSize=14;strokeColor=#FF0000;" edge="1" parent="1" source="Wkmf-lL5iHWgDxjI5NCm-29">
          <mxGeometry relative="1" as="geometry">
            <mxPoint x="70" y="559.9999999999999" as="sourcePoint" />
            <mxPoint x="350" y="650" as="targetPoint" />
            <Array as="points">
              <mxPoint x="210" y="610" />
              <mxPoint x="350" y="610" />
            </Array>
          </mxGeometry>
        </mxCell>
        <mxCell id="Wkmf-lL5iHWgDxjI5NCm-20" value="No" style="edgeLabel;html=1;align=center;verticalAlign=middle;resizable=0;points=[];rounded=1;fontFamily=Georgia;fontSize=14;" connectable="0" vertex="1" parent="Wkmf-lL5iHWgDxjI5NCm-19">
          <mxGeometry x="-0.9577" y="1" relative="1" as="geometry">
            <mxPoint as="offset" />
          </mxGeometry>
        </mxCell>
        <mxCell id="Wkmf-lL5iHWgDxjI5NCm-21" style="edgeStyle=orthogonalEdgeStyle;rounded=1;orthogonalLoop=1;jettySize=auto;html=1;fontFamily=Georgia;fontSize=14;strokeColor=#FF0000;" edge="1" parent="1" source="Wkmf-lL5iHWgDxjI5NCm-50" target="Wkmf-lL5iHWgDxjI5NCm-44">
          <mxGeometry relative="1" as="geometry">
            <mxPoint x="350" y="560" as="sourcePoint" />
            <mxPoint x="350" y="650" as="targetPoint" />
            <Array as="points" />
          </mxGeometry>
        </mxCell>
        <mxCell id="Wkmf-lL5iHWgDxjI5NCm-22" value="True" style="edgeLabel;html=1;align=center;verticalAlign=middle;resizable=0;points=[];rounded=1;fontFamily=Georgia;fontSize=14;" connectable="0" vertex="1" parent="Wkmf-lL5iHWgDxjI5NCm-21">
          <mxGeometry x="-0.9367" relative="1" as="geometry">
            <mxPoint y="7" as="offset" />
          </mxGeometry>
        </mxCell>
        <mxCell id="Wkmf-lL5iHWgDxjI5NCm-23" style="edgeStyle=orthogonalEdgeStyle;rounded=1;orthogonalLoop=1;jettySize=auto;html=1;fontFamily=Georgia;fontSize=14;strokeColor=#FF0000;" edge="1" parent="1" source="Wkmf-lL5iHWgDxjI5NCm-49" target="Wkmf-lL5iHWgDxjI5NCm-44">
          <mxGeometry relative="1" as="geometry">
            <mxPoint x="540" y="565" as="sourcePoint" />
            <mxPoint x="400" y="605" as="targetPoint" />
            <Array as="points">
              <mxPoint x="540" y="610" />
              <mxPoint x="350" y="610" />
            </Array>
          </mxGeometry>
        </mxCell>
        <mxCell id="Wkmf-lL5iHWgDxjI5NCm-24" value="True" style="edgeLabel;html=1;align=center;verticalAlign=middle;resizable=0;points=[];rounded=1;fontFamily=Georgia;fontSize=14;" connectable="0" vertex="1" parent="Wkmf-lL5iHWgDxjI5NCm-23">
          <mxGeometry x="-0.9443" y="-2" relative="1" as="geometry">
            <mxPoint as="offset" />
          </mxGeometry>
        </mxCell>
        <mxCell id="Wkmf-lL5iHWgDxjI5NCm-27" style="edgeStyle=orthogonalEdgeStyle;rounded=1;orthogonalLoop=1;jettySize=auto;html=1;fontFamily=Georgia;fontSize=14;" edge="1" parent="1" source="Wkmf-lL5iHWgDxjI5NCm-29" target="Wkmf-lL5iHWgDxjI5NCm-14">
          <mxGeometry relative="1" as="geometry">
            <Array as="points">
              <mxPoint x="130" y="510" />
              <mxPoint x="130" y="370" />
            </Array>
          </mxGeometry>
        </mxCell>
        <mxCell id="Wkmf-lL5iHWgDxjI5NCm-28" value="Yes" style="edgeLabel;html=1;align=center;verticalAlign=middle;resizable=0;points=[];rounded=1;fontFamily=Georgia;fontSize=14;" connectable="0" vertex="1" parent="Wkmf-lL5iHWgDxjI5NCm-27">
          <mxGeometry x="-0.8032" y="-3" relative="1" as="geometry">
            <mxPoint as="offset" />
          </mxGeometry>
        </mxCell>
        <mxCell id="Wkmf-lL5iHWgDxjI5NCm-29" value="Is null or empty?" style="rhombus;whiteSpace=wrap;html=1;fillColor=#09555B;strokeColor=#BAC8D3;fontColor=#EEEEEE;strokeWidth=2;labelBackgroundColor=none;rounded=1;shadow=0;fontFamily=Georgia;fontSize=14;" vertex="1" parent="1">
          <mxGeometry x="160" y="470" width="100" height="80" as="geometry" />
        </mxCell>
        <mxCell id="Wkmf-lL5iHWgDxjI5NCm-30" style="edgeStyle=orthogonalEdgeStyle;rounded=1;orthogonalLoop=1;jettySize=auto;html=1;fontFamily=Georgia;fontSize=14;" edge="1" parent="1" source="Wkmf-lL5iHWgDxjI5NCm-50" target="Wkmf-lL5iHWgDxjI5NCm-4">
          <mxGeometry relative="1" as="geometry">
            <Array as="points">
              <mxPoint x="270" y="510" />
              <mxPoint x="270" y="370" />
            </Array>
            <mxPoint x="310" y="520" as="sourcePoint" />
          </mxGeometry>
        </mxCell>
        <mxCell id="Wkmf-lL5iHWgDxjI5NCm-31" value="False" style="edgeLabel;html=1;align=center;verticalAlign=middle;resizable=0;points=[];rounded=1;fontFamily=Georgia;fontSize=14;" connectable="0" vertex="1" parent="Wkmf-lL5iHWgDxjI5NCm-30">
          <mxGeometry x="-0.8333" relative="1" as="geometry">
            <mxPoint as="offset" />
          </mxGeometry>
        </mxCell>
        <mxCell id="Wkmf-lL5iHWgDxjI5NCm-33" style="edgeStyle=orthogonalEdgeStyle;rounded=1;orthogonalLoop=1;jettySize=auto;html=1;fontFamily=Georgia;fontSize=14;" edge="1" parent="1" source="Wkmf-lL5iHWgDxjI5NCm-49" target="Wkmf-lL5iHWgDxjI5NCm-6">
          <mxGeometry relative="1" as="geometry">
            <Array as="points">
              <mxPoint x="430" y="510" />
              <mxPoint x="430" y="370" />
            </Array>
            <mxPoint x="463.47826086956525" y="510" as="sourcePoint" />
          </mxGeometry>
        </mxCell>
        <mxCell id="Wkmf-lL5iHWgDxjI5NCm-34" value="False" style="edgeLabel;html=1;align=center;verticalAlign=middle;resizable=0;points=[];rounded=1;fontFamily=Georgia;fontSize=14;" connectable="0" vertex="1" parent="Wkmf-lL5iHWgDxjI5NCm-33">
          <mxGeometry x="-0.8589" y="-2" relative="1" as="geometry">
            <mxPoint x="-12" y="2" as="offset" />
          </mxGeometry>
        </mxCell>
        <mxCell id="Wkmf-lL5iHWgDxjI5NCm-52" value="" style="edgeStyle=orthogonalEdgeStyle;rounded=1;orthogonalLoop=1;jettySize=auto;html=1;" edge="1" parent="1" source="Wkmf-lL5iHWgDxjI5NCm-40" target="Wkmf-lL5iHWgDxjI5NCm-51">
          <mxGeometry relative="1" as="geometry" />
        </mxCell>
        <mxCell id="Wkmf-lL5iHWgDxjI5NCm-40" value="Add book into cart" style="rounded=1;whiteSpace=wrap;html=1;absoluteArcSize=1;arcSize=14;strokeWidth=2;labelBackgroundColor=none;fillColor=#09555B;strokeColor=#BAC8D3;fontColor=#EEEEEE;flipH=1;flipV=1;fontFamily=Georgia;fontSize=14;" vertex="1" parent="1">
          <mxGeometry x="266.25" y="730" width="167.5" height="60" as="geometry" />
        </mxCell>
        <mxCell id="Wkmf-lL5iHWgDxjI5NCm-43" style="edgeStyle=orthogonalEdgeStyle;rounded=1;orthogonalLoop=1;jettySize=auto;html=1;fontFamily=Georgia;fontSize=14;" edge="1" parent="1" source="Wkmf-lL5iHWgDxjI5NCm-44" target="Wkmf-lL5iHWgDxjI5NCm-40">
          <mxGeometry relative="1" as="geometry" />
        </mxCell>
        <mxCell id="Wkmf-lL5iHWgDxjI5NCm-44" value="" style="shape=line;html=1;strokeWidth=6;strokeColor=#ff0000;rounded=1;fontFamily=Georgia;fontSize=14;" vertex="1" parent="1">
          <mxGeometry x="144.99" y="650" width="410.01" height="10" as="geometry" />
        </mxCell>
        <mxCell id="Wkmf-lL5iHWgDxjI5NCm-45" value="End" style="strokeWidth=2;html=1;shape=mxgraph.flowchart.start_1;whiteSpace=wrap;labelBackgroundColor=none;fillColor=#09555B;strokeColor=#BAC8D3;fontColor=#EEEEEE;rounded=1;flipH=1;flipV=1;shadow=0;backgroundOutline=0;direction=east;fontFamily=Georgia;fontSize=14;" vertex="1" parent="1">
          <mxGeometry x="960" y="730" width="100" height="60" as="geometry" />
        </mxCell>
        <mxCell id="Wkmf-lL5iHWgDxjI5NCm-49" value="Is null or empty?" style="rhombus;whiteSpace=wrap;html=1;fillColor=#09555B;strokeColor=#BAC8D3;fontColor=#EEEEEE;strokeWidth=2;labelBackgroundColor=none;rounded=1;shadow=0;fontFamily=Georgia;fontSize=14;" vertex="1" parent="1">
          <mxGeometry x="490" y="470" width="100" height="80" as="geometry" />
        </mxCell>
        <mxCell id="Wkmf-lL5iHWgDxjI5NCm-50" value="Is null or empty?" style="rhombus;whiteSpace=wrap;html=1;fillColor=#09555B;strokeColor=#BAC8D3;fontColor=#EEEEEE;strokeWidth=2;labelBackgroundColor=none;rounded=1;shadow=0;fontFamily=Georgia;fontSize=14;" vertex="1" parent="1">
          <mxGeometry x="299.99" y="470" width="100" height="80" as="geometry" />
        </mxCell>
        <mxCell id="Wkmf-lL5iHWgDxjI5NCm-53" style="edgeStyle=orthogonalEdgeStyle;rounded=1;orthogonalLoop=1;jettySize=auto;html=1;" edge="1" parent="1" source="Wkmf-lL5iHWgDxjI5NCm-51" target="Wkmf-lL5iHWgDxjI5NCm-40">
          <mxGeometry relative="1" as="geometry">
            <Array as="points">
              <mxPoint x="627" y="680" />
              <mxPoint x="400" y="680" />
            </Array>
          </mxGeometry>
        </mxCell>
        <mxCell id="Wkmf-lL5iHWgDxjI5NCm-55" value="Yes" style="edgeLabel;html=1;align=center;verticalAlign=middle;resizable=0;points=[];rounded=1;strokeColor=#BAC8D3;strokeWidth=2;arcSize=14;fontFamily=Georgia;fontSize=14;fontColor=#000000;labelBackgroundColor=default;fillColor=#09555B;" connectable="0" vertex="1" parent="Wkmf-lL5iHWgDxjI5NCm-53">
          <mxGeometry x="-0.7969" y="5" relative="1" as="geometry">
            <mxPoint as="offset" />
          </mxGeometry>
        </mxCell>
        <mxCell id="4ewQjp-tNn7VYoVdY1zU-2" value="" style="edgeStyle=orthogonalEdgeStyle;rounded=1;orthogonalLoop=1;jettySize=auto;html=1;fontFamily=Georgia;fontSize=14;fontColor=#EEEEEE;labelBackgroundColor=none;" edge="1" parent="1" source="Wkmf-lL5iHWgDxjI5NCm-51" target="4ewQjp-tNn7VYoVdY1zU-1">
          <mxGeometry relative="1" as="geometry" />
        </mxCell>
        <mxCell id="4ewQjp-tNn7VYoVdY1zU-3" value="" style="edgeLabel;html=1;align=center;verticalAlign=middle;resizable=0;points=[];rounded=1;strokeColor=#BAC8D3;strokeWidth=2;arcSize=14;fontFamily=Georgia;fontSize=14;fontColor=#EEEEEE;labelBackgroundColor=none;fillColor=#09555B;" connectable="0" vertex="1" parent="4ewQjp-tNn7VYoVdY1zU-2">
          <mxGeometry x="-0.6605" y="2" relative="1" as="geometry">
            <mxPoint as="offset" />
          </mxGeometry>
        </mxCell>
        <mxCell id="4ewQjp-tNn7VYoVdY1zU-4" value="No" style="edgeLabel;html=1;align=center;verticalAlign=middle;resizable=0;points=[];rounded=1;strokeColor=#BAC8D3;strokeWidth=2;arcSize=14;fontFamily=Georgia;fontSize=14;fontColor=#000000;labelBackgroundColor=default;fillColor=#09555B;gradientColor=none;" connectable="0" vertex="1" parent="4ewQjp-tNn7VYoVdY1zU-2">
          <mxGeometry x="-0.5466" relative="1" as="geometry">
            <mxPoint as="offset" />
          </mxGeometry>
        </mxCell>
        <mxCell id="Wkmf-lL5iHWgDxjI5NCm-51" value="The selected book&amp;nbsp;&lt;div&gt;is borrowed?&lt;/div&gt;" style="rhombus;whiteSpace=wrap;html=1;fontSize=14;fontFamily=Georgia;fillColor=#09555B;strokeColor=#BAC8D3;fontColor=#EEEEEE;rounded=1;arcSize=14;strokeWidth=2;labelBackgroundColor=none;" vertex="1" parent="1">
          <mxGeometry x="543.12" y="705" width="166.88" height="110" as="geometry" />
        </mxCell>
        <mxCell id="4ewQjp-tNn7VYoVdY1zU-5" value="" style="edgeStyle=orthogonalEdgeStyle;rounded=1;orthogonalLoop=1;jettySize=auto;html=1;fontFamily=Georgia;fontSize=14;fontColor=#000000;labelBackgroundColor=default;" edge="1" parent="1" source="4ewQjp-tNn7VYoVdY1zU-1" target="Wkmf-lL5iHWgDxjI5NCm-45">
          <mxGeometry relative="1" as="geometry" />
        </mxCell>
        <mxCell id="4ewQjp-tNn7VYoVdY1zU-1" value="All information is saved into database" style="whiteSpace=wrap;html=1;fontSize=14;fontFamily=Georgia;fillColor=#09555B;strokeColor=#BAC8D3;fontColor=#EEEEEE;rounded=1;arcSize=14;strokeWidth=2;labelBackgroundColor=none;" vertex="1" parent="1">
          <mxGeometry x="780" y="730" width="120" height="60" as="geometry" />
        </mxCell>
      </root>
    </mxGraphModel>
  </diagram>
  <diagram id="N9iFNKHDVIl-D0cQ68fp" name="Create book">
    <mxGraphModel grid="1" page="0" gridSize="10" guides="1" tooltips="1" connect="1" arrows="1" fold="1" pageScale="1" pageWidth="850" pageHeight="1100" math="0" shadow="0">
      <root>
        <mxCell id="0" />
        <mxCell id="1" parent="0" />
        <mxCell id="D9VTWJ_TIJ9Rko47Sczi-1" value="" style="edgeStyle=orthogonalEdgeStyle;rounded=1;orthogonalLoop=1;jettySize=auto;html=1;fontFamily=Georgia;fontSize=14;" edge="1" parent="1" source="D9VTWJ_TIJ9Rko47Sczi-2" target="D9VTWJ_TIJ9Rko47Sczi-7">
          <mxGeometry relative="1" as="geometry" />
        </mxCell>
        <mxCell id="D9VTWJ_TIJ9Rko47Sczi-2" value="Start" style="strokeWidth=2;html=1;shape=mxgraph.flowchart.start_1;whiteSpace=wrap;labelBackgroundColor=none;fillColor=#09555B;strokeColor=#BAC8D3;fontColor=#EEEEEE;rounded=1;flipH=1;flipV=1;shadow=0;backgroundOutline=0;direction=east;fontFamily=Georgia;fontSize=14;" vertex="1" parent="1">
          <mxGeometry x="299.99" y="120" width="100" height="60" as="geometry" />
        </mxCell>
        <mxCell id="D9VTWJ_TIJ9Rko47Sczi-3" value="" style="edgeStyle=orthogonalEdgeStyle;rounded=1;orthogonalLoop=1;jettySize=auto;html=1;fontFamily=Georgia;fontSize=14;" edge="1" parent="1" source="D9VTWJ_TIJ9Rko47Sczi-4" target="D9VTWJ_TIJ9Rko47Sczi-32">
          <mxGeometry relative="1" as="geometry">
            <mxPoint x="370" y="480" as="targetPoint" />
          </mxGeometry>
        </mxCell>
        <mxCell id="D9VTWJ_TIJ9Rko47Sczi-4" value="Input Author name" style="shape=parallelogram;perimeter=parallelogramPerimeter;whiteSpace=wrap;html=1;fixedSize=1;fillColor=#09555B;strokeColor=#BAC8D3;fontColor=#EEEEEE;strokeWidth=2;labelBackgroundColor=none;rounded=1;shadow=0;backgroundOutline=0;direction=east;flipH=1;flipV=1;fontFamily=Georgia;fontSize=14;" vertex="1" parent="1">
          <mxGeometry x="310" y="340" width="120" height="60" as="geometry" />
        </mxCell>
        <mxCell id="D9VTWJ_TIJ9Rko47Sczi-5" value="" style="edgeStyle=orthogonalEdgeStyle;rounded=1;orthogonalLoop=1;jettySize=auto;html=1;fontFamily=Georgia;fontSize=14;" edge="1" parent="1" source="D9VTWJ_TIJ9Rko47Sczi-6" target="D9VTWJ_TIJ9Rko47Sczi-31">
          <mxGeometry relative="1" as="geometry">
            <mxPoint x="540" y="450" as="targetPoint" />
          </mxGeometry>
        </mxCell>
        <mxCell id="D9VTWJ_TIJ9Rko47Sczi-6" value="Input&lt;div&gt;Genre name&lt;/div&gt;" style="shape=parallelogram;perimeter=parallelogramPerimeter;whiteSpace=wrap;html=1;fixedSize=1;fillColor=#09555B;strokeColor=#BAC8D3;fontColor=#EEEEEE;strokeWidth=2;labelBackgroundColor=none;rounded=1;shadow=0;backgroundOutline=0;direction=east;flipH=1;flipV=1;fontFamily=Georgia;fontSize=14;" vertex="1" parent="1">
          <mxGeometry x="482.5" y="340" width="115" height="60" as="geometry" />
        </mxCell>
        <mxCell id="D9VTWJ_TIJ9Rko47Sczi-7" value="" style="shape=line;html=1;strokeWidth=6;strokeColor=#ff0000;rounded=1;fontFamily=Georgia;fontSize=14;" vertex="1" parent="1">
          <mxGeometry x="156.87" y="250" width="386.25" height="10" as="geometry" />
        </mxCell>
        <mxCell id="D9VTWJ_TIJ9Rko47Sczi-8" value="" style="edgeStyle=orthogonalEdgeStyle;html=1;verticalAlign=bottom;endArrow=open;endSize=8;strokeColor=#ff0000;rounded=1;fontFamily=Georgia;fontSize=14;" edge="1" parent="1" source="D9VTWJ_TIJ9Rko47Sczi-7" target="D9VTWJ_TIJ9Rko47Sczi-10">
          <mxGeometry relative="1" as="geometry">
            <mxPoint y="440" as="targetPoint" />
            <Array as="points" />
            <mxPoint y="260" as="sourcePoint" />
          </mxGeometry>
        </mxCell>
        <mxCell id="D9VTWJ_TIJ9Rko47Sczi-9" value="" style="edgeStyle=orthogonalEdgeStyle;rounded=1;orthogonalLoop=1;jettySize=auto;html=1;fontFamily=Georgia;fontSize=14;" edge="1" parent="1" source="D9VTWJ_TIJ9Rko47Sczi-10" target="D9VTWJ_TIJ9Rko47Sczi-21">
          <mxGeometry relative="1" as="geometry" />
        </mxCell>
        <mxCell id="D9VTWJ_TIJ9Rko47Sczi-10" value="Input Title" style="shape=parallelogram;perimeter=parallelogramPerimeter;whiteSpace=wrap;html=1;fixedSize=1;fillColor=#09555B;strokeColor=#BAC8D3;fontColor=#EEEEEE;strokeWidth=2;labelBackgroundColor=none;rounded=1;shadow=0;backgroundOutline=0;direction=east;flipH=1;flipV=1;fontFamily=Georgia;fontSize=14;" vertex="1" parent="1">
          <mxGeometry x="150" y="340" width="120" height="60" as="geometry" />
        </mxCell>
        <mxCell id="D9VTWJ_TIJ9Rko47Sczi-11" value="" style="edgeStyle=orthogonalEdgeStyle;html=1;verticalAlign=bottom;endArrow=open;endSize=8;strokeColor=#ff0000;rounded=1;exitX=0.501;exitY=0.772;exitDx=0;exitDy=0;exitPerimeter=0;fontFamily=Georgia;fontSize=14;" edge="1" parent="1" source="D9VTWJ_TIJ9Rko47Sczi-7" target="D9VTWJ_TIJ9Rko47Sczi-6">
          <mxGeometry relative="1" as="geometry">
            <mxPoint x="370" y="520" as="targetPoint" />
            <Array as="points">
              <mxPoint x="350" y="300" />
              <mxPoint x="540" y="300" />
            </Array>
            <mxPoint x="660" y="440" as="sourcePoint" />
          </mxGeometry>
        </mxCell>
        <mxCell id="D9VTWJ_TIJ9Rko47Sczi-12" value="" style="edgeStyle=orthogonalEdgeStyle;html=1;verticalAlign=bottom;endArrow=open;endSize=8;strokeColor=#ff0000;rounded=1;exitX=0.5;exitY=0.752;exitDx=0;exitDy=0;exitPerimeter=0;fontFamily=Georgia;fontSize=14;" edge="1" parent="1" source="D9VTWJ_TIJ9Rko47Sczi-7" target="D9VTWJ_TIJ9Rko47Sczi-4">
          <mxGeometry relative="1" as="geometry">
            <mxPoint x="-50" y="540" as="targetPoint" />
            <Array as="points" />
            <mxPoint x="-40" y="280" as="sourcePoint" />
          </mxGeometry>
        </mxCell>
        <mxCell id="D9VTWJ_TIJ9Rko47Sczi-13" style="edgeStyle=orthogonalEdgeStyle;rounded=1;orthogonalLoop=1;jettySize=auto;html=1;fontFamily=Georgia;fontSize=14;strokeColor=#FF0000;" edge="1" parent="1" source="D9VTWJ_TIJ9Rko47Sczi-21" target="D9VTWJ_TIJ9Rko47Sczi-29">
          <mxGeometry relative="1" as="geometry">
            <mxPoint x="70" y="559.9999999999999" as="sourcePoint" />
            <mxPoint x="350" y="650" as="targetPoint" />
            <Array as="points">
              <mxPoint x="210" y="610" />
              <mxPoint x="350" y="610" />
            </Array>
          </mxGeometry>
        </mxCell>
        <mxCell id="D9VTWJ_TIJ9Rko47Sczi-14" value="No" style="edgeLabel;html=1;align=center;verticalAlign=middle;resizable=0;points=[];rounded=1;fontFamily=Georgia;fontSize=14;" connectable="0" vertex="1" parent="D9VTWJ_TIJ9Rko47Sczi-13">
          <mxGeometry x="-0.9577" y="1" relative="1" as="geometry">
            <mxPoint as="offset" />
          </mxGeometry>
        </mxCell>
        <mxCell id="D9VTWJ_TIJ9Rko47Sczi-15" style="edgeStyle=orthogonalEdgeStyle;rounded=1;orthogonalLoop=1;jettySize=auto;html=1;fontFamily=Georgia;fontSize=14;strokeColor=#FF0000;" edge="1" parent="1" source="D9VTWJ_TIJ9Rko47Sczi-32" target="D9VTWJ_TIJ9Rko47Sczi-29">
          <mxGeometry relative="1" as="geometry">
            <mxPoint x="350" y="560" as="sourcePoint" />
            <mxPoint x="350" y="650" as="targetPoint" />
            <Array as="points">
              <mxPoint x="370" y="610" />
              <mxPoint x="350" y="610" />
            </Array>
          </mxGeometry>
        </mxCell>
        <mxCell id="D9VTWJ_TIJ9Rko47Sczi-16" value="True" style="edgeLabel;html=1;align=center;verticalAlign=middle;resizable=0;points=[];rounded=1;fontFamily=Georgia;fontSize=14;" connectable="0" vertex="1" parent="D9VTWJ_TIJ9Rko47Sczi-15">
          <mxGeometry x="-0.9367" relative="1" as="geometry">
            <mxPoint y="7" as="offset" />
          </mxGeometry>
        </mxCell>
        <mxCell id="D9VTWJ_TIJ9Rko47Sczi-17" style="edgeStyle=orthogonalEdgeStyle;rounded=1;orthogonalLoop=1;jettySize=auto;html=1;fontFamily=Georgia;fontSize=14;strokeColor=#FF0000;" edge="1" parent="1" source="D9VTWJ_TIJ9Rko47Sczi-31" target="D9VTWJ_TIJ9Rko47Sczi-29">
          <mxGeometry relative="1" as="geometry">
            <mxPoint x="540" y="565" as="sourcePoint" />
            <mxPoint x="400" y="605" as="targetPoint" />
            <Array as="points">
              <mxPoint x="540" y="610" />
              <mxPoint x="350" y="610" />
            </Array>
          </mxGeometry>
        </mxCell>
        <mxCell id="D9VTWJ_TIJ9Rko47Sczi-18" value="True" style="edgeLabel;html=1;align=center;verticalAlign=middle;resizable=0;points=[];rounded=1;fontFamily=Georgia;fontSize=14;" connectable="0" vertex="1" parent="D9VTWJ_TIJ9Rko47Sczi-17">
          <mxGeometry x="-0.9443" y="-2" relative="1" as="geometry">
            <mxPoint as="offset" />
          </mxGeometry>
        </mxCell>
        <mxCell id="D9VTWJ_TIJ9Rko47Sczi-19" style="edgeStyle=orthogonalEdgeStyle;rounded=1;orthogonalLoop=1;jettySize=auto;html=1;fontFamily=Georgia;fontSize=14;" edge="1" parent="1" source="D9VTWJ_TIJ9Rko47Sczi-21" target="D9VTWJ_TIJ9Rko47Sczi-10">
          <mxGeometry relative="1" as="geometry">
            <Array as="points">
              <mxPoint x="130" y="510" />
              <mxPoint x="130" y="370" />
            </Array>
          </mxGeometry>
        </mxCell>
        <mxCell id="D9VTWJ_TIJ9Rko47Sczi-20" value="Yes" style="edgeLabel;html=1;align=center;verticalAlign=middle;resizable=0;points=[];rounded=1;fontFamily=Georgia;fontSize=14;" connectable="0" vertex="1" parent="D9VTWJ_TIJ9Rko47Sczi-19">
          <mxGeometry x="-0.8032" y="-3" relative="1" as="geometry">
            <mxPoint as="offset" />
          </mxGeometry>
        </mxCell>
        <mxCell id="D9VTWJ_TIJ9Rko47Sczi-21" value="Is null or empty?" style="rhombus;whiteSpace=wrap;html=1;fillColor=#09555B;strokeColor=#BAC8D3;fontColor=#EEEEEE;strokeWidth=2;labelBackgroundColor=none;rounded=1;shadow=0;fontFamily=Georgia;fontSize=14;" vertex="1" parent="1">
          <mxGeometry x="160" y="470" width="100" height="80" as="geometry" />
        </mxCell>
        <mxCell id="D9VTWJ_TIJ9Rko47Sczi-22" style="edgeStyle=orthogonalEdgeStyle;rounded=1;orthogonalLoop=1;jettySize=auto;html=1;fontFamily=Georgia;fontSize=14;" edge="1" parent="1" source="D9VTWJ_TIJ9Rko47Sczi-32" target="D9VTWJ_TIJ9Rko47Sczi-4">
          <mxGeometry relative="1" as="geometry">
            <Array as="points">
              <mxPoint x="290" y="510" />
              <mxPoint x="290" y="370" />
            </Array>
            <mxPoint x="330" y="520" as="sourcePoint" />
          </mxGeometry>
        </mxCell>
        <mxCell id="D9VTWJ_TIJ9Rko47Sczi-23" value="False" style="edgeLabel;html=1;align=center;verticalAlign=middle;resizable=0;points=[];rounded=1;fontFamily=Georgia;fontSize=14;" connectable="0" vertex="1" parent="D9VTWJ_TIJ9Rko47Sczi-22">
          <mxGeometry x="-0.8333" relative="1" as="geometry">
            <mxPoint as="offset" />
          </mxGeometry>
        </mxCell>
        <mxCell id="D9VTWJ_TIJ9Rko47Sczi-24" style="edgeStyle=orthogonalEdgeStyle;rounded=1;orthogonalLoop=1;jettySize=auto;html=1;fontFamily=Georgia;fontSize=14;" edge="1" parent="1" source="D9VTWJ_TIJ9Rko47Sczi-31" target="D9VTWJ_TIJ9Rko47Sczi-6">
          <mxGeometry relative="1" as="geometry">
            <Array as="points">
              <mxPoint x="460" y="510" />
              <mxPoint x="460" y="370" />
            </Array>
            <mxPoint x="463.47826086956525" y="510" as="sourcePoint" />
          </mxGeometry>
        </mxCell>
        <mxCell id="D9VTWJ_TIJ9Rko47Sczi-25" value="False" style="edgeLabel;html=1;align=center;verticalAlign=middle;resizable=0;points=[];rounded=1;fontFamily=Georgia;fontSize=14;" connectable="0" vertex="1" parent="D9VTWJ_TIJ9Rko47Sczi-24">
          <mxGeometry x="-0.8589" y="-2" relative="1" as="geometry">
            <mxPoint x="-12" y="2" as="offset" />
          </mxGeometry>
        </mxCell>
        <mxCell id="D9VTWJ_TIJ9Rko47Sczi-28" style="edgeStyle=orthogonalEdgeStyle;rounded=1;orthogonalLoop=1;jettySize=auto;html=1;fontFamily=Georgia;fontSize=14;" edge="1" parent="1" source="D9VTWJ_TIJ9Rko47Sczi-29" target="D9VTWJ_TIJ9Rko47Sczi-44">
          <mxGeometry relative="1" as="geometry">
            <mxPoint x="349.9310344827587" y="720" as="targetPoint" />
          </mxGeometry>
        </mxCell>
        <mxCell id="D9VTWJ_TIJ9Rko47Sczi-29" value="" style="shape=line;html=1;strokeWidth=6;strokeColor=#ff0000;rounded=1;fontFamily=Georgia;fontSize=14;" vertex="1" parent="1">
          <mxGeometry x="144.98000000000002" y="650" width="410.01" height="10" as="geometry" />
        </mxCell>
        <mxCell id="D9VTWJ_TIJ9Rko47Sczi-31" value="Is null or empty?" style="rhombus;whiteSpace=wrap;html=1;fillColor=#09555B;strokeColor=#BAC8D3;fontColor=#EEEEEE;strokeWidth=2;labelBackgroundColor=none;rounded=1;shadow=0;fontFamily=Georgia;fontSize=14;" vertex="1" parent="1">
          <mxGeometry x="490" y="470" width="100" height="80" as="geometry" />
        </mxCell>
        <mxCell id="D9VTWJ_TIJ9Rko47Sczi-32" value="Is null or empty?" style="rhombus;whiteSpace=wrap;html=1;fillColor=#09555B;strokeColor=#BAC8D3;fontColor=#EEEEEE;strokeWidth=2;labelBackgroundColor=none;rounded=1;shadow=0;fontFamily=Georgia;fontSize=14;" vertex="1" parent="1">
          <mxGeometry x="319.99" y="470" width="100" height="80" as="geometry" />
        </mxCell>
        <mxCell id="O14b13cDuBI_BOdCrv8I-2" value="" style="edgeStyle=orthogonalEdgeStyle;rounded=1;orthogonalLoop=1;jettySize=auto;html=1;fontFamily=Georgia;fontSize=14;fontColor=#000000;labelBackgroundColor=default;" edge="1" parent="1" source="D9VTWJ_TIJ9Rko47Sczi-44" target="O14b13cDuBI_BOdCrv8I-1">
          <mxGeometry relative="1" as="geometry" />
        </mxCell>
        <mxCell id="D9VTWJ_TIJ9Rko47Sczi-44" value="&lt;font color=&quot;#ffffff&quot;&gt;&lt;span style=&quot;background-color: rgb(9, 85, 91);&quot;&gt;Add book into database&lt;/span&gt;&lt;/font&gt;" style="shape=cylinder3;whiteSpace=wrap;html=1;boundedLbl=1;backgroundOutline=1;size=15;rounded=1;strokeColor=#BAC8D3;strokeWidth=2;align=center;verticalAlign=middle;arcSize=14;fontFamily=Georgia;fontSize=14;fontColor=#000000;labelBackgroundColor=default;fillColor=#09555B;gradientColor=none;" vertex="1" parent="1">
          <mxGeometry x="264.99" y="700" width="170" height="80" as="geometry" />
        </mxCell>
        <mxCell id="O14b13cDuBI_BOdCrv8I-1" value="End" style="strokeWidth=2;html=1;shape=mxgraph.flowchart.start_1;whiteSpace=wrap;labelBackgroundColor=none;fillColor=#09555B;strokeColor=#BAC8D3;fontColor=#EEEEEE;rounded=1;flipH=1;flipV=1;shadow=0;backgroundOutline=0;direction=east;fontFamily=Georgia;fontSize=14;" vertex="1" parent="1">
          <mxGeometry x="299.99" y="820" width="100" height="60" as="geometry" />
        </mxCell>
      </root>
    </mxGraphModel>
  </diagram>
  <diagram id="rDpIC6V695WSAswspacF" name="Update book">
    <mxGraphModel grid="1" page="0" gridSize="10" guides="1" tooltips="1" connect="1" arrows="1" fold="1" pageScale="1" pageWidth="850" pageHeight="1100" math="0" shadow="0">
      <root>
        <mxCell id="0" />
        <mxCell id="1" parent="0" />
        <mxCell id="r0I2UdG9z38PmZHmaSYA-33" value="" style="edgeStyle=orthogonalEdgeStyle;rounded=1;orthogonalLoop=1;jettySize=auto;html=1;fontFamily=Georgia;fontSize=14;" edge="1" parent="1" source="2xNeuplacp_4m-XfewJ_-3" target="r0I2UdG9z38PmZHmaSYA-39">
          <mxGeometry relative="1" as="geometry">
            <mxPoint x="359.9655172413793" y="189.9999999999999" as="sourcePoint" />
          </mxGeometry>
        </mxCell>
        <mxCell id="r0I2UdG9z38PmZHmaSYA-34" value="Start" style="strokeWidth=2;html=1;shape=mxgraph.flowchart.start_1;whiteSpace=wrap;labelBackgroundColor=none;fillColor=#09555B;strokeColor=#BAC8D3;fontColor=#EEEEEE;rounded=1;flipH=1;flipV=1;shadow=0;backgroundOutline=0;direction=east;fontFamily=Georgia;fontSize=14;" vertex="1" parent="1">
          <mxGeometry x="90" y="130" width="100" height="60" as="geometry" />
        </mxCell>
        <mxCell id="r0I2UdG9z38PmZHmaSYA-35" value="" style="edgeStyle=orthogonalEdgeStyle;rounded=1;orthogonalLoop=1;jettySize=auto;html=1;fontFamily=Georgia;fontSize=14;" edge="1" parent="1" source="r0I2UdG9z38PmZHmaSYA-36" target="r0I2UdG9z38PmZHmaSYA-61">
          <mxGeometry relative="1" as="geometry">
            <mxPoint x="380" y="490" as="targetPoint" />
          </mxGeometry>
        </mxCell>
        <mxCell id="r0I2UdG9z38PmZHmaSYA-36" value="Input Author name" style="shape=parallelogram;perimeter=parallelogramPerimeter;whiteSpace=wrap;html=1;fixedSize=1;fillColor=#09555B;strokeColor=#BAC8D3;fontColor=#EEEEEE;strokeWidth=2;labelBackgroundColor=none;rounded=1;shadow=0;backgroundOutline=0;direction=east;flipH=1;flipV=1;fontFamily=Georgia;fontSize=14;" vertex="1" parent="1">
          <mxGeometry x="320" y="350" width="120" height="60" as="geometry" />
        </mxCell>
        <mxCell id="r0I2UdG9z38PmZHmaSYA-37" value="" style="edgeStyle=orthogonalEdgeStyle;rounded=1;orthogonalLoop=1;jettySize=auto;html=1;fontFamily=Georgia;fontSize=14;" edge="1" parent="1" source="r0I2UdG9z38PmZHmaSYA-38" target="r0I2UdG9z38PmZHmaSYA-60">
          <mxGeometry relative="1" as="geometry">
            <mxPoint x="550" y="460" as="targetPoint" />
          </mxGeometry>
        </mxCell>
        <mxCell id="r0I2UdG9z38PmZHmaSYA-38" value="Input&lt;div&gt;Genre name&lt;/div&gt;" style="shape=parallelogram;perimeter=parallelogramPerimeter;whiteSpace=wrap;html=1;fixedSize=1;fillColor=#09555B;strokeColor=#BAC8D3;fontColor=#EEEEEE;strokeWidth=2;labelBackgroundColor=none;rounded=1;shadow=0;backgroundOutline=0;direction=east;flipH=1;flipV=1;fontFamily=Georgia;fontSize=14;" vertex="1" parent="1">
          <mxGeometry x="492.5" y="350" width="115" height="60" as="geometry" />
        </mxCell>
        <mxCell id="r0I2UdG9z38PmZHmaSYA-39" value="" style="shape=line;html=1;strokeWidth=6;strokeColor=#ff0000;rounded=1;fontFamily=Georgia;fontSize=14;" vertex="1" parent="1">
          <mxGeometry x="166.87" y="260" width="386.25" height="10" as="geometry" />
        </mxCell>
        <mxCell id="r0I2UdG9z38PmZHmaSYA-40" value="" style="edgeStyle=orthogonalEdgeStyle;html=1;verticalAlign=bottom;endArrow=open;endSize=8;strokeColor=#ff0000;rounded=1;fontFamily=Georgia;fontSize=14;" edge="1" parent="1" source="r0I2UdG9z38PmZHmaSYA-39" target="r0I2UdG9z38PmZHmaSYA-42">
          <mxGeometry relative="1" as="geometry">
            <mxPoint x="10" y="450" as="targetPoint" />
            <Array as="points" />
            <mxPoint x="10" y="270" as="sourcePoint" />
          </mxGeometry>
        </mxCell>
        <mxCell id="r0I2UdG9z38PmZHmaSYA-41" value="" style="edgeStyle=orthogonalEdgeStyle;rounded=1;orthogonalLoop=1;jettySize=auto;html=1;fontFamily=Georgia;fontSize=14;" edge="1" parent="1" source="r0I2UdG9z38PmZHmaSYA-42" target="r0I2UdG9z38PmZHmaSYA-53">
          <mxGeometry relative="1" as="geometry" />
        </mxCell>
        <mxCell id="r0I2UdG9z38PmZHmaSYA-42" value="Input Title" style="shape=parallelogram;perimeter=parallelogramPerimeter;whiteSpace=wrap;html=1;fixedSize=1;fillColor=#09555B;strokeColor=#BAC8D3;fontColor=#EEEEEE;strokeWidth=2;labelBackgroundColor=none;rounded=1;shadow=0;backgroundOutline=0;direction=east;flipH=1;flipV=1;fontFamily=Georgia;fontSize=14;" vertex="1" parent="1">
          <mxGeometry x="160" y="350" width="120" height="60" as="geometry" />
        </mxCell>
        <mxCell id="r0I2UdG9z38PmZHmaSYA-43" value="" style="edgeStyle=orthogonalEdgeStyle;html=1;verticalAlign=bottom;endArrow=open;endSize=8;strokeColor=#ff0000;rounded=1;exitX=0.501;exitY=0.772;exitDx=0;exitDy=0;exitPerimeter=0;fontFamily=Georgia;fontSize=14;" edge="1" parent="1" source="r0I2UdG9z38PmZHmaSYA-39" target="r0I2UdG9z38PmZHmaSYA-38">
          <mxGeometry relative="1" as="geometry">
            <mxPoint x="380" y="530" as="targetPoint" />
            <Array as="points">
              <mxPoint x="360" y="310" />
              <mxPoint x="550" y="310" />
            </Array>
            <mxPoint x="670" y="450" as="sourcePoint" />
          </mxGeometry>
        </mxCell>
        <mxCell id="r0I2UdG9z38PmZHmaSYA-44" value="" style="edgeStyle=orthogonalEdgeStyle;html=1;verticalAlign=bottom;endArrow=open;endSize=8;strokeColor=#ff0000;rounded=1;exitX=0.5;exitY=0.752;exitDx=0;exitDy=0;exitPerimeter=0;fontFamily=Georgia;fontSize=14;" edge="1" parent="1" source="r0I2UdG9z38PmZHmaSYA-39" target="r0I2UdG9z38PmZHmaSYA-36">
          <mxGeometry relative="1" as="geometry">
            <mxPoint x="-40" y="550" as="targetPoint" />
            <Array as="points" />
            <mxPoint x="-30" y="290" as="sourcePoint" />
          </mxGeometry>
        </mxCell>
        <mxCell id="r0I2UdG9z38PmZHmaSYA-45" style="edgeStyle=orthogonalEdgeStyle;rounded=1;orthogonalLoop=1;jettySize=auto;html=1;fontFamily=Georgia;fontSize=14;strokeColor=#FF0000;" edge="1" parent="1" source="r0I2UdG9z38PmZHmaSYA-53" target="r0I2UdG9z38PmZHmaSYA-59">
          <mxGeometry relative="1" as="geometry">
            <mxPoint x="80" y="569.9999999999999" as="sourcePoint" />
            <mxPoint x="360" y="660" as="targetPoint" />
            <Array as="points">
              <mxPoint x="220" y="620" />
              <mxPoint x="360" y="620" />
            </Array>
          </mxGeometry>
        </mxCell>
        <mxCell id="r0I2UdG9z38PmZHmaSYA-46" value="No" style="edgeLabel;html=1;align=center;verticalAlign=middle;resizable=0;points=[];rounded=1;fontFamily=Georgia;fontSize=14;" connectable="0" vertex="1" parent="r0I2UdG9z38PmZHmaSYA-45">
          <mxGeometry x="-0.9577" y="1" relative="1" as="geometry">
            <mxPoint as="offset" />
          </mxGeometry>
        </mxCell>
        <mxCell id="r0I2UdG9z38PmZHmaSYA-47" style="edgeStyle=orthogonalEdgeStyle;rounded=1;orthogonalLoop=1;jettySize=auto;html=1;fontFamily=Georgia;fontSize=14;strokeColor=#FF0000;" edge="1" parent="1" source="r0I2UdG9z38PmZHmaSYA-61" target="r0I2UdG9z38PmZHmaSYA-59">
          <mxGeometry relative="1" as="geometry">
            <mxPoint x="360" y="570" as="sourcePoint" />
            <mxPoint x="360" y="660" as="targetPoint" />
            <Array as="points">
              <mxPoint x="380" y="620" />
              <mxPoint x="360" y="620" />
            </Array>
          </mxGeometry>
        </mxCell>
        <mxCell id="r0I2UdG9z38PmZHmaSYA-48" value="True" style="edgeLabel;html=1;align=center;verticalAlign=middle;resizable=0;points=[];rounded=1;fontFamily=Georgia;fontSize=14;" connectable="0" vertex="1" parent="r0I2UdG9z38PmZHmaSYA-47">
          <mxGeometry x="-0.9367" relative="1" as="geometry">
            <mxPoint y="7" as="offset" />
          </mxGeometry>
        </mxCell>
        <mxCell id="r0I2UdG9z38PmZHmaSYA-49" style="edgeStyle=orthogonalEdgeStyle;rounded=1;orthogonalLoop=1;jettySize=auto;html=1;fontFamily=Georgia;fontSize=14;strokeColor=#FF0000;" edge="1" parent="1" source="r0I2UdG9z38PmZHmaSYA-60" target="r0I2UdG9z38PmZHmaSYA-59">
          <mxGeometry relative="1" as="geometry">
            <mxPoint x="550" y="575" as="sourcePoint" />
            <mxPoint x="410" y="615" as="targetPoint" />
            <Array as="points">
              <mxPoint x="550" y="620" />
              <mxPoint x="360" y="620" />
            </Array>
          </mxGeometry>
        </mxCell>
        <mxCell id="r0I2UdG9z38PmZHmaSYA-50" value="True" style="edgeLabel;html=1;align=center;verticalAlign=middle;resizable=0;points=[];rounded=1;fontFamily=Georgia;fontSize=14;" connectable="0" vertex="1" parent="r0I2UdG9z38PmZHmaSYA-49">
          <mxGeometry x="-0.9443" y="-2" relative="1" as="geometry">
            <mxPoint as="offset" />
          </mxGeometry>
        </mxCell>
        <mxCell id="r0I2UdG9z38PmZHmaSYA-51" style="edgeStyle=orthogonalEdgeStyle;rounded=1;orthogonalLoop=1;jettySize=auto;html=1;fontFamily=Georgia;fontSize=14;" edge="1" parent="1" source="r0I2UdG9z38PmZHmaSYA-53" target="r0I2UdG9z38PmZHmaSYA-42">
          <mxGeometry relative="1" as="geometry">
            <Array as="points">
              <mxPoint x="140" y="520" />
              <mxPoint x="140" y="380" />
            </Array>
          </mxGeometry>
        </mxCell>
        <mxCell id="r0I2UdG9z38PmZHmaSYA-52" value="Yes" style="edgeLabel;html=1;align=center;verticalAlign=middle;resizable=0;points=[];rounded=1;fontFamily=Georgia;fontSize=14;" connectable="0" vertex="1" parent="r0I2UdG9z38PmZHmaSYA-51">
          <mxGeometry x="-0.8032" y="-3" relative="1" as="geometry">
            <mxPoint as="offset" />
          </mxGeometry>
        </mxCell>
        <mxCell id="r0I2UdG9z38PmZHmaSYA-53" value="Is null or empty?" style="rhombus;whiteSpace=wrap;html=1;fillColor=#09555B;strokeColor=#BAC8D3;fontColor=#EEEEEE;strokeWidth=2;labelBackgroundColor=none;rounded=1;shadow=0;fontFamily=Georgia;fontSize=14;" vertex="1" parent="1">
          <mxGeometry x="170" y="480" width="100" height="80" as="geometry" />
        </mxCell>
        <mxCell id="r0I2UdG9z38PmZHmaSYA-54" style="edgeStyle=orthogonalEdgeStyle;rounded=1;orthogonalLoop=1;jettySize=auto;html=1;fontFamily=Georgia;fontSize=14;" edge="1" parent="1" source="r0I2UdG9z38PmZHmaSYA-61" target="r0I2UdG9z38PmZHmaSYA-36">
          <mxGeometry relative="1" as="geometry">
            <Array as="points">
              <mxPoint x="300" y="520" />
              <mxPoint x="300" y="380" />
            </Array>
            <mxPoint x="340" y="530" as="sourcePoint" />
          </mxGeometry>
        </mxCell>
        <mxCell id="r0I2UdG9z38PmZHmaSYA-55" value="False" style="edgeLabel;html=1;align=center;verticalAlign=middle;resizable=0;points=[];rounded=1;fontFamily=Georgia;fontSize=14;" connectable="0" vertex="1" parent="r0I2UdG9z38PmZHmaSYA-54">
          <mxGeometry x="-0.8333" relative="1" as="geometry">
            <mxPoint as="offset" />
          </mxGeometry>
        </mxCell>
        <mxCell id="r0I2UdG9z38PmZHmaSYA-56" style="edgeStyle=orthogonalEdgeStyle;rounded=1;orthogonalLoop=1;jettySize=auto;html=1;fontFamily=Georgia;fontSize=14;" edge="1" parent="1" source="r0I2UdG9z38PmZHmaSYA-60" target="r0I2UdG9z38PmZHmaSYA-38">
          <mxGeometry relative="1" as="geometry">
            <Array as="points">
              <mxPoint x="470" y="520" />
              <mxPoint x="470" y="380" />
            </Array>
            <mxPoint x="473.47826086956525" y="520" as="sourcePoint" />
          </mxGeometry>
        </mxCell>
        <mxCell id="r0I2UdG9z38PmZHmaSYA-57" value="False" style="edgeLabel;html=1;align=center;verticalAlign=middle;resizable=0;points=[];rounded=1;fontFamily=Georgia;fontSize=14;" connectable="0" vertex="1" parent="r0I2UdG9z38PmZHmaSYA-56">
          <mxGeometry x="-0.8589" y="-2" relative="1" as="geometry">
            <mxPoint x="-12" y="2" as="offset" />
          </mxGeometry>
        </mxCell>
        <mxCell id="r0I2UdG9z38PmZHmaSYA-58" style="edgeStyle=orthogonalEdgeStyle;rounded=1;orthogonalLoop=1;jettySize=auto;html=1;fontFamily=Georgia;fontSize=14;" edge="1" parent="1" source="r0I2UdG9z38PmZHmaSYA-59" target="r0I2UdG9z38PmZHmaSYA-65">
          <mxGeometry relative="1" as="geometry">
            <mxPoint x="359.9310344827587" y="730" as="targetPoint" />
          </mxGeometry>
        </mxCell>
        <mxCell id="r0I2UdG9z38PmZHmaSYA-59" value="" style="shape=line;html=1;strokeWidth=6;strokeColor=#ff0000;rounded=1;fontFamily=Georgia;fontSize=14;" vertex="1" parent="1">
          <mxGeometry x="154.98000000000002" y="660" width="410.01" height="10" as="geometry" />
        </mxCell>
        <mxCell id="r0I2UdG9z38PmZHmaSYA-60" value="Is null or empty?" style="rhombus;whiteSpace=wrap;html=1;fillColor=#09555B;strokeColor=#BAC8D3;fontColor=#EEEEEE;strokeWidth=2;labelBackgroundColor=none;rounded=1;shadow=0;fontFamily=Georgia;fontSize=14;" vertex="1" parent="1">
          <mxGeometry x="500" y="480" width="100" height="80" as="geometry" />
        </mxCell>
        <mxCell id="r0I2UdG9z38PmZHmaSYA-61" value="Is null or empty?" style="rhombus;whiteSpace=wrap;html=1;fillColor=#09555B;strokeColor=#BAC8D3;fontColor=#EEEEEE;strokeWidth=2;labelBackgroundColor=none;rounded=1;shadow=0;fontFamily=Georgia;fontSize=14;" vertex="1" parent="1">
          <mxGeometry x="329.99" y="480" width="100" height="80" as="geometry" />
        </mxCell>
        <mxCell id="r0I2UdG9z38PmZHmaSYA-64" value="End" style="strokeWidth=2;html=1;shape=mxgraph.flowchart.start_1;whiteSpace=wrap;labelBackgroundColor=none;fillColor=#09555B;strokeColor=#BAC8D3;fontColor=#EEEEEE;rounded=1;flipH=1;flipV=1;shadow=0;backgroundOutline=0;direction=east;fontFamily=Georgia;fontSize=14;" vertex="1" parent="1">
          <mxGeometry x="310" y="970" width="100" height="60" as="geometry" />
        </mxCell>
        <mxCell id="r0I2UdG9z38PmZHmaSYA-72" value="" style="edgeStyle=orthogonalEdgeStyle;rounded=1;orthogonalLoop=1;jettySize=auto;html=1;fontFamily=Georgia;fontSize=14;fontColor=#000000;labelBackgroundColor=default;" edge="1" parent="1" source="r0I2UdG9z38PmZHmaSYA-65" target="r0I2UdG9z38PmZHmaSYA-71">
          <mxGeometry relative="1" as="geometry" />
        </mxCell>
        <mxCell id="r0I2UdG9z38PmZHmaSYA-77" value="No" style="edgeLabel;html=1;align=center;verticalAlign=middle;resizable=0;points=[];rounded=1;strokeColor=#BAC8D3;strokeWidth=2;arcSize=14;fontFamily=Georgia;fontSize=14;fontColor=#000000;labelBackgroundColor=default;fillColor=#09555B;gradientColor=none;" connectable="0" vertex="1" parent="r0I2UdG9z38PmZHmaSYA-72">
          <mxGeometry x="-0.4463" y="1" relative="1" as="geometry">
            <mxPoint as="offset" />
          </mxGeometry>
        </mxCell>
        <mxCell id="r0I2UdG9z38PmZHmaSYA-74" value="" style="edgeStyle=orthogonalEdgeStyle;rounded=1;orthogonalLoop=1;jettySize=auto;html=1;fontFamily=Georgia;fontSize=14;fontColor=#000000;labelBackgroundColor=default;" edge="1" parent="1" source="r0I2UdG9z38PmZHmaSYA-65" target="r0I2UdG9z38PmZHmaSYA-73">
          <mxGeometry relative="1" as="geometry" />
        </mxCell>
        <mxCell id="2xNeuplacp_4m-XfewJ_-5" value="Yes" style="edgeLabel;html=1;align=center;verticalAlign=middle;resizable=0;points=[];rounded=1;strokeColor=#BAC8D3;strokeWidth=2;arcSize=14;fontFamily=Georgia;fontSize=14;fontColor=#000000;labelBackgroundColor=default;fillColor=#09555B;gradientColor=none;" connectable="0" vertex="1" parent="r0I2UdG9z38PmZHmaSYA-74">
          <mxGeometry x="-0.8074" y="1" relative="1" as="geometry">
            <mxPoint as="offset" />
          </mxGeometry>
        </mxCell>
        <mxCell id="r0I2UdG9z38PmZHmaSYA-65" value="Unmark the borrow checkbox" style="rhombus;whiteSpace=wrap;html=1;fillColor=#09555B;strokeColor=#BAC8D3;fontColor=#EEEEEE;strokeWidth=2;labelBackgroundColor=none;rounded=1;shadow=0;fontFamily=Georgia;fontSize=14;" vertex="1" parent="1">
          <mxGeometry x="284.99" y="700" width="150" height="110" as="geometry" />
        </mxCell>
        <mxCell id="r0I2UdG9z38PmZHmaSYA-76" style="edgeStyle=orthogonalEdgeStyle;rounded=1;orthogonalLoop=1;jettySize=auto;html=1;fontFamily=Georgia;fontSize=14;fontColor=#000000;labelBackgroundColor=default;" edge="1" parent="1" source="r0I2UdG9z38PmZHmaSYA-71" target="r0I2UdG9z38PmZHmaSYA-64">
          <mxGeometry relative="1" as="geometry" />
        </mxCell>
        <mxCell id="r0I2UdG9z38PmZHmaSYA-71" value="Just update book information" style="whiteSpace=wrap;html=1;fontSize=14;fontFamily=Georgia;fillColor=#09555B;strokeColor=#BAC8D3;fontColor=#EEEEEE;strokeWidth=2;labelBackgroundColor=none;rounded=1;shadow=0;" vertex="1" parent="1">
          <mxGeometry x="299.99" y="850" width="120" height="60" as="geometry" />
        </mxCell>
        <mxCell id="r0I2UdG9z38PmZHmaSYA-75" style="edgeStyle=orthogonalEdgeStyle;rounded=1;orthogonalLoop=1;jettySize=auto;html=1;fontFamily=Georgia;fontSize=14;fontColor=#000000;labelBackgroundColor=default;" edge="1" parent="1" source="r0I2UdG9z38PmZHmaSYA-73" target="r0I2UdG9z38PmZHmaSYA-64">
          <mxGeometry relative="1" as="geometry">
            <Array as="points">
              <mxPoint x="580" y="1000" />
            </Array>
          </mxGeometry>
        </mxCell>
        <mxCell id="r0I2UdG9z38PmZHmaSYA-73" value="Update book info and student info becomes NULL&amp;nbsp;" style="whiteSpace=wrap;html=1;fontSize=14;fontFamily=Georgia;fillColor=#09555B;strokeColor=#BAC8D3;fontColor=#EEEEEE;strokeWidth=2;labelBackgroundColor=none;rounded=1;shadow=0;" vertex="1" parent="1">
          <mxGeometry x="520" y="850" width="120" height="60" as="geometry" />
        </mxCell>
        <mxCell id="2xNeuplacp_4m-XfewJ_-2" value="" style="edgeStyle=orthogonalEdgeStyle;rounded=1;orthogonalLoop=1;jettySize=auto;html=1;fontFamily=Georgia;fontSize=14;" edge="1" parent="1" source="r0I2UdG9z38PmZHmaSYA-34" target="2xNeuplacp_4m-XfewJ_-3">
          <mxGeometry relative="1" as="geometry">
            <mxPoint x="110" y="160" as="sourcePoint" />
            <mxPoint x="309.9899999999999" y="159.9999999999999" as="targetPoint" />
          </mxGeometry>
        </mxCell>
        <mxCell id="2xNeuplacp_4m-XfewJ_-3" value="Select book that need to be updated" style="whiteSpace=wrap;html=1;fontSize=14;fontFamily=Georgia;fillColor=#09555B;strokeColor=#BAC8D3;fontColor=#EEEEEE;strokeWidth=2;labelBackgroundColor=none;rounded=1;shadow=0;" vertex="1" parent="1">
          <mxGeometry x="290" y="130" width="140" height="60" as="geometry" />
        </mxCell>
      </root>
    </mxGraphModel>
  </diagram>
</mxfile>
